<svg width="51" height="42" viewBox="0 0 51 42" fill="none" xmlns="http://www.w3.org/2000/svg">
<path d="M15.3463 26.2982C12.9415 23.8933 9.02856 23.8933 6.62389 26.2982C4.21912 28.7029 4.21912 32.6158 6.62389 35.0206C7.82627 36.2229 9.40568 36.8242 10.9851 36.8242C12.5645 36.8242 14.1439 36.2229 15.3463 35.0206C17.7511 32.6158 17.7511 28.7029 15.3463 26.2982V26.2982ZM7.68035 33.9641C5.85819 32.1418 5.85819 29.1769 7.68035 27.3546C8.59147 26.4435 9.78828 25.988 10.9851 25.988C12.1819 25.988 13.3787 26.4435 14.2898 27.3546C16.112 29.1769 16.112 32.1418 14.2898 33.9641C12.4675 35.7864 9.5026 35.7864 7.68035 33.9641Z" fill="#933E00"/>
<path d="M13.6355 28.0088C12.174 26.5472 9.79585 26.5472 8.33438 28.0088C6.87291 29.4702 6.87291 31.8483 8.33438 33.3099C9.06512 34.0406 10.0251 34.406 10.9849 34.406C11.9447 34.406 12.9047 34.0406 13.6354 33.3099C15.097 31.8483 15.097 29.4702 13.6355 28.0088V28.0088ZM12.579 32.2533C11.7001 33.1323 10.2699 33.1323 9.39094 32.2533C8.51199 31.3744 8.51199 29.9442 9.39094 29.0652C9.83042 28.6258 10.4078 28.406 10.985 28.406C11.5622 28.406 12.1396 28.6258 12.579 29.0652C13.4579 29.9442 13.4579 31.3744 12.579 32.2533Z" fill="#933E00"/>
<path d="M46.6775 32.2387C47.0538 32.0696 47.222 31.6274 47.053 31.2511C46.2671 29.5021 44.5208 28.3719 42.6038 28.3719C39.9155 28.3719 37.7285 30.5591 37.7285 33.2473C37.7285 35.9356 39.9155 38.1227 42.6038 38.1227C44.4561 38.1227 46.1251 37.0946 46.9595 35.4397C47.1452 35.0713 46.9972 34.6221 46.6288 34.4364C46.2605 34.2506 45.8111 34.3986 45.6253 34.7671C45.0464 35.9153 43.8887 36.6286 42.6039 36.6286C40.7395 36.6286 39.2228 35.1117 39.2228 33.2473C39.2228 31.3829 40.7396 29.8661 42.6039 29.8661C43.9337 29.8661 45.145 30.6501 45.69 31.8634C45.859 32.2397 46.3009 32.4076 46.6775 32.2387V32.2387Z" fill="#933E00"/>
<path d="M42.603 30.6405C41.1655 30.6405 39.9961 31.8099 39.9961 33.2474C39.9961 34.6848 41.1655 35.8543 42.603 35.8543C44.0405 35.8543 45.2099 34.6848 45.2099 33.2474C45.2099 31.8099 44.0405 30.6405 42.603 30.6405ZM42.603 34.3602C41.9895 34.3602 41.4902 33.8611 41.4902 33.2475C41.4902 32.6339 41.9895 32.1347 42.603 32.1347C43.2166 32.1347 43.7158 32.6339 43.7158 33.2475C43.7158 33.8611 43.2166 34.3602 42.603 34.3602Z" fill="#933E00"/>
<path d="M50.2529 40.1506H47.376C49.5636 38.6333 51 36.1055 51 33.2474C51 30.7571 49.9094 28.5178 48.182 26.9787V19.2327C48.182 18.1425 47.3612 17.2005 46.2727 17.0417C46.264 17.0404 46.2552 17.0393 46.2463 17.0383L41.5883 16.5267V15.2447C41.5883 14.8321 41.2539 14.4976 40.8412 14.4976C40.4286 14.4976 40.0942 14.8321 40.0942 15.2447V16.3627L38.0318 16.1362V10.2816C38.0318 10.1444 38.1434 10.0326 38.2808 10.0326H39.8451C39.9825 10.0326 40.0942 10.1444 40.0942 10.2816V11.6587C40.0942 12.0713 40.4286 12.4058 40.8412 12.4058C41.2539 12.4058 41.5883 12.0713 41.5883 11.6587V10.2816C41.5883 9.33256 40.8255 8.55969 39.881 8.54027V4.15467L40.8159 3.45341C41.1459 3.20589 41.2129 2.73752 40.9654 2.40752C40.7177 2.07731 40.2494 2.01057 39.9195 2.2581L38.6857 3.18347C38.4975 3.32462 38.3869 3.54605 38.3869 3.78113V8.53847H38.2808C37.3196 8.53847 36.5376 9.32051 36.5376 10.2816V15.972L28.6602 15.1068L25.4096 4.47899H25.4888C26.4501 4.47899 27.232 3.69696 27.232 2.73583V1.94324C27.232 0.982106 26.45 0.200073 25.4888 0.200073H4.79669C3.83556 0.200073 3.05353 0.982106 3.05353 1.94324V2.73583C3.05353 3.69696 3.83556 4.47899 4.79669 4.47899H5.02928V18.6343C3.83566 19.2067 2.72163 19.9569 1.72344 20.8732C1.46824 21.1075 1.31773 21.441 1.31026 21.7883C1.30279 22.1378 1.44025 22.4801 1.68748 22.7272L2.53466 23.5744L2.01948 24.0896C1.51914 24.5899 1.49444 25.3886 1.94547 25.9184C1.66019 26.462 1.42352 27.0333 1.24103 27.6196C0.547453 27.6751 0 28.2574 0 28.9652V32.3536C0 33.0612 0.547354 33.6434 1.24113 33.6991C1.42362 34.2854 1.66019 34.8567 1.94557 35.4003C1.49454 35.9302 1.51924 36.7288 2.01958 37.2292L4.41558 39.6252C4.91592 40.1254 5.71459 40.1502 6.24441 39.6992C6.56565 39.8678 6.89745 40.0171 7.23543 40.1506H0.74707C0.334488 40.1506 0 40.4851 0 40.8977C0 41.3103 0.334488 41.6447 0.74707 41.6447H50.2529C50.6656 41.6447 51 41.3103 51 40.8977C51 40.4851 50.6656 40.1506 50.2529 40.1506V40.1506ZM28.8368 16.6293L46.0678 18.5219C46.4222 18.579 46.6878 18.8827 46.6878 19.2328V21.9876H30.6604C29.6548 21.9876 28.8368 21.1696 28.8368 20.1641V16.6293ZM27.08 15.0486H18.1621C17.7495 15.0486 17.415 15.3831 17.415 15.7957C17.415 16.2083 17.7495 16.5428 18.1621 16.5428H27.3427V20.1641C27.3427 21.9934 28.8309 23.4818 30.6604 23.4818H46.6878V25.9144C45.4778 25.2376 44.0849 24.85 42.6026 24.85C37.9728 24.85 34.2062 28.6163 34.2054 33.2461H24.2519C24.5959 31.2953 24.5126 29.2799 24.001 27.363C23.3892 25.0707 22.1743 22.9677 20.4877 21.2809C17.9974 18.7907 14.6874 17.3802 11.1674 17.3093C9.56688 17.2777 7.99983 17.5241 6.52342 18.025V16.5426H14.6426C15.0552 16.5426 15.3896 16.2081 15.3896 15.7955C15.3896 15.3829 15.0552 15.0484 14.6426 15.0484H12.9415V4.47899H23.8471L27.08 15.0486ZM6.52352 15.0486V4.47899H11.4475V15.0486H6.52352ZM4.79669 2.98485C4.65943 2.98485 4.54767 2.87309 4.54767 2.73583V1.94324C4.54767 1.80598 4.65943 1.69421 4.79669 1.69421H25.4888C25.6261 1.69421 25.7379 1.80598 25.7379 1.94324V2.73583C25.7379 2.87309 25.6261 2.98485 25.4888 2.98485H4.79669ZM11.1374 18.8033C14.2696 18.8664 17.2152 20.1214 19.4312 22.3376C20.9323 23.8387 22.0134 25.7097 22.5574 27.7483C23.0357 29.5402 23.0946 31.429 22.733 33.2462H21.6313C21.8419 33.008 21.9707 32.6958 21.9707 32.3536V28.9652C21.9707 28.2575 21.4234 27.6753 20.7296 27.6196C20.5471 27.0334 20.3106 26.462 20.0252 25.9184C20.4762 25.3886 20.4515 24.5899 19.9512 24.0896L17.5552 21.6936C17.0547 21.1932 16.2561 21.1685 15.7263 21.6196C15.1828 21.3343 14.6114 21.0976 14.0251 20.9151C13.9695 20.2215 13.3872 19.674 12.6795 19.674H9.29116C8.58354 19.674 8.00132 20.2214 7.94564 20.9151C7.35934 21.0976 6.78808 21.3342 6.24441 21.6196C5.71469 21.1686 4.91612 21.1931 4.41558 21.6936L3.59132 22.5179L2.89883 21.8254C5.17162 19.8136 8.08798 18.743 11.1374 18.8033V18.8033ZM12.5429 40.1506H9.42793C9.37145 39.6128 9.0014 39.1612 8.47158 39.002C7.91546 38.835 7.37428 38.6108 6.86299 38.3359C6.3761 38.0739 5.79527 38.1318 5.37532 38.4719L3.17266 36.2692C3.51292 35.8493 3.5706 35.2685 3.30872 34.7817C3.0338 34.2703 2.80968 33.7291 2.64264 33.173C2.48346 32.6432 2.03193 32.2732 1.49404 32.2167V29.1017C2.03183 29.0453 2.48346 28.6752 2.64254 28.1454C2.80958 27.5893 3.0337 27.0481 3.30872 26.5368C3.5706 26.0498 3.51282 25.4692 3.17266 25.0492L5.37532 22.8466C5.79537 23.1868 6.3761 23.2444 6.86289 22.9826C7.37428 22.7077 7.91546 22.4836 8.47158 22.3165C9.0013 22.1574 9.37135 21.7058 9.42783 21.1679H12.5428C12.5993 21.7057 12.9693 22.1574 13.4992 22.3164C14.0553 22.4835 14.5965 22.7076 15.1078 22.9826C15.5946 23.2445 16.1753 23.1867 16.5953 22.8466L18.798 25.0492C18.4578 25.4693 18.4001 26.05 18.6619 26.5368C18.9368 27.0481 19.161 27.5894 19.328 28.1454C19.4872 28.6752 19.9387 29.0452 20.4766 29.1017V32.2167C19.9388 32.2732 19.4872 32.6432 19.328 33.1731C19.161 33.7292 18.9368 34.2704 18.6619 34.7817C18.4001 35.2685 18.4578 35.8492 18.798 36.2692L16.5953 38.4719C16.1754 38.1318 15.5946 38.0739 15.1078 38.3358C14.5965 38.6107 14.0552 38.8349 13.4992 39.0019C12.9694 39.1612 12.5994 39.6127 12.5429 40.1506V40.1506ZM14.7354 40.1506C15.0734 40.0171 15.4052 39.8678 15.7264 39.6992C16.2562 40.1503 17.055 40.1255 17.5553 39.6252L19.9513 37.2292C20.4516 36.7288 20.4763 35.9301 20.0253 35.4003C20.1384 35.1848 20.2416 34.9637 20.3391 34.7403H34.341C34.7437 36.9746 36.0319 38.9039 37.8295 40.1506H14.7354ZM35.6996 33.2474C35.6996 29.4409 38.7964 26.3441 42.6027 26.3441C46.4092 26.3441 49.506 29.4409 49.506 33.2474C49.506 37.0538 46.4092 40.1505 42.6027 40.1505C38.7963 40.1506 35.6996 37.0538 35.6996 33.2474Z" fill="#933E00"/>
<path d="M26.958 31.9804C27.3707 31.9804 27.7051 31.6459 27.7051 31.2334V27.532C27.7051 27.1194 27.3707 26.7849 26.958 26.7849C26.5453 26.7849 26.2109 27.1194 26.2109 27.532V31.2334C26.2109 31.6459 26.5453 31.9804 26.958 31.9804Z" fill="#933E00"/>
<path d="M29.5811 31.9804C29.9937 31.9804 30.3281 31.6459 30.3281 31.2334V27.532C30.3281 27.1194 29.9937 26.7849 29.5811 26.7849C29.1684 26.7849 28.834 27.1194 28.834 27.532V31.2334C28.834 31.6459 29.1684 31.9804 29.5811 31.9804Z" fill="#933E00"/>
<path d="M32.2021 31.9804C32.6148 31.9804 32.9492 31.6459 32.9492 31.2334V27.532C32.9492 27.1194 32.6148 26.7849 32.2021 26.7849C31.7895 26.7849 31.4551 27.1194 31.4551 27.532V31.2334C31.4551 31.6459 31.7896 31.9804 32.2021 31.9804Z" fill="#933E00"/>
</svg>
