<svg width="51" height="54" viewBox="0 0 51 54" fill="none" xmlns="http://www.w3.org/2000/svg">
<path d="M43.261 36.8242V32.3365C43.261 31.9001 42.9071 31.5462 42.4706 31.5462C42.0342 31.5462 41.6803 31.9001 41.6803 32.3365V36.8242C37.3465 37.2245 33.9413 40.8791 33.9413 45.3156C33.9413 48.1798 35.3618 50.7169 37.5337 52.2644H29.9222C27.9237 52.2644 26.0453 51.3823 24.769 49.8445C23.4925 48.3067 22.9716 46.298 23.3398 44.3336L24.8324 36.3694H33.161C34.7588 36.3694 36.0588 35.0694 36.0588 33.4717V23.0168C37.1275 22.7642 38.2383 22.6303 39.3758 22.6303C40.6465 22.6303 41.6804 23.6642 41.6804 24.9349V29.1754C41.6804 29.6119 42.0343 29.9657 42.4707 29.9657C42.9072 29.9657 43.2611 29.6119 43.2611 29.1754V24.9348C43.2611 23.3519 42.309 21.988 40.9477 21.3831V17.1911C40.9477 16.7547 40.5938 16.4008 40.1574 16.4008H40.1454V5.78023C40.1453 2.59297 37.5523 0 34.3652 0C32.0879 0 30.0164 1.34349 29.0874 3.42294L24.5948 13.4811C24.4167 13.8796 24.5955 14.3469 24.994 14.525C25.3925 14.7032 25.8598 14.5242 26.0378 14.1258L30.5305 4.0676C31.2054 2.55679 32.7106 1.58064 34.3651 1.58064C36.6808 1.58064 38.5648 3.46458 38.5648 5.78023V16.4009H36.9841V5.78023C36.9841 4.33609 35.8092 3.16118 34.3651 3.16118C33.3333 3.16118 32.3947 3.76988 31.9737 4.71217L13.9261 45.1164H12.1951L24.7483 17.0127C24.9263 16.6142 24.7476 16.1468 24.349 15.9688C23.9503 15.7904 23.4831 15.9695 23.3051 16.368L10.464 45.1164H10.0379C9.02116 45.1164 8.19393 45.9436 8.19393 46.9603V48.6121H5.51199C2.93038 48.6121 0.674255 50.3572 0.0253816 52.8559C-0.0361404 53.0927 0.0156011 53.3445 0.165147 53.538C0.314798 53.7314 0.545637 53.8448 0.790253 53.8448H13.2185C13.655 53.8448 14.0089 53.491 14.0089 53.0545C14.0089 52.6179 13.655 52.2642 13.2185 52.2642H1.95549C2.66809 51.0072 4.01411 50.1925 5.51199 50.1925H18.9112C20.0418 50.1925 21.03 50.9569 21.3142 52.0513L21.3695 52.2642H16.3798C15.9434 52.2642 15.5895 52.6181 15.5895 53.0545C15.5895 53.4909 15.9434 53.8448 16.3798 53.8448H22.3912C22.6358 53.8448 22.8667 53.7315 23.0163 53.538C23.166 53.3445 23.2176 53.0927 23.1561 52.8558L22.844 51.6541C22.3789 49.8629 20.7617 48.612 18.9111 48.612H17.17V46.9602C17.17 46.052 16.5095 45.2969 15.644 45.1456L33.4168 5.35673C33.5837 4.98307 33.956 4.74172 34.3651 4.74172C34.9377 4.74172 35.4035 5.2076 35.4035 5.78023V16.4009H35.2683C34.8319 16.4009 34.478 16.7547 34.478 17.1913V21.8172C29.0118 23.577 24.7534 28.2102 23.6491 34.1025L21.7862 44.0425C21.3311 46.4705 21.9751 48.9532 23.5527 50.854C25.1305 52.7548 27.452 53.8449 29.9222 53.8449H42.4706C47.1737 53.8449 51 50.0187 51 45.3155C51 40.879 47.5947 37.2245 43.261 36.8242ZM9.77436 48.6122V46.9604C9.77436 46.8152 9.89257 46.697 10.0378 46.697H15.3261C15.4713 46.697 15.5895 46.8152 15.5895 46.9604V48.6122H9.77436ZM36.0588 17.9815H39.3671V21.0498C38.2365 21.0504 37.1296 21.1703 36.0588 21.397V17.9815ZM34.4781 23.4873V33.4716C34.4781 34.1978 33.8873 34.7887 33.1609 34.7887H25.1286L25.2026 34.3936C26.1652 29.2586 29.7857 25.1848 34.4781 23.4873ZM42.4706 52.2644C38.639 52.2644 35.5219 49.1472 35.5219 45.3156C35.5219 41.4841 38.6391 38.3669 42.4706 38.3669C46.3021 38.3669 49.4194 41.4841 49.4194 45.3156C49.4194 49.1472 46.3021 52.2644 42.4706 52.2644Z" fill="#933E00"/>
<path d="M42.4715 41.7659C40.5142 41.7659 38.9219 43.3583 38.9219 45.3155C38.9219 47.2729 40.5143 48.8652 42.4715 48.8652C44.4288 48.8652 46.0212 47.2728 46.0212 45.3155C46.0212 43.3583 44.4288 41.7659 42.4715 41.7659ZM42.4715 47.2847C41.3858 47.2847 40.5024 46.4013 40.5024 45.3155C40.5024 44.2298 41.3858 43.3464 42.4715 43.3464C43.5573 43.3464 44.4407 44.2298 44.4407 45.3155C44.4407 46.4014 43.5573 47.2847 42.4715 47.2847Z" fill="#933E00"/>
</svg>
