<svg width="46" height="39" viewBox="0 0 46 39" fill="none" xmlns="http://www.w3.org/2000/svg">
<path d="M44.7563 16.1032C44.2282 15.2737 43.3299 14.9024 42.6741 14.9024H37.6368V12.6137C37.6368 10.5885 35.9898 8.9409 33.9657 8.9409L31.1251 8.93931V4.5256H39.0663C40.6807 4.5256 41.5253 3.3923 41.5253 2.27277C41.5253 1.15394 40.6807 0.0212649 39.0663 0.0212649H29.0608C27.6911 0.0212649 26.5768 1.13709 26.5768 2.50862V4.78404H18.601V2.48471C18.601 1.11459 17.4856 0 16.1144 0H6.11175C4.49669 0 3.65165 1.13233 3.65165 2.25089C3.65165 3.36936 4.49669 4.50169 6.11175 4.50169H14.0503V8.9409H11.21C9.18693 8.9409 7.54116 10.5885 7.54116 12.6137V14.9024H2.5038C1.84768 14.9024 0.949266 15.2734 0.421 16.1023C0.0218224 16.7287 -0.296531 17.8136 0.454353 19.4257L1.16341 20.9464C1.12662 24.1143 1.13932 27.3436 1.15194 30.4684C1.1583 32.0505 1.16491 33.6865 1.16491 35.2901C1.16491 37.3357 2.82736 39 4.87098 39H8.63299C10.6765 39 12.3391 37.3357 12.3391 35.2901V32.3774L14.9581 32.1279C15.6874 33.1374 16.8732 33.796 18.2107 33.796H26.9674C28.3024 33.796 29.4868 33.1372 30.216 32.1277L32.8363 32.3774V35.2901C32.8363 37.3357 34.5 39 36.5451 39H40.3044C42.3494 39 44.0131 37.3357 44.0131 35.2901C44.0131 33.7116 44.0192 32.1015 44.0252 30.5443C44.037 27.3945 44.0491 24.1395 44.0121 20.9465L44.721 19.4259C45.473 17.8149 45.1552 16.7299 44.7563 16.1032V16.1032ZM38.4683 1.35486H39.0662C39.8969 1.35486 40.1917 1.84933 40.1917 2.27277C40.1917 2.69683 39.8969 3.19201 39.0662 3.19201H38.4683V1.35486ZM31.125 1.35486H37.1349V3.19201H31.125V1.35486ZM27.9103 2.50862C27.9103 1.87245 28.4265 1.35486 29.0609 1.35486H29.7916V3.8588V8.93852L27.9103 8.93746V2.50862ZM15.3837 3.83489V1.33359H16.1144C16.7502 1.33359 17.2675 1.84995 17.2675 2.48471V8.94081H15.3837V3.83489ZM6.70963 3.1681H6.11175C5.28013 3.1681 4.98516 2.67398 4.98516 2.25089C4.98516 1.82771 5.28022 1.33359 6.11175 1.33359H6.70963V3.1681ZM8.04305 3.1681V1.33359H14.0503V3.1681H8.04305ZM8.87458 12.6136C8.87458 11.3238 9.92229 10.2745 11.21 10.2745H21.0108C21.379 10.2745 21.6775 9.97599 21.6775 9.6077C21.6775 9.2394 21.379 8.9409 21.0108 8.9409H18.601V6.11772H26.5769V8.93684L24.2524 8.93561C24.2523 8.93561 24.2522 8.93561 24.2521 8.93561C23.8841 8.93561 23.5856 9.23393 23.5854 9.60205C23.5851 9.97035 23.8835 10.269 24.2517 10.2692L30.2862 10.2726C30.3411 10.2872 30.3987 10.2958 30.4583 10.2958C30.5177 10.2958 30.5749 10.2874 30.6297 10.2728L33.9653 10.2747C35.2544 10.2747 36.3034 11.324 36.3034 12.6138V15.0403L26.2211 17.3962L23.3573 18.0501C22.786 18.1805 22.3791 18.1797 21.8026 18.0475L18.9601 17.397L8.87467 15.0404V12.6136H8.87458ZM11.0056 29.6054H9.92414C9.55593 29.6054 9.25743 29.9039 9.25743 30.2722C9.25743 30.6405 9.55593 30.939 9.92414 30.939H11.0056V31.7644V31.7686V32.8347H9.92414C9.55593 32.8347 9.25743 33.1332 9.25743 33.5015C9.25743 33.8698 9.55593 34.1683 9.92414 34.1683H11.0056V35.2902C11.0056 36.6006 9.94134 37.6666 8.63299 37.6666H4.87098C3.56271 37.6666 2.49833 36.6005 2.49833 35.2902C2.49833 34.9176 2.49797 34.5432 2.49736 34.1683H3.57983C3.94804 34.1683 4.24654 33.8698 4.24654 33.5015C4.24654 33.1332 3.94804 32.8347 3.57983 32.8347H2.49418C2.49224 32.1992 2.48986 31.5657 2.48739 30.9391H3.57992C3.94813 30.9391 4.24663 30.6406 4.24663 30.2723C4.24663 29.904 3.94813 29.6055 3.57992 29.6055H2.482C2.4745 27.6777 2.46895 25.7174 2.47618 23.7622L3.09524 25.0899C3.9438 26.9077 6.01848 28.2786 7.92102 28.2786H11.0056V29.6054ZM12.3391 31.0378V28.2784H14.1991V29.7831C14.1991 30.1514 14.2499 30.5079 14.3432 30.8469L12.3391 31.0378ZM26.9674 32.4625H18.2106C17.2201 32.4625 16.3541 31.9213 15.8908 31.1193C15.8827 31.1035 15.8737 31.0884 15.8643 31.0734C15.6531 30.6903 15.5325 30.2507 15.5325 29.7831V28.2784H20.6815C21.0497 28.2784 21.3482 27.9799 21.3482 27.6116C21.3482 27.2433 21.0497 26.9448 20.6815 26.9448H7.92102C6.54904 26.9448 4.9263 25.8596 4.30371 24.5259L2.45033 20.5508C2.44142 20.5287 2.43136 20.5072 2.42024 20.4863L1.66309 18.8623C1.27088 18.0202 1.23021 17.3137 1.54556 16.8189C1.81627 16.3942 2.27703 16.2359 2.50389 16.2359H8.13119L18.6597 18.6961L21.5048 19.3472C21.8946 19.4367 22.2408 19.4813 22.5865 19.4813C22.9288 19.4813 23.2706 19.4376 23.6542 19.35L26.5214 18.6954L37.0471 16.2359H42.6743C42.9008 16.2359 43.3611 16.3942 43.6317 16.8194C43.9467 17.3141 43.9056 18.0203 43.5127 18.862L42.7554 20.4862C42.7442 20.5071 42.7342 20.5287 42.7252 20.5509L40.8716 24.5264C40.1767 26.0202 38.4545 26.9448 37.2572 26.9448H30.3167H30.315H23.9627C23.5945 26.9448 23.296 27.2433 23.296 27.6116C23.296 27.9799 23.5945 28.2784 23.9627 28.2784H29.6466L29.6429 29.7821C29.6406 31.2601 28.4404 32.4625 26.9674 32.4625V32.4625ZM30.8312 30.8468C30.9245 30.5083 30.9757 30.1524 30.9762 29.7848L30.9799 28.2785H32.8363V31.0379L30.8312 30.8468ZM42.695 29.6054H41.5954C41.2272 29.6054 40.9287 29.9039 40.9287 30.2722C40.9287 30.6405 41.2272 30.939 41.5954 30.939H42.69C42.6877 31.5658 42.6854 32.1985 42.6835 32.8346H41.5954C41.2272 32.8346 40.9287 33.1331 40.9287 33.5014C40.9287 33.8697 41.2272 34.1682 41.5954 34.1682H42.6805C42.6799 34.5431 42.6795 34.9175 42.6795 35.2901C42.6795 36.6005 41.614 37.6665 40.3042 37.6665H36.5449C35.2351 37.6665 34.1696 36.6004 34.1696 35.2901V34.1682H35.2511C35.6193 34.1682 35.9178 33.8697 35.9178 33.5014C35.9178 33.1331 35.6193 32.8346 35.2511 32.8346H34.1696V31.7685C34.1696 31.7672 34.1696 31.7657 34.1696 31.7643V30.9389H35.2511C35.6193 30.9389 35.9178 30.6404 35.9178 30.2721C35.9178 29.9038 35.6193 29.6053 35.2511 29.6053H34.1696V28.2784H37.2568C39.1609 28.2784 41.2345 26.9072 42.0801 25.0894L42.6994 23.7612C42.7071 25.7161 42.702 27.6768 42.695 29.6054V29.6054Z" fill="#933E00"/>
<path d="M27.9104 23.0535C27.9104 22.6852 27.6119 22.3867 27.2437 22.3867H17.9343C17.5661 22.3867 17.2676 22.6852 17.2676 23.0535C17.2676 23.4218 17.5661 23.7203 17.9343 23.7203H27.2436C27.6119 23.7203 27.9104 23.4218 27.9104 23.0535Z" fill="#933E00"/>
<path d="M33.2981 24.8952H37.9289C39.3996 24.8952 40.5962 23.6983 40.5962 22.227C40.5962 20.7559 39.3996 19.559 37.9289 19.559H33.2981C31.8274 19.559 30.6309 20.7559 30.6309 22.227C30.6309 23.6983 31.8274 24.8952 33.2981 24.8952ZM33.2981 20.8925H37.9289C38.6643 20.8925 39.2628 21.4911 39.2628 22.2269C39.2628 22.9628 38.6643 23.5615 37.9289 23.5615H33.2981C32.5627 23.5615 31.9643 22.9628 31.9643 22.2269C31.9643 21.4911 32.5627 20.8925 33.2981 20.8925Z" fill="#933E00"/>
<path d="M13.093 19.5588H8.46219C6.99148 19.5588 5.79492 20.7558 5.79492 22.2269C5.79492 23.6981 6.99148 24.8951 8.46219 24.8951H13.093C14.5637 24.8951 15.7602 23.6981 15.7602 22.2269C15.7602 20.7558 14.5637 19.5588 13.093 19.5588ZM13.093 23.5616H8.46219C7.72675 23.5616 7.12834 22.9629 7.12834 22.227C7.12834 21.4911 7.72675 20.8925 8.46219 20.8925H13.093C13.8284 20.8925 14.4267 21.4912 14.4267 22.227C14.4267 22.9629 13.8284 23.5616 13.093 23.5616V23.5616Z" fill="#933E00"/>
<path d="M19.7956 14.8778H25.3802C25.7484 14.8778 26.0469 14.5793 26.0469 14.211C26.0469 13.8427 25.7484 13.5442 25.3802 13.5442H19.7956C19.4274 13.5442 19.1289 13.8427 19.1289 14.211C19.1289 14.5793 19.4273 14.8778 19.7956 14.8778V14.8778Z" fill="#933E00"/>
</svg>
