<svg width="63" height="39" viewBox="0 0 63 39" fill="none" xmlns="http://www.w3.org/2000/svg">
<path d="M49.5722 12.8924C47.7673 12.8924 46.0267 13.2792 44.4152 13.9238L42.2234 9.66923V2.90059C42.2234 2.51381 41.9656 2.12703 41.5788 1.99811L36.4217 0.0642085C35.906 -0.129181 35.3903 0.128671 35.1969 0.644377C35.0035 1.16008 35.2614 1.67579 35.7771 1.86918L40.354 3.54522V9.0246H21.4663V7.15516H23.7869C24.3026 7.15516 24.7539 6.70392 24.7539 6.18822C24.7539 5.67251 24.3026 5.22127 23.7869 5.22127H17.7919C17.2761 5.22127 16.8249 5.67251 16.8249 6.18822C16.8249 6.70392 17.2761 7.15516 17.7919 7.15516H19.5324V9.79815L17.6629 13.8593C16.2447 13.2792 14.6332 12.9569 13.0216 12.9569C5.86615 12.9569 0 18.7585 0 25.9784C0 33.1983 5.80169 39 13.0216 39C19.8547 39 25.463 33.6496 25.9787 26.9454H30.1688C30.4911 26.9454 30.749 26.8164 30.9423 26.5586L41.0631 11.9254L42.6747 14.9552C39.0003 17.147 36.5507 21.2726 36.5507 25.914C36.5507 33.0694 42.3523 38.9355 49.5722 38.9355C56.7921 38.9355 62.5938 33.1338 62.5938 25.914C62.5938 18.6941 56.7921 12.8924 49.5722 12.8924ZM13.0216 37.0016C6.89757 37.0016 1.9339 32.038 1.9339 25.914C1.9339 19.79 6.89757 14.8263 13.0216 14.8263C14.3753 14.8263 15.6646 15.0841 16.8249 15.5354L12.1191 25.5272C12.1191 25.5272 12.1191 25.5272 12.1191 25.5916C12.0546 25.7206 12.0546 25.785 12.0546 25.914C12.0546 25.914 12.0546 25.914 12.0546 25.9784C12.0546 26.1074 12.0546 26.1718 12.1191 26.3007V26.3652C12.1191 26.4297 12.1191 26.4297 12.1835 26.4941C12.1835 26.5586 12.248 26.5586 12.3125 26.6231C12.3125 26.6231 12.3125 26.6231 12.3125 26.6875C12.3769 26.752 12.5059 26.8164 12.5703 26.8809H12.6348C12.7637 26.9454 12.8282 26.9454 12.9571 26.9454H23.9803C23.5291 32.5537 18.8233 37.0016 13.0216 37.0016ZM14.5042 24.947L18.5654 16.3734C21.5952 18.1139 23.7225 21.2726 24.0448 24.947H14.5042V24.947ZM29.6531 24.947H25.9142C25.5919 20.4991 23.0134 16.6957 19.339 14.5684L21.0795 10.894H39.3226L29.6531 24.947ZM49.5078 37.0016C43.3838 37.0016 38.4201 32.038 38.4201 25.914C38.4201 21.9817 40.4829 18.5652 43.5771 16.5668L48.6697 26.3652C48.8631 26.6875 49.1854 26.8809 49.5078 26.8809C49.6367 26.8809 49.8301 26.8164 49.959 26.752C50.4102 26.4941 50.6036 25.914 50.3458 25.4627L45.2532 15.6643C46.6069 15.1486 48.0251 14.8263 49.5078 14.8263C55.6318 14.8263 60.5954 19.79 60.5954 25.914C60.5954 32.038 55.6318 37.0016 49.5078 37.0016Z" fill="#933E00"/>
</svg>
