<svg width="144" height="142" viewBox="0 0 144 142" fill="none" xmlns="http://www.w3.org/2000/svg">
<path d="M133.072 64.5801L143.01 59.3204L136.298 38.8917L125.158 40.4124L117.514 30.0092L122.474 19.8789L104.936 7.27074L96.7379 15.052L84.3424 11.0669L82.3351 0H60.6747L58.6674 11.0669L46.2719 15.052L38.0744 7.27103L20.5366 19.8792L25.4964 30.0092L17.8524 40.4127L6.71213 38.892L0.000135986 59.3206L9.93771 64.5801V77.4199L0 82.6796L6.71244 103.108L17.8524 101.588L25.4964 111.991L20.5364 122.121L38.0742 134.729L46.272 126.948L58.6676 130.933L60.6749 142H82.3353L84.3425 130.933L96.7381 126.948L104.936 134.729L122.474 122.121L117.514 111.991L125.158 101.587L136.298 103.108L143.01 82.6793L133.072 77.4199L133.072 64.5801ZM133.032 97.8847L123.009 96.5171L112.002 111.498L116.464 120.612L105.353 128.599L97.9613 121.583L80.1916 127.295L78.3831 137.267H64.627L62.8185 127.295L45.0488 121.583L37.6568 128.599L26.5457 120.612L31.008 111.498L20.0004 96.5168L9.97844 97.885L5.74331 84.9955L14.671 80.2702V61.7298L5.74331 57.0048L9.97829 44.115L20.0007 45.4829L31.008 30.502L26.5458 21.3884L37.6569 13.4009L45.0487 20.4168L62.8183 14.7047L64.6269 4.73333H78.383L80.1915 14.7047L97.9611 20.4168L105.353 13.4006L116.464 21.3881L112.002 30.502L123.009 45.4832L133.032 44.115L137.267 57.0045L128.339 61.7298L128.339 80.2702L137.267 84.9952L133.032 97.8847Z" fill="white"/>
<path d="M71.5047 21.3002C44.0999 21.3002 21.8047 43.5954 21.8047 71.0002C21.8047 98.4049 44.0999 120.7 71.5047 120.7C98.9094 120.7 121.205 98.4049 121.205 71.0002C121.205 43.5954 98.9094 21.3002 71.5047 21.3002ZM71.5047 115.967C46.71 115.967 26.538 95.795 26.538 71.0002C26.538 46.2054 46.71 26.0335 71.5047 26.0335C96.2994 26.0335 116.471 46.2054 116.471 71.0002C116.471 95.795 96.2994 115.967 71.5047 115.967Z" fill="white"/>
<path d="M98.7491 48.6524L75.0825 34.847C73.9963 34.2146 72.7619 33.8814 71.505 33.8814C70.2481 33.8814 69.0137 34.2146 67.9275 34.847L44.2606 48.6524C43.1904 49.2795 42.3025 50.1752 41.6847 51.2508C41.067 52.3265 40.7407 53.5447 40.7383 54.7851V87.2147C40.7407 88.4551 41.067 89.6734 41.6848 90.7491C42.3026 91.8247 43.1906 92.7204 44.2608 93.3475L67.9274 107.153C69.0136 107.785 70.248 108.118 71.5049 108.118C72.7618 108.118 73.9962 107.785 75.0824 107.153L98.7494 93.3475C99.8195 92.7203 100.707 91.8246 101.325 90.749C101.943 89.6734 102.269 88.4551 102.272 87.2147V54.7851C102.269 53.5447 101.943 52.3264 101.325 51.2508C100.707 50.1751 99.8193 49.2795 98.7491 48.6524ZM70.3125 38.9355C70.6746 38.7247 71.0861 38.6137 71.505 38.6137C71.924 38.6137 72.3355 38.7247 72.6975 38.9355L95.208 52.0666L72.6974 65.1977C72.3353 65.4085 71.9239 65.5196 71.5049 65.5196C71.0859 65.5196 70.6744 65.4085 70.3124 65.1977L66.346 62.884L77.6384 56.1086L64.2287 48.2213L52.8814 55.0297L47.8018 52.0665L70.3125 38.9355ZM54.774 61.6134L59.511 64.3766L59.5087 71.3365L54.774 68.5532V61.6134ZM57.546 57.7507L64.2527 53.7266L68.3711 56.149L61.6813 60.1629L57.546 57.7507ZM46.646 89.259C46.2892 89.0499 45.9932 88.7514 45.7872 88.3929C45.5812 88.0343 45.4725 87.6282 45.4716 87.2147V56.187L50.0407 58.8523V71.2614L64.2394 79.6077L64.2435 67.1373L67.9274 69.2862C68.3125 69.51 68.718 69.6969 69.1383 69.8445V102.379L46.646 89.259ZM96.3642 89.259L73.8716 102.379V69.8445C74.2919 69.6969 74.6973 69.51 75.0824 69.2862L97.5383 56.187V87.2147C97.5374 87.6282 97.4287 88.0342 97.2228 88.3928C97.0168 88.7513 96.7209 89.0499 96.3642 89.259V89.259Z" fill="white"/>
</svg>
