<svg width="160" height="60" viewBox="0 0 160 60" fill="none" xmlns="http://www.w3.org/2000/svg">
<path d="M130.406 59.0625C121.156 59.0625 113.625 51.5312 113.625 42.2812C113.625 33.0312 121.156 25.5 130.406 25.5C139.656 25.5 147.187 33.0312 147.187 42.2812C147.187 51.5312 139.656 59.0625 130.406 59.0625ZM130.406 28.5937C122.875 28.5937 116.75 34.7188 116.75 42.25C116.75 49.7812 122.875 55.9062 130.406 55.9062C137.937 55.9062 144.062 49.7812 144.062 42.25C144.062 34.7188 137.937 28.5937 130.406 28.5937Z" fill="white"/>
<path d="M29.0938 59.0625C19.8437 59.0625 12.3125 51.5312 12.3125 42.2812C12.3125 33.0312 19.8437 25.5 29.0938 25.5C38.3438 25.5 45.875 33.0312 45.875 42.2812C45.875 51.5312 38.3438 59.0625 29.0938 59.0625ZM29.0938 28.5937C21.5625 28.5937 15.4375 34.7188 15.4375 42.25C15.4375 49.7812 21.5625 55.9375 29.0938 55.9375C36.625 55.9375 42.75 49.8125 42.75 42.2812C42.75 34.75 36.625 28.5937 29.0938 28.5937Z" fill="white"/>
<path d="M29.0938 51.3125C24.125 51.3125 20.0625 47.25 20.0625 42.2812C20.0625 37.3125 24.125 33.25 29.0938 33.25C34.0625 33.25 38.125 37.3125 38.125 42.2812C38.125 47.25 34.0625 51.3125 29.0938 51.3125ZM29.0938 36.3437C25.8438 36.3437 23.1875 39 23.1875 42.25C23.1875 45.5 25.8438 48.1563 29.0938 48.1563C32.3438 48.1563 35 45.5 35 42.25C35 39 32.3438 36.3437 29.0938 36.3437Z" fill="white"/>
<path d="M130.344 51.3125C125.375 51.3125 121.312 47.25 121.312 42.2812C121.312 37.3125 125.375 33.25 130.344 33.25C135.312 33.25 139.375 37.3125 139.375 42.2812C139.375 47.25 135.312 51.3125 130.344 51.3125ZM130.344 36.3437C127.094 36.3437 124.438 39 124.438 42.25C124.438 45.5 127.094 48.1563 130.344 48.1563C133.594 48.1563 136.25 45.5 136.25 42.25C136.25 39 133.594 36.3437 130.344 36.3437Z" fill="white"/>
<path d="M154.687 51.25H143.656V48.125H153.125V42.25C153.125 42.0313 153.156 41.8125 153.25 41.625L156.5 34.2188L150.281 29.5625C143.406 24.4063 134.906 21.5625 126.312 21.5625H113.125C112.812 21.5625 112.5 21.4688 112.25 21.2813L98.4062 11.875C90.8437 6.75 82.0312 4.03125 72.9062 4.03125H40.2187L3.125 15.375V16.875H5C5.875 16.875 6.5625 17.5625 6.5625 18.4375V31.875C6.5625 32.75 5.875 33.4375 5 33.4375H3.125V41.9687L7.8125 48.125H15.8125V51.25H7.03125C6.53125 51.25 6.09375 51.0312 5.78125 50.625L0.3125 43.4375C0.09375 43.1562 0 42.8438 0 42.5V31.875C0 31 0.6875 30.3125 1.5625 30.3125H3.4375V20H1.5625C0.6875 20 0 19.3125 0 18.4375V14.2188C0 13.5312 0.4375 12.9375 1.09375 12.7187L39.5312 0.999999C39.6875 0.968749 39.8437 0.9375 40 0.9375H72.9062C82.6562 0.9375 92.0937 3.84375 100.156 9.3125L113.594 18.4375H126.312C135.562 18.4375 144.75 21.5 152.156 27.0625L159.375 32.4687C159.969 32.9062 160.156 33.6875 159.875 34.3438L156.25 42.5937V49.6875C156.25 50.5625 155.562 51.25 154.687 51.25Z" fill="white"/>
<path d="M94.75 48.125H117.125V51.25H94.75V48.125Z" fill="white"/>
<path d="M42.3438 48.125H88.5V51.25H42.3438V48.125Z" fill="white"/>
<path d="M11.7812 33.4375H5C4.125 33.4375 3.4375 32.75 3.4375 31.875V18.4375C3.4375 17.5625 4.125 16.875 5 16.875H11.8125C12.4375 16.875 13 17.25 13.25 17.8125L16.5312 25.4688C16.7187 25.9062 16.6875 26.4375 16.4687 26.8437L13.1875 32.625C12.875 33.125 12.3437 33.4375 11.7812 33.4375ZM6.5625 30.3125H10.875L13.3125 26L10.7812 20H6.5625V30.3125Z" fill="white"/>
<path d="M103.438 20.9375H80.0002C79.9065 20.9375 79.844 20.9375 79.7502 20.9062L48.344 16.0625L48.8127 12.9687L80.1252 17.8125H98.5627L97.2814 16.9062C89.5314 11.375 80.4065 8.4375 70.8752 8.4375H43.0315L34.844 10.8437L42.594 12.0312L42.1252 15.125L27.4377 12.875C26.719 12.75 26.1565 12.1562 26.1252 11.4375C26.0627 10.7188 26.5315 10.0312 27.2502 9.84375L42.4065 5.40625C42.5627 5.375 42.6877 5.34375 42.844 5.34375H70.9064C81.0939 5.34375 90.844 8.46875 99.1252 14.375L104.375 18.125C104.938 18.5312 105.156 19.2188 104.969 19.875C104.719 20.5 104.125 20.9375 103.438 20.9375Z" fill="white"/>
<path d="M61 18.0312C60.9062 18.0312 60.8437 18.0313 60.75 18L54.375 17.0312C53.625 16.9062 53.0625 16.25 53.0625 15.5V6.875C53.0625 6 53.75 5.3125 54.625 5.3125H61C61.875 5.3125 62.5625 6 62.5625 6.875V16.4375C62.5625 16.9063 62.375 17.3125 62.0312 17.625C61.75 17.875 61.375 18.0312 61 18.0312ZM56.1875 14.125L59.4375 14.625V8.4375H56.1875V14.125Z" fill="white"/>
<path d="M111.312 43.8125L60.4999 40.7813C60.0624 40.75 59.6561 40.5313 59.3749 40.1875L49.7186 28C49.4061 27.625 49.3124 27.125 49.4374 26.6563C49.5624 26.1875 49.8749 25.8125 50.3124 25.5938L60.4061 21.0625C60.6874 20.9375 60.9686 20.9063 61.2811 20.9375L110.781 28.4375L110.312 31.5313L61.2499 24.125L53.4374 27.625L61.4061 37.6875L111.531 40.6875L111.312 43.8125Z" fill="white"/>
<path d="M148.75 32.1875H158.438V35.3125H148.75V32.1875Z" fill="white"/>
</svg>
