<svg width="51" height="40" viewBox="0 0 51 40" fill="none" xmlns="http://www.w3.org/2000/svg">
<path d="M49.0494 14.6571L47.9378 13.4801L44.0365 2.9641C43.3718 1.18782 41.6718 0.0108974 39.7756 0H11.9109C10.0147 0 8.31474 1.18782 7.65 2.9641L3.80321 13.3494L2.20128 14.8314C0.80641 16.0192 0 17.7628 0 19.5936V34.9154C0.0108974 37.4218 2.04872 39.4487 4.55513 39.4487H7.43205C9.93846 39.4487 11.9763 37.4218 11.9872 34.9154V32.6923H39.0128V34.9154C39.0237 37.4218 41.0615 39.4487 43.5679 39.4487H46.4449C48.9513 39.4487 50.9891 37.4218 51 34.9154V19.1904C50.9891 17.4795 50.2917 15.8449 49.0494 14.6571ZM9.69872 3.70513C10.0474 2.77885 10.9301 2.17949 11.9109 2.17949H39.7865C40.7673 2.17949 41.65 2.78974 41.9987 3.70513L45.3987 12.859H42.8596C42.2603 8.77244 38.4571 5.95 34.3705 6.56026C31.1122 7.03974 28.5513 9.60064 28.0718 12.859H6.29872L9.69872 3.70513ZM40.6365 12.859H30.2731C30.8724 9.99295 33.684 8.16218 36.55 8.76154C38.5987 9.19744 40.2006 10.7994 40.6365 12.859ZM9.80769 34.9154C9.79679 36.2231 8.73974 37.2692 7.43205 37.2692H4.55513C3.24744 37.2692 2.19038 36.2231 2.17949 34.9154V32.0603C2.83333 32.4853 3.69423 32.6923 4.55513 32.6923H9.80769V34.9154ZM48.8205 34.9154C48.8096 36.2231 47.7526 37.2692 46.4449 37.2692H43.5679C42.2603 37.2692 41.2032 36.2122 41.1923 34.9154V32.6923H46.4449C47.3058 32.6923 48.1667 32.4853 48.8205 32.0603V34.9154ZM46.4449 30.5128H4.55513C3.25833 30.5237 2.19038 29.4885 2.17949 28.1808V19.5936C2.17949 18.3949 2.71346 17.2506 3.62885 16.4769C3.63974 16.466 3.66154 16.4442 3.67244 16.4333L5.15449 15.0385H46.4231L47.4692 16.1609C47.4801 16.1827 47.5128 16.1936 47.5237 16.2154C48.341 16.9891 48.8096 18.0679 48.8096 19.1904V28.1808H48.8205C48.8096 29.4776 47.7417 30.5237 46.4449 30.5128Z" fill="#933E00"/>
<path d="M14.3839 19.3975H6.21084C5.61148 19.3975 5.12109 19.8878 5.12109 20.4872V26.1539C5.12109 26.7532 5.61148 27.2436 6.21084 27.2436H14.3839C14.9833 27.2436 15.4737 26.7532 15.4737 26.1539V20.4872C15.4737 19.8878 14.9833 19.3975 14.3839 19.3975ZM13.2942 25.0641H7.30058V21.5769H13.2942V25.0641Z" fill="#933E00"/>
<path d="M44.7882 19.3975H36.6151C36.0158 19.3975 35.5254 19.8878 35.5254 20.4872V26.1539C35.5254 26.7532 36.0158 27.2436 36.6151 27.2436H44.7882C45.3876 27.2436 45.878 26.7532 45.878 26.1539V20.4872C45.878 19.8878 45.3876 19.3975 44.7882 19.3975ZM43.6985 25.0641H37.7049V21.5769H43.6985V25.0641Z" fill="#933E00"/>
<path d="M30.7632 23.9744H20.2362C19.6369 23.9744 19.1465 24.4647 19.1465 25.0641C19.1465 25.6635 19.6369 26.1539 20.2362 26.1539H30.7632C31.3625 26.1539 31.8529 25.6635 31.8529 25.0641C31.8529 24.4647 31.3625 23.9744 30.7632 23.9744Z" fill="#933E00"/>
<path d="M30.7632 20.5962H20.2362C19.6369 20.5962 19.1465 21.0866 19.1465 21.6859C19.1465 22.2853 19.6369 22.7757 20.2362 22.7757H30.7632C31.3625 22.7757 31.8529 22.2853 31.8529 21.6859C31.8529 21.0866 31.3625 20.5962 30.7632 20.5962Z" fill="#933E00"/>
</svg>
