<svg width="34" height="37" viewBox="0 0 34 37" fill="none" xmlns="http://www.w3.org/2000/svg">
<path d="M17.7659 9.37085C17.2609 9.37085 16.8516 9.78101 16.8516 10.287V12.0488C16.8516 12.5548 17.2609 12.965 17.7659 12.965C18.2708 12.965 18.6802 12.5548 18.6802 12.0488V10.287C18.6802 9.78101 18.2708 9.37085 17.7659 9.37085Z" fill="white"/>
<path d="M17.7659 28.7828C17.2609 28.7828 16.8516 29.193 16.8516 29.699V31.4608C16.8516 31.9668 17.2609 32.377 17.7659 32.377C18.2708 32.377 18.6802 31.9668 18.6802 31.4608V29.699C18.6802 29.193 18.2708 28.7828 17.7659 28.7828Z" fill="white"/>
<path d="M28.3308 19.9573H26.5725C26.0675 19.9573 25.6582 20.3675 25.6582 20.8735C25.6582 21.3795 26.0675 21.7897 26.5725 21.7897H28.3308C28.8358 21.7897 29.2451 21.3795 29.2451 20.8735C29.2451 20.3675 28.8358 19.9573 28.3308 19.9573Z" fill="white"/>
<path d="M25.9128 27.7411C25.9032 27.731 25.8934 27.7212 25.8833 27.7116L24.6398 26.4656C24.291 26.0998 23.7122 26.0865 23.3472 26.4361C22.9821 26.7856 22.9688 27.3655 23.3177 27.7314C23.3272 27.7414 23.3371 27.7512 23.3472 27.7609L24.5906 29.0069C24.9395 29.3727 25.5182 29.3859 25.8833 29.0364C26.2484 28.6868 26.2616 28.1069 25.9128 27.7411Z" fill="white"/>
<path d="M25.3655 13.2048C25.0144 12.8818 24.4746 12.8833 24.1253 13.2081L19.2724 18.0708C17.7259 17.2356 15.7964 17.8147 14.9629 19.3644C14.7127 19.8294 14.5818 20.3495 14.582 20.8778L14.5841 20.8736C14.5832 22.6348 16.0073 24.0633 17.7649 24.0642C19.5226 24.0651 20.9482 22.6382 20.9491 20.8769C20.9494 20.348 20.8184 19.8275 20.5679 19.3619L25.4208 14.4992C25.7622 14.1265 25.7375 13.5469 25.3655 13.2048ZM17.7666 22.2302C17.0189 22.2302 16.4128 21.6228 16.4128 20.8736C16.4135 20.1246 17.0192 19.5177 17.7666 19.5169C18.5143 19.5169 19.1205 20.1244 19.1205 20.8736C19.1205 21.6228 18.5143 22.2302 17.7666 22.2302Z" fill="white"/>
<path d="M32.212 9.64567C32.5608 10.0115 33.1396 10.0248 33.5047 9.6752C33.8697 9.32565 33.883 8.74572 33.5341 8.3799C33.5246 8.36982 33.5147 8.35995 33.5047 8.35037L30.2638 5.10365C29.8987 4.7541 29.3199 4.76735 28.9711 5.13318C28.6334 5.48731 28.6334 6.04482 28.9711 6.39895L29.9494 7.37924L28.0076 9.32502C25.4265 7.01186 22.1382 5.64524 18.6809 5.44897V2.07328H21.9091C22.4141 2.07328 22.8234 1.66312 22.8234 1.15712C22.8234 0.651123 22.4141 0.240967 21.9091 0.240967H13.6234C13.1184 0.240967 12.7091 0.651123 12.7091 1.15712C12.7091 1.66312 13.1184 2.07328 13.6234 2.07328H16.8516V5.45038C13.083 5.66427 9.52619 7.26606 6.86457 9.94801C6.51573 10.3138 6.52895 10.8938 6.89404 11.2433C7.24746 11.5817 7.80392 11.5817 8.15726 11.2433C13.4645 5.9253 22.0693 5.92523 27.3765 11.2432C27.3765 11.2432 27.3766 11.2432 27.3767 11.2433C32.6754 16.5528 32.6754 25.1922 27.3767 30.5016C22.0779 35.8111 13.456 35.8111 8.15726 30.5016C7.79217 30.1521 7.21342 30.1653 6.86457 30.5312C6.52691 30.8853 6.52691 31.4428 6.86457 31.7969C12.8906 37.826 22.6531 37.8185 28.6699 31.7804C34.428 26.0019 34.7042 16.7312 29.3002 10.6189L31.2428 8.67243L32.212 9.64567Z" fill="white"/>
<path d="M9.2992 14.082H0.914306C0.409328 14.082 0 14.4921 0 14.9981C0 15.5041 0.409328 15.9143 0.914306 15.9143H9.2992C9.80418 15.9143 10.2135 15.5041 10.2135 14.9981C10.2135 14.4921 9.80418 14.082 9.2992 14.082Z" fill="white"/>
<path d="M11.4308 19.9574H3.04517C2.54019 19.9574 2.13086 20.3676 2.13086 20.8736C2.13086 21.3796 2.54019 21.7897 3.04517 21.7897H11.4308C11.9357 21.7897 12.3451 21.3796 12.3451 20.8736C12.3451 20.3676 11.9357 19.9574 11.4308 19.9574Z" fill="white"/>
<path d="M9.2992 25.8321H0.914306C0.409328 25.8321 0 26.2422 0 26.7482C0 27.2543 0.409328 27.6644 0.914306 27.6644H9.2992C9.80418 27.6644 10.2135 27.2543 10.2135 26.7482C10.2135 26.2422 9.80418 25.8321 9.2992 25.8321Z" fill="white"/>
</svg>
