<svg width="72" height="39" viewBox="0 0 72 39" fill="none" xmlns="http://www.w3.org/2000/svg">
<path d="M53.1959 26.7683C50.7564 26.7683 48.7715 28.7531 48.7715 31.1928C48.7715 33.6324 50.7562 35.6172 53.1959 35.6172C55.6355 35.6172 57.6204 33.6325 57.6204 31.1928C57.6204 28.7531 55.6356 26.7683 53.1959 26.7683ZM53.1959 33.5344C51.9046 33.5344 50.854 32.4839 50.854 31.1925C50.854 29.9012 51.9046 28.8506 53.1959 28.8506C54.4873 28.8506 55.5379 29.9012 55.5379 31.1925C55.5379 32.4839 54.4873 33.5344 53.1959 33.5344Z" fill="#933E00"/>
<path d="M14.0416 26.7683C11.6021 26.7683 9.61719 28.7531 9.61719 31.1928C9.61719 33.6324 11.6019 35.6172 14.0416 35.6172C16.4813 35.6172 18.4661 33.6325 18.4661 31.1928C18.4661 28.7531 16.4813 26.7683 14.0416 26.7683ZM14.0416 33.5344C12.7503 33.5344 11.6997 32.4839 11.6997 31.1925C11.6997 29.9012 12.7503 28.8506 14.0416 28.8506C15.333 28.8506 16.3836 29.9012 16.3836 31.1925C16.3836 32.4839 15.3329 33.5344 14.0416 33.5344Z" fill="#933E00"/>
<path d="M69.4422 7.18563C69.3042 6.75451 68.9032 6.46185 68.4505 6.46185H64.996L64.5134 4.81646V4.81634L64.1779 3.67271C64.1707 3.64817 64.1626 3.62375 64.1536 3.59969C63.3448 1.44661 61.2562 0 58.9562 0H2.67476C1.19994 0.000237071 0 1.20005 0 2.67487V29.5591C0 31.0339 1.19994 32.2339 2.67476 32.2339H6.3061C6.81698 36.0481 10.0903 39 14.042 39C17.9936 39 21.2671 36.0481 21.7778 32.2339H45.4598C45.9707 36.0481 49.2441 39 53.1957 39C57.1473 39 60.4208 36.0481 60.9316 32.2339H66.1362C67.6111 32.2339 68.811 31.0339 68.811 29.5591V22.4643V22.3639C68.811 19.7809 68.3527 17.2446 67.4489 14.8247L65.6065 8.5444H67.6901L69.0504 12.7932C69.1921 13.2353 69.6012 13.5172 70.0419 13.5172C70.7485 13.5172 71.2484 12.8284 71.0339 12.1582L69.4422 7.18563ZM66.7057 21.4231H61.0072C60.5696 21.4231 60.1407 21.2723 59.7996 20.9982C58.1768 19.6949 56.2975 18.1857 54.6628 16.8728C54.4487 16.701 54.2167 16.5555 53.9739 16.4318V6.1507H62.7347C62.9814 6.99171 65.1358 14.3357 65.4618 15.4473C65.5881 15.8818 66.5432 18.087 66.7057 21.4231V21.4231ZM40.8288 15.989V13.5524C40.8288 12.9774 40.3627 12.5112 39.7875 12.5112C39.2123 12.5112 38.7463 12.9774 38.7463 13.5524V15.989H36.8839V6.1507H38.7463V8.69317C38.7463 9.26818 39.2124 9.73438 39.7875 9.73438C40.3628 9.73438 40.8288 9.26818 40.8288 8.69317V6.1507H47.9461V15.989H40.8288ZM27.6839 15.989V6.1507H34.8012V15.989H27.6839ZM14.5389 15.989V6.1507H21.6562V15.989H14.5389ZM2.08255 15.989V6.1507H8.51133V15.989H2.08255ZM10.5939 6.15081H12.4563V15.9892H10.5939V6.15081ZM23.7387 6.15081H25.6013V15.9892H23.7387V6.15081ZM50.0287 6.15081H51.8913V15.9892H50.0287V6.15081ZM2.08255 2.67487C2.08255 2.35388 2.35364 2.08255 2.67487 2.08255H58.9564C60.2971 2.08255 61.5296 2.8803 62.0918 4.06814C58.1033 4.06814 4.41521 4.06814 2.08279 4.06814V2.67476H2.08255V2.67487ZM14.0421 36.9176C10.8854 36.9176 8.31717 34.3494 8.31717 31.1926C8.31717 28.0359 10.8854 25.4677 14.0421 25.4677C17.1988 25.4677 19.767 28.0359 19.767 31.1926C19.767 34.3494 17.1988 36.9176 14.0421 36.9176V36.9176ZM53.1959 36.9176C50.0392 36.9176 47.471 34.3494 47.471 31.1926C47.471 28.0359 50.0392 25.4677 53.1959 25.4677C56.3527 25.4677 58.9209 28.0359 58.9209 31.1926C58.9209 34.3494 56.3528 36.9176 53.1959 36.9176V36.9176ZM66.1366 30.1513H60.9343C60.4197 26.3025 57.1086 23.3852 53.1961 23.3852C49.2197 23.3852 45.9634 26.3687 45.4578 30.1513H21.7804C21.2724 26.3508 17.9984 23.3852 14.0422 23.3852C10.0914 23.3852 6.81307 26.3426 6.30396 30.1513H2.67476C2.35364 30.1513 2.08243 29.88 2.08243 29.559V22.0926H30.7394C31.3146 22.0926 31.7806 21.6264 31.7806 21.0513C31.7806 20.4763 31.3145 20.0101 30.7394 20.0101H2.08255V18.0716H52.1512C52.5678 18.0716 53.0072 18.2142 53.3588 18.4965L55.2435 20.0101H35.5987C35.0235 20.0101 34.5575 20.4763 34.5575 21.0513C34.5575 21.6264 35.0236 22.0926 35.5987 22.0926H57.8365L58.4956 22.6218C59.205 23.1916 60.097 23.5055 61.0072 23.5055H66.7289V29.559C66.7288 29.8801 66.4577 30.1513 66.1366 30.1513Z" fill="#933E00"/>
</svg>
