<svg width="142" height="142" viewBox="0 0 142 142" fill="none" xmlns="http://www.w3.org/2000/svg">
<path d="M98.974 42.6237C98.4939 41.2355 97.5931 40.0314 96.397 39.1789C95.2009 38.3263 93.7689 37.8676 92.3 37.8667H89.9333V33.1333H92.3C94.1813 33.1277 95.984 32.3779 97.3142 31.0476C98.6445 29.7173 99.3944 27.9146 99.4 26.0333V7.1C99.3944 5.21869 98.6445 3.41604 97.3142 2.08575C95.984 0.755457 94.1813 0.00561868 92.3 0H7.1C5.21869 0.00561868 3.41604 0.755457 2.08575 2.08575C0.755457 3.41604 0.00561868 5.21869 0 7.1V26.0333C0.00561868 27.9146 0.755457 29.7173 2.08575 31.0476C3.41604 32.3779 5.21869 33.1277 7.1 33.1333H9.46667V37.8667H7.1C5.21869 37.8723 3.41604 38.6221 2.08575 39.9524C0.755457 41.2827 0.00561868 43.0854 0 44.9667V63.9C0.00561868 65.7813 0.755457 67.584 2.08575 68.9142C3.41604 70.2445 5.21869 70.9944 7.1 71H9.46667V75.7333H7.1C5.21869 75.7389 3.41604 76.4888 2.08575 77.8191C0.755457 79.1494 0.00561868 80.952 0 82.8333V101.767C0.00561868 103.648 0.755457 105.451 2.08575 106.781C3.41604 108.111 5.21869 108.861 7.1 108.867H52.0667V127.8C52.0667 137.125 74.692 142 97.0333 142C119.375 142 142 137.125 142 127.8V56.8C142 47.7357 120.676 42.9077 98.974 42.6237V42.6237ZM7.1 28.4C6.47232 28.4 5.87035 28.1507 5.42651 27.7068C4.98268 27.263 4.73333 26.661 4.73333 26.0333V7.1C4.73333 6.47232 4.98268 5.87035 5.42651 5.42651C5.87035 4.98268 6.47232 4.73333 7.1 4.73333H92.3C92.9277 4.73333 93.5296 4.98268 93.9735 5.42651C94.4173 5.87035 94.6667 6.47232 94.6667 7.1V26.0333C94.6667 26.661 94.4173 27.263 93.9735 27.7068C93.5296 28.1507 92.9277 28.4 92.3 28.4H7.1ZM85.2 33.1333V37.8667H75.7333V33.1333H85.2ZM71 33.1333V37.8667H28.4V33.1333H71ZM23.6667 33.1333V37.8667H14.2V33.1333H23.6667ZM52.0667 104.133H7.1C6.47232 104.133 5.87035 103.884 5.42651 103.44C4.98268 102.996 4.73333 102.394 4.73333 101.767V82.8333C4.73333 82.2057 4.98268 81.6037 5.42651 81.1598C5.87035 80.716 6.47232 80.4667 7.1 80.4667H52.0667V104.133ZM14.2 75.7333V71H23.6667V75.7333H14.2ZM52.0667 75.7333H28.4V71H52.0667V75.7333ZM52.0667 56.8V66.2667H7.1C6.47232 66.2667 5.87035 66.0173 5.42651 65.5735C4.98268 65.1296 4.73333 64.5277 4.73333 63.9V44.9667C4.73333 44.339 4.98268 43.737 5.42651 43.2932C5.87035 42.8493 6.47232 42.6 7.1 42.6H92.3C92.4126 42.6123 92.5236 42.6361 92.6313 42.671C71.8047 43.2627 52.0667 48.0907 52.0667 56.8ZM137.267 127.8C137.267 131.019 123.067 137.267 97.0333 137.267C71 137.267 56.8 131.019 56.8 127.8V110.807C64.5863 115.754 80.8453 118.333 97.0333 118.333C113.221 118.333 129.48 115.754 137.267 110.807V127.8ZM137.267 104.133C137.267 107.352 123.067 113.6 97.0333 113.6C71 113.6 56.8 107.352 56.8 104.133V87.1407C64.5863 92.087 80.8453 94.6667 97.0333 94.6667C113.221 94.6667 129.48 92.087 137.267 87.1407V104.133ZM137.267 80.4667C137.267 83.6853 123.067 89.9333 97.0333 89.9333C71 89.9333 56.8 83.6853 56.8 80.4667V63.474C64.5863 68.4203 80.8453 71 97.0333 71C113.221 71 129.48 68.4203 137.267 63.474V80.4667ZM97.0333 66.2667C71 66.2667 56.8 60.0187 56.8 56.8C56.8 53.5813 71 47.3333 97.0333 47.3333C123.067 47.3333 137.267 53.5813 137.267 56.8C137.267 60.0187 123.067 66.2667 97.0333 66.2667Z" fill="white"/>
<path d="M94.666 78.0999H99.3993V82.8332H94.666V78.0999Z" fill="white"/>
<path d="M94.666 104.133H99.3993V108.867H94.666V104.133Z" fill="white"/>
<path d="M94.666 125.433H99.3993V130.167H94.666V125.433Z" fill="white"/>
<path d="M21.3001 47.3333H11.8335C11.2058 47.3333 10.6038 47.5826 10.16 48.0264C9.71614 48.4703 9.4668 49.0722 9.4668 49.6999V59.1666C9.4668 59.7943 9.71614 60.3962 10.16 60.8401C10.6038 61.2839 11.2058 61.5333 11.8335 61.5333H21.3001C21.9278 61.5333 22.5298 61.2839 22.9736 60.8401C23.4175 60.3962 23.6668 59.7943 23.6668 59.1666V49.6999C23.6668 49.0722 23.4175 48.4703 22.9736 48.0264C22.5298 47.5826 21.9278 47.3333 21.3001 47.3333ZM18.9335 56.7999H14.2001V52.0666H18.9335V56.7999Z" fill="white"/>
<path d="M40.2337 47.3333H30.7671C30.1394 47.3333 29.5374 47.5826 29.0936 48.0264C28.6497 48.4703 28.4004 49.0722 28.4004 49.6999V59.1666C28.4004 59.7943 28.6497 60.3962 29.0936 60.8401C29.5374 61.2839 30.1394 61.5333 30.7671 61.5333H40.2337C40.8614 61.5333 41.4634 61.2839 41.9072 60.8401C42.351 60.3962 42.6004 59.7943 42.6004 59.1666V49.6999C42.6004 49.0722 42.351 48.4703 41.9072 48.0264C41.4634 47.5826 40.8614 47.3333 40.2337 47.3333ZM37.8671 56.7999H33.1337V52.0666H37.8671V56.7999Z" fill="white"/>
<path d="M21.3001 9.46667H11.8335C11.2058 9.46667 10.6038 9.71602 10.16 10.1599C9.71614 10.6037 9.4668 11.2057 9.4668 11.8333V21.3C9.4668 21.9277 9.71614 22.5297 10.16 22.9735C10.6038 23.4173 11.2058 23.6667 11.8335 23.6667H21.3001C21.9278 23.6667 22.5298 23.4173 22.9736 22.9735C23.4175 22.5297 23.6668 21.9277 23.6668 21.3V11.8333C23.6668 11.2057 23.4175 10.6037 22.9736 10.1599C22.5298 9.71602 21.9278 9.46667 21.3001 9.46667ZM18.9335 18.9333H14.2001V14.2H18.9335V18.9333Z" fill="white"/>
<path d="M40.2337 9.46667H30.7671C30.1394 9.46667 29.5374 9.71602 29.0936 10.1599C28.6497 10.6037 28.4004 11.2057 28.4004 11.8333V21.3C28.4004 21.9277 28.6497 22.5297 29.0936 22.9735C29.5374 23.4173 30.1394 23.6667 30.7671 23.6667H40.2337C40.8614 23.6667 41.4634 23.4173 41.9072 22.9735C42.351 22.5297 42.6004 21.9277 42.6004 21.3V11.8333C42.6004 11.2057 42.351 10.6037 41.9072 10.1599C41.4634 9.71602 40.8614 9.46667 40.2337 9.46667ZM37.8671 18.9333H33.1337V14.2H37.8671V18.9333Z" fill="white"/>
<path d="M47.334 9.46667H80.4673V14.2H47.334V9.46667Z" fill="white"/>
<path d="M85.1992 9.46667H89.9326V14.2H85.1992V9.46667Z" fill="white"/>
<path d="M47.334 18.9334H80.4673V23.6667H47.334V18.9334Z" fill="white"/>
<path d="M85.1992 18.9334H89.9326V23.6667H85.1992V18.9334Z" fill="white"/>
<path d="M21.3001 85.2001H11.8335C11.2058 85.2001 10.6038 85.4494 10.16 85.8933C9.71614 86.3371 9.4668 86.9391 9.4668 87.5667V97.0334C9.4668 97.6611 9.71614 98.2631 10.16 98.7069C10.6038 99.1507 11.2058 99.4001 11.8335 99.4001H21.3001C21.9278 99.4001 22.5298 99.1507 22.9736 98.7069C23.4175 98.2631 23.6668 97.6611 23.6668 97.0334V87.5667C23.6668 86.9391 23.4175 86.3371 22.9736 85.8933C22.5298 85.4494 21.9278 85.2001 21.3001 85.2001ZM18.9335 94.6667H14.2001V89.9334H18.9335V94.6667Z" fill="white"/>
<path d="M40.2337 85.2001H30.7671C30.1394 85.2001 29.5374 85.4494 29.0936 85.8933C28.6497 86.3371 28.4004 86.9391 28.4004 87.5667V97.0334C28.4004 97.6611 28.6497 98.2631 29.0936 98.7069C29.5374 99.1507 30.1394 99.4001 30.7671 99.4001H40.2337C40.8614 99.4001 41.4634 99.1507 41.9072 98.7069C42.351 98.2631 42.6004 97.6611 42.6004 97.0334V87.5667C42.6004 86.9391 42.351 86.3371 41.9072 85.8933C41.4634 85.4494 40.8614 85.2001 40.2337 85.2001ZM37.8671 94.6667H33.1337V89.9334H37.8671V94.6667Z" fill="white"/>
</svg>
