<svg width="172" height="93" viewBox="0 0 172 93" fill="none" xmlns="http://www.w3.org/2000/svg">
<path d="M147.62 92.8679C144.713 92.87 141.87 92.0099 139.452 90.3962C137.033 88.7826 135.148 86.488 134.034 83.8026C132.92 81.1173 132.627 78.1619 133.193 75.3102C133.759 72.4586 135.158 69.8388 137.213 67.7823C139.268 65.7258 141.887 64.325 144.738 63.7571C147.589 63.1891 150.545 63.4795 153.231 64.5916C155.917 65.7037 158.213 67.5874 159.829 70.0046C161.444 72.4217 162.306 75.2636 162.306 78.1709C162.304 82.0663 160.757 85.8019 158.003 88.5574C155.25 91.3129 151.515 92.8632 147.62 92.8679V92.8679ZM147.62 68.8351C145.773 68.833 143.967 69.3788 142.43 70.4033C140.894 71.4278 139.695 72.8851 138.987 74.5908C138.279 76.2965 138.092 78.174 138.451 79.9856C138.81 81.7973 139.699 83.4618 141.004 84.7685C142.309 86.0752 143.973 86.9654 145.784 87.3265C147.595 87.6876 149.473 87.5033 151.179 86.797C152.886 86.0907 154.344 84.8942 155.371 83.3587C156.397 81.8232 156.945 80.0178 156.945 78.1709C156.944 75.697 155.962 73.3246 154.213 71.5744C152.465 69.8241 150.094 68.8389 147.62 68.8351V68.8351Z" fill="white"/>
<path d="M70.1723 92.8679C67.2649 92.8707 64.4219 92.0112 62.0031 90.398C59.5844 88.7848 57.6984 86.4904 56.5838 83.8051C55.4692 81.1198 55.1761 78.1643 55.7416 75.3124C56.3071 72.4605 57.7057 69.8404 59.7605 67.7836C61.8154 65.7268 64.4341 64.3256 67.2855 63.7573C70.1368 63.1891 73.0926 63.4793 75.779 64.5913C78.4653 65.7032 80.7615 67.587 82.3771 70.0042C83.9927 72.4214 84.855 75.2635 84.855 78.1709C84.8521 82.0654 83.3048 85.7999 80.5522 88.5551C77.7997 91.3103 74.0668 92.8613 70.1723 92.8679V92.8679ZM70.1723 68.8351C68.3252 68.8323 66.5188 69.3774 64.9817 70.4015C63.4446 71.4257 62.2458 72.8827 61.537 74.5883C60.8282 76.294 60.6412 78.1715 60.9999 79.9834C61.3585 81.7953 62.2465 83.4601 63.5515 84.7672C64.8566 86.0743 66.52 86.9648 68.3314 87.3262C70.1427 87.6876 72.0206 87.5035 73.7273 86.7974C75.434 86.0912 76.8929 84.8946 77.9194 83.359C78.9458 81.8235 79.4937 80.0179 79.4937 78.1709C79.4918 75.6979 78.5096 73.3266 76.7623 71.5767C75.015 69.8267 72.6452 68.8408 70.1723 68.8351V68.8351Z" fill="white"/>
<path d="M166.958 80.8515H159.628C158.917 80.8515 158.235 80.5691 157.732 80.0664C157.229 79.5637 156.947 78.8818 156.947 78.1709C156.947 77.46 157.229 76.7781 157.732 76.2754C158.235 75.7727 158.917 75.4903 159.628 75.4903H166.2V61.2758C166.199 59.354 165.707 57.4644 164.771 55.7858L150.26 29.7694C150.136 29.5474 149.955 29.3624 149.735 29.2336C149.516 29.1048 149.266 29.0368 149.012 29.0367H129.236V75.501H135.62C136.331 75.501 137.013 75.7834 137.515 76.2861C138.018 76.7888 138.3 77.4707 138.3 78.1816C138.3 78.8926 138.018 79.5744 137.515 80.0771C137.013 80.5798 136.331 80.8623 135.62 80.8623H126.556C125.845 80.8623 125.163 80.5798 124.66 80.0771C124.157 79.5744 123.875 78.8926 123.875 78.1816V26.356C123.875 25.6451 124.157 24.9633 124.66 24.4606C125.163 23.9578 125.845 23.6754 126.556 23.6754H149.012C150.222 23.6748 151.409 23.9972 152.452 24.6092C153.495 25.2212 154.356 26.1007 154.945 27.1567L169.453 53.1767C170.832 55.6533 171.557 58.4409 171.558 61.2758V76.2516C171.556 77.471 171.071 78.6399 170.209 79.5021C169.346 80.3644 168.178 80.8496 166.958 80.8515V80.8515Z" fill="white"/>
<path d="M58.1658 80.8514H32.4638C31.7529 80.8514 31.0711 80.569 30.5683 80.0663C30.0656 79.5636 29.7832 78.8818 29.7832 78.1708V57.555C29.7832 56.844 30.0656 56.1622 30.5683 55.6595C31.0711 55.1567 31.7529 54.8743 32.4638 54.8743C33.1748 54.8743 33.8566 55.1567 34.3593 55.6595C34.862 56.1622 35.1445 56.844 35.1445 57.555V75.4902H58.1658C58.8767 75.4902 59.5585 75.7726 60.0612 76.2753C60.564 76.778 60.8464 77.4599 60.8464 78.1708C60.8464 78.8818 60.564 79.5636 60.0612 80.0663C59.5585 80.569 58.8767 80.8514 58.1658 80.8514Z" fill="white"/>
<path d="M32.4638 48.0441C31.7529 48.0441 31.0711 47.7617 30.5683 47.259C30.0656 46.7563 29.7832 46.0744 29.7832 45.3635V27.3639C29.7832 26.653 30.0656 25.9711 30.5683 25.4684C31.0711 24.9657 31.7529 24.6833 32.4638 24.6833C33.1748 24.6833 33.8566 24.9657 34.3593 25.4684C34.862 25.9711 35.1445 26.653 35.1445 27.3639V45.3742C35.1416 46.0833 34.858 46.7624 34.3556 47.2628C33.8531 47.7632 33.1729 48.0441 32.4638 48.0441V48.0441Z" fill="white"/>
<path d="M126.554 80.8515H82.1735C81.4626 80.8515 80.7807 80.5691 80.278 80.0663C79.7753 79.5636 79.4929 78.8818 79.4929 78.1709C79.4929 77.4599 79.7753 76.7781 80.278 76.2754C80.7807 75.7726 81.4626 75.4902 82.1735 75.4902H123.873V5.36127H35.1445V16.4019C35.1445 17.1129 34.862 17.7947 34.3593 18.2974C33.8566 18.8001 33.1748 19.0825 32.4638 19.0825C31.7529 19.0825 31.0711 18.8001 30.5683 18.2974C30.0656 17.7947 29.7832 17.1129 29.7832 16.4019V4.86803C29.7851 3.57691 30.2991 2.33927 31.2124 1.42664C32.1257 0.514014 33.3637 0.000945183 34.6548 0H124.367C125.657 0.00189085 126.894 0.515378 127.807 1.4279C128.719 2.34042 129.233 3.57753 129.235 4.86803V78.1709C129.235 78.8818 128.952 79.5636 128.45 80.0663C127.947 80.5691 127.265 80.8515 126.554 80.8515V80.8515Z" fill="white"/>
<path d="M43.0626 60.2356H9.04001C8.32906 60.2356 7.64723 59.9532 7.14451 59.4505C6.6418 58.9477 6.35938 58.2659 6.35938 57.555C6.35938 56.844 6.6418 56.1622 7.14451 55.6595C7.64723 55.1567 8.32906 54.8743 9.04001 54.8743H43.0626C43.7736 54.8743 44.4554 55.1567 44.9581 55.6595C45.4608 56.1622 45.7432 56.844 45.7432 57.555C45.7432 58.2659 45.4608 58.9477 44.9581 59.4505C44.4554 59.9532 43.7736 60.2356 43.0626 60.2356V60.2356Z" fill="white"/>
<path d="M70.1721 48.0441H22.6963C21.9853 48.0441 21.3035 47.7617 20.8008 47.259C20.298 46.7563 20.0156 46.0744 20.0156 45.3635C20.0156 44.6525 20.298 43.9707 20.8008 43.468C21.3035 42.9653 21.9853 42.6829 22.6963 42.6829H70.1721C70.883 42.6829 71.5648 42.9653 72.0676 43.468C72.5703 43.9707 72.8527 44.6525 72.8527 45.3635C72.8527 46.0744 72.5703 46.7563 72.0676 47.259C71.5648 47.7617 70.883 48.0441 70.1721 48.0441V48.0441Z" fill="white"/>
<path d="M21.2199 33.8904H2.68063C1.96969 33.8904 1.28786 33.608 0.785139 33.1052C0.282423 32.6025 0 31.9207 0 31.2097C0 30.4988 0.282423 29.817 0.785139 29.3143C1.28786 28.8115 1.96969 28.5291 2.68063 28.5291H21.2199C21.9308 28.5291 22.6127 28.8115 23.1154 29.3143C23.6181 29.817 23.9005 30.4988 23.9005 31.2097C23.9005 31.9207 23.6181 32.6025 23.1154 33.1052C22.6127 33.608 21.9308 33.8904 21.2199 33.8904Z" fill="white"/>
<path d="M50.9468 19.0826H18.2216C17.5107 19.0826 16.8289 18.8002 16.3262 18.2974C15.8234 17.7947 15.541 17.1129 15.541 16.4019C15.541 15.691 15.8234 15.0092 16.3262 14.5065C16.8289 14.0037 17.5107 13.7213 18.2216 13.7213H50.9468C51.6578 13.7213 52.3396 14.0037 52.8423 14.5065C53.345 15.0092 53.6275 15.691 53.6275 16.4019C53.6275 17.1129 53.345 17.7947 52.8423 18.2974C52.3396 18.8002 51.6578 19.0826 50.9468 19.0826Z" fill="white"/>
</svg>
