<svg width="51" height="38" viewBox="0 0 51 38" fill="none" xmlns="http://www.w3.org/2000/svg">
<path d="M5.75712 33.7289H3.28938C3.07122 33.7289 2.86199 33.8155 2.70773 33.9698C2.55346 34.1241 2.4668 34.3333 2.4668 34.5515C2.4668 34.7696 2.55346 34.9789 2.70773 35.1331C2.86199 35.2874 3.07122 35.374 3.28938 35.374H5.75712C5.97528 35.374 6.18451 35.2874 6.33877 35.1331C6.49304 34.9789 6.5797 34.7696 6.5797 34.5515C6.5797 34.3333 6.49304 34.1241 6.33877 33.9698C6.18451 33.8155 5.97528 33.7289 5.75712 33.7289V33.7289Z" fill="#933E00"/>
<path d="M9.04751 33.7289H8.22492C8.00676 33.7289 7.79754 33.8155 7.64327 33.9698C7.48901 34.1241 7.40234 34.3333 7.40234 34.5515C7.40234 34.7696 7.48901 34.9789 7.64327 35.1331C7.79754 35.2874 8.00676 35.374 8.22492 35.374H9.04751C9.26567 35.374 9.47489 35.2874 9.62916 35.1331C9.78342 34.9789 9.87009 34.7696 9.87009 34.5515C9.87009 34.3333 9.78342 34.1241 9.62916 33.9698C9.47489 33.8155 9.26567 33.7289 9.04751 33.7289Z" fill="#933E00"/>
<path d="M47.7097 9.87402H46.0645V3.29337C46.0634 2.42108 45.7163 1.58483 45.0995 0.968027C44.4827 0.351219 43.6465 0.0041944 42.7742 0.00305176H8.22581C7.35346 0.0040315 6.51712 0.351004 5.90028 0.967847C5.28344 1.58469 4.93646 2.42103 4.93548 3.29337V18.0998H3.29032C2.41798 18.1008 1.58164 18.4478 0.964795 19.0646C0.347952 19.6815 0.000979738 20.5178 0 21.3901V34.5514C0.000979738 35.4238 0.347952 36.2601 0.964795 36.877C1.58164 37.4938 2.41798 37.8408 3.29032 37.8418H11.5161C12.3884 37.8406 13.2247 37.4936 13.8415 36.8768C14.4583 36.26 14.8053 35.4237 14.8065 34.5514V32.0837H21.9783L21.567 33.7289H18.9194C18.7012 33.7289 18.492 33.8155 18.3377 33.9698C18.1834 34.1241 18.0968 34.3333 18.0968 34.5514V37.0192C18.0968 37.2373 18.1834 37.4466 18.3377 37.6008C18.492 37.7551 18.7012 37.8418 18.9194 37.8418H47.7097C48.582 37.8406 49.4182 37.4936 50.035 36.8768C50.6518 36.26 50.9989 35.4237 51 34.5514V13.1643C50.9989 12.292 50.6518 11.4558 50.035 10.839C49.4182 10.2222 48.582 9.87516 47.7097 9.87402ZM13.1613 34.5514C13.1607 34.9876 12.9872 35.4057 12.6788 35.7141C12.3704 36.0225 11.9523 36.196 11.5161 36.1966H3.29032C2.85417 36.196 2.43605 36.0225 2.12765 35.7141C1.81925 35.4057 1.64573 34.9876 1.64516 34.5514V21.3901C1.64573 20.954 1.81925 20.5359 2.12765 20.2275C2.43605 19.9191 2.85417 19.7456 3.29032 19.745H4.3422L4.97764 21.6503C5.03224 21.8141 5.137 21.9565 5.27706 22.0575C5.41713 22.1584 5.58541 22.2127 5.75806 22.2127H9.04839C9.22104 22.2127 9.38932 22.1584 9.52939 22.0575C9.66945 21.9565 9.77421 21.8141 9.82881 21.6503L10.4643 19.745H11.5161C11.9523 19.7456 12.3704 19.9191 12.6788 20.2275C12.9872 20.5359 13.1607 20.954 13.1613 21.3901V34.5514ZM6.07681 19.745H8.72964L8.4551 20.5676H6.35135L6.07681 19.745ZM14.8065 30.4385V27.9708H29.6129V30.4385H14.8065ZM29.6129 32.0837V33.7289H29.433L29.0217 32.0837H29.6129ZM27.7364 33.7289H23.2636L23.6749 32.0837H27.3251L27.7364 33.7289ZM19.7419 36.1966V35.374H29.7168C29.7921 35.6623 29.9062 35.9391 30.0561 36.1966H19.7419ZM29.6129 13.1643V26.3256H14.8065V21.3901C14.8053 20.5179 14.4583 19.6816 13.8415 19.0648C13.2247 18.448 12.3884 18.101 11.5161 18.0998H6.58065V3.29337C6.58122 2.85723 6.75473 2.4391 7.06313 2.1307C7.37154 1.8223 7.78966 1.64878 8.22581 1.64821H42.7742C43.2103 1.64878 43.6285 1.8223 43.9369 2.1307C44.2453 2.4391 44.4188 2.85723 44.4194 3.29337V9.87402H32.9032C32.0309 9.87516 31.1947 10.2222 30.5779 10.839C29.9611 11.4558 29.614 12.292 29.6129 13.1643ZM49.3548 34.5514C49.3543 34.9876 49.1808 35.4057 48.8724 35.7141C48.5639 36.0225 48.1458 36.196 47.7097 36.1966H32.9032C32.4671 36.196 32.049 36.0225 31.7406 35.7141C31.4321 35.4057 31.2586 34.9876 31.2581 34.5514V13.1643C31.2586 12.7282 31.4321 12.3101 31.7406 12.0017C32.049 11.6933 32.4671 11.5198 32.9032 11.5192H47.7097C48.1458 11.5198 48.5639 11.6933 48.8724 12.0017C49.1808 12.3101 49.3543 12.7282 49.3548 13.1643V34.5514Z" fill="#933E00"/>
<path d="M47.7091 12.3418H32.9027C32.6845 12.3418 32.4753 12.4285 32.321 12.5827C32.1667 12.737 32.0801 12.9462 32.0801 13.1644V32.0837C32.0801 32.3019 32.1667 32.5111 32.321 32.6654C32.4753 32.8196 32.6845 32.9063 32.9027 32.9063H47.7091C47.9273 32.9063 48.1365 32.8196 48.2908 32.6654C48.445 32.5111 48.5317 32.3019 48.5317 32.0837V13.1644C48.5317 12.9462 48.445 12.737 48.2908 12.5827C48.1365 12.4285 47.9273 12.3418 47.7091 12.3418ZM46.8865 31.2612H33.7252V13.987H46.8865V31.2612Z" fill="#933E00"/>
<path d="M39.4847 35.374C39.939 35.374 40.3073 35.0058 40.3073 34.5515C40.3073 34.0972 39.939 33.7289 39.4847 33.7289C39.0304 33.7289 38.6621 34.0972 38.6621 34.5515C38.6621 35.0058 39.0304 35.374 39.4847 35.374Z" fill="#933E00"/>
</svg>
