<svg width="51" height="51" viewBox="0 0 51 51" fill="none" xmlns="http://www.w3.org/2000/svg">
<path d="M6.85025 43.1537C6.3001 43.1537 5.85415 43.5996 5.85415 44.1498C5.85415 44.6999 6.3001 45.1459 6.85025 45.1459C7.40039 45.1459 7.84634 44.6999 7.84634 44.1498C7.84634 43.5996 7.40039 43.1537 6.85025 43.1537ZM16.1367 32.6719C22.9474 32.6719 28.4883 27.131 28.4883 20.3203C28.4883 14.1246 23.861 8.85816 17.7249 8.06995C17.3148 8.01726 16.9413 8.30653 16.8887 8.71572C16.8361 9.12492 17.1253 9.49935 17.5344 9.55194C22.9274 10.2446 26.9942 14.8741 26.9942 20.3203C26.9942 26.3071 22.1236 31.1777 16.1367 31.1777C10.1499 31.1777 5.27931 26.3071 5.27931 20.3203C5.27931 15.0336 9.05231 10.536 14.2508 9.62595C14.6572 9.55483 14.9291 9.16765 14.8578 8.76124C14.7866 8.35484 14.3995 8.0829 13.9931 8.15422C8.07823 9.18966 3.78516 14.3063 3.78516 20.3203C3.78516 27.131 9.32604 32.6719 16.1367 32.6719ZM14.5604 12.7877L10.6422 20.9838C10.4601 21.3646 10.4859 21.8052 10.7111 22.1623C10.9362 22.5191 11.3223 22.732 11.7442 22.732H11.7451L15.3897 22.7294V27.3262C15.3897 27.9006 15.7808 28.3904 16.3409 28.5174C16.8883 28.6415 17.4644 28.3756 17.7129 27.8531L21.6315 19.6564C21.8135 19.2757 21.7878 18.8353 21.5628 18.4783C21.3377 18.1214 20.9514 17.9083 20.5295 17.9083H16.8837V13.3146C16.8837 12.7402 16.4925 12.2505 15.9324 12.1235C15.3722 11.9964 14.8081 12.2695 14.5604 12.7877ZM16.611 19.4023H20.0968L16.8837 26.1234V22.4564C16.8837 22.13 16.7566 21.8232 16.5257 21.5925C16.295 21.362 15.9884 21.2351 15.6624 21.2351H15.6615L12.177 21.2376L15.3896 14.5176V18.181C15.3896 18.8544 15.9374 19.4023 16.611 19.4023V19.4023ZM44.1499 40.2879C42.0203 40.2879 40.2879 42.0204 40.2879 44.1499C40.2879 46.2793 42.0204 48.0118 44.1499 48.0118C46.2793 48.0117 48.0117 46.2793 48.0117 44.1498C48.0117 42.0203 46.2793 40.2879 44.1499 40.2879V40.2879ZM44.1499 46.5176C42.8443 46.5176 41.7821 45.4553 41.7821 44.1498C41.7821 42.8442 42.8443 41.7819 44.1499 41.7819C45.4555 41.7819 46.5176 42.8442 46.5176 44.1498C46.5176 45.4554 45.4555 46.5176 44.1499 46.5176ZM46.9681 37.9086L45.3778 31.6317C46.612 28.2527 47.1949 25.3507 47.107 23.0059C47.0333 21.0411 46.4885 19.4064 45.4879 18.1472C43.9975 16.2714 41.8396 15.6022 39.7024 15.1406L36.3257 2.41354C36.0659 1.43238 35.1749 0.74707 34.1591 0.74707H29.7226C29.197 0.282691 28.5073 0 27.7525 0H23.0706C21.4279 0 20.0914 1.33646 20.0914 2.97922C20.0914 4.62197 21.4279 5.95843 23.0706 5.95843H26.4109C26.7661 8.42426 27.6472 10.5012 29.0377 12.1372C30.8882 14.3144 33.2587 15.2119 35.2185 15.7207L37.586 24.6435C37.2653 24.7655 36.9955 24.9882 36.8155 25.2869C36.6015 25.6423 36.5395 26.0597 36.6413 26.4625L38.4638 33.6561H36.7389C35.6609 33.6561 34.6796 34.2916 34.2393 35.2751L31.8753 40.5501H17.067C16.365 38.5693 15.0764 36.7978 13.3922 35.5183C11.4952 34.0772 9.233 33.3155 6.85015 33.3155C4.45962 33.3155 2.19251 34.0814 0.293856 35.5306C-0.0340579 35.7809 -0.0971107 36.2497 0.153208 36.5777C0.403526 36.9057 0.872288 36.9686 1.2003 36.7183C2.83639 35.4696 4.79002 34.8096 6.85015 34.8096C10.6189 34.8096 14.0274 37.1256 15.4662 40.5501H12.6749C11.4659 38.601 9.30761 37.2997 6.85015 37.2997C3.07306 37.2996 8.47994e-06 40.3726 8.47994e-06 44.1498C8.47994e-06 47.927 3.07306 51 6.85025 51C9.30761 51 11.4658 49.6988 12.6748 47.7497H26.4134C26.8261 47.7497 27.1605 47.4153 27.1605 47.0027C27.1605 46.5901 26.8261 46.2556 26.4134 46.2556H13.3679C13.5829 45.5917 13.7005 44.8843 13.7005 44.1498C13.7005 43.4152 13.5829 42.7079 13.368 42.0441H37.6321C37.4172 42.708 37.2996 43.4152 37.2996 44.1498C37.2996 44.8844 37.4172 45.5917 37.6322 46.2556H29.8998C29.4871 46.2556 29.1527 46.5901 29.1527 47.0027C29.1527 47.4153 29.4871 47.7497 29.8998 47.7497H38.3251C39.5342 49.6988 41.6925 51 44.1499 51C47.9271 51 51 47.9271 51 44.1498C51 41.3769 49.343 38.9854 46.9681 37.9086ZM6.85025 49.5059C3.89693 49.5059 1.49415 47.1032 1.49415 44.1498C1.49415 41.1964 3.89693 38.7937 6.85025 38.7937C9.80356 38.7937 12.2063 41.1964 12.2063 44.1498C12.2063 47.1032 9.80356 49.5059 6.85025 49.5059ZM44.318 19.0768C45.9176 21.0898 46.0422 24.4039 44.6969 28.9448L43.6289 24.7297C43.4363 23.9696 42.7016 23.4825 41.9408 23.5776L40.1358 16.7745C41.7455 17.1754 43.2862 17.7782 44.318 19.0768ZM23.0707 4.46429C22.2518 4.46429 21.5857 3.79811 21.5857 2.97922C21.5857 2.16033 22.2518 1.49414 23.0707 1.49414H27.7526C28.5715 1.49414 29.2377 2.16033 29.2377 2.97922C29.2377 3.79811 28.5715 4.46429 27.7526 4.46429H23.0707ZM30.1763 11.1695C29.0097 9.79708 28.2534 8.04455 27.9208 5.95305C28.5998 5.915 29.2184 5.64855 29.7017 5.22939H32.435L34.7733 14.0423C33.1832 13.5497 31.5231 12.7542 30.1763 11.1695V11.1695ZM36.5504 14.9142C36.5497 14.9116 36.5491 14.9091 36.5484 14.9065L33.7316 4.29087C33.6448 3.96336 33.3483 3.73535 33.0096 3.73535H30.6343C30.6977 3.4938 30.7318 3.24039 30.7318 2.97922C30.7318 2.72452 30.6995 2.47729 30.6392 2.24121H34.1591C34.4977 2.24121 34.7948 2.46932 34.8813 2.79633L40.4862 23.9213L39.0342 24.2758L36.5504 14.9142ZM38.0898 26.0959C38.0885 26.0909 38.0847 26.0756 38.0953 26.058C38.1058 26.0406 38.1203 26.0371 38.1265 26.0356L42.1208 25.0604C42.1468 25.054 42.1739 25.0705 42.1807 25.0969L45.2973 37.3976C44.9239 37.3344 44.541 37.2997 44.15 37.2997C43.0583 37.2997 42.0261 37.5577 41.1092 38.0139L38.0898 26.0959ZM38.325 40.55H33.5126L35.6029 35.8858C35.8031 35.4389 36.249 35.1502 36.7389 35.1502H38.8422L39.7856 38.8739C39.2127 39.3486 38.7189 39.9151 38.325 40.55ZM44.1499 49.5059C41.1966 49.5059 38.7938 47.1031 38.7938 44.1498C38.7938 41.1964 41.1966 38.7937 44.1499 38.7937C47.1032 38.7937 49.5059 41.1964 49.5059 44.1498C49.5059 47.1032 47.1032 49.5059 44.1499 49.5059ZM44.1498 43.1537C43.5996 43.1537 43.1537 43.5996 43.1537 44.1498C43.1537 44.6999 43.5996 45.1459 44.1498 45.1459C44.6999 45.1459 45.1459 44.6999 45.1459 44.1498C45.1459 43.5996 44.6999 43.1537 44.1498 43.1537ZM6.85035 40.2879C4.7208 40.2879 2.98829 42.0203 2.98829 44.1498C2.98829 46.2793 4.7208 48.0117 6.85035 48.0117C8.97979 48.0117 10.7123 46.2792 10.7123 44.1498C10.7122 42.0203 8.97979 40.2879 6.85035 40.2879ZM6.85035 46.5176C5.54467 46.5176 4.48243 45.4554 4.48243 44.1498C4.48243 42.8442 5.54467 41.7819 6.85025 41.7819C8.15583 41.7819 9.21806 42.8442 9.21806 44.1498C9.21806 45.4554 8.15593 46.5176 6.85035 46.5176Z" fill="#933E00"/>
</svg>
