<svg width="52" height="52" viewBox="0 0 52 52" fill="none" xmlns="http://www.w3.org/2000/svg">
<path d="M11.2442 40.5177C10.4409 39.7144 9.37279 39.272 8.23684 39.272C7.56577 39.272 6.9189 39.4276 6.33577 39.7195C0.605539 31.601 0.585662 20.4759 6.38425 12.3378C6.70588 11.8863 6.60068 11.2595 6.14915 10.9377C5.69762 10.616 5.07083 10.7212 4.74909 11.1727C1.55055 15.6618 -0.0903242 20.9629 0.0038361 26.5028C0.0934791 31.7749 1.74881 36.776 4.79858 41.0216C3.58675 42.6839 3.7302 45.0331 5.22943 46.5326C6.05861 47.3616 7.14767 47.7762 8.23684 47.7762C9.32601 47.7762 10.4151 47.3616 11.2442 46.5326C12.9025 44.8742 12.9025 42.1761 11.2442 40.5177ZM9.82452 45.1128C8.94887 45.9883 7.52452 45.9883 6.64907 45.1128C5.77351 44.2373 5.77351 42.8127 6.64907 41.9373C7.07319 41.5131 7.63705 41.2796 8.23674 41.2796C8.83644 41.2796 9.40039 41.5131 9.82442 41.9373C10.7001 42.8128 10.7001 44.2374 9.82452 45.1128Z" fill="#933E00"/>
<path d="M40.9534 45.512C40.6291 45.0627 40.0017 44.9615 39.5521 45.2862C36.6823 47.3598 33.4562 48.7336 29.9635 49.3693C29.1542 49.5167 28.3288 49.2998 27.6991 48.7744C27.0739 48.2528 26.7154 47.4864 26.7154 46.672V39.3141H26.8031C27.9654 39.3141 28.9111 38.3684 28.9111 37.206V35.5112C32.3114 34.2132 34.7334 30.918 34.7334 27.0673V22.3146C36.3512 21.8727 37.5442 20.3909 37.5442 18.635C37.5442 16.7019 36.0983 15.1011 34.2315 14.8545V8.59661C34.2315 6.93605 32.8805 5.58508 31.22 5.58508C29.5594 5.58508 28.2084 6.93605 28.2084 8.59661V14.8204H23.1892V8.59661C23.1892 6.93605 21.8383 5.58508 20.1777 5.58508C18.5172 5.58508 17.1662 6.93605 17.1662 8.59661V14.8545C15.2993 15.1011 13.8535 16.7018 13.8535 18.635C13.8535 20.3909 15.0465 21.8727 16.6643 22.3146V27.0673C16.6643 30.918 19.0862 34.2132 22.4866 35.5112V37.2061C22.4866 38.3685 23.4323 39.3142 24.5946 39.3142H24.7078V46.6721C24.7078 48.0837 25.3292 49.4118 26.4128 50.316C27.2776 51.0375 28.3553 51.4225 29.4623 51.4225C29.7483 51.4225 30.0362 51.3968 30.3229 51.3446C34.1126 50.6547 37.6133 49.1639 40.7277 46.9135C41.1771 46.5888 41.2781 45.9613 40.9534 45.512ZM30.2162 8.59661C30.2162 8.04309 30.6666 7.59277 31.2201 7.59277C31.7736 7.59277 32.2239 8.04309 32.2239 8.59661V14.8204H30.2162V8.59661ZM19.174 8.59661C19.174 8.04309 19.6243 7.59277 20.1778 7.59277C20.7313 7.59277 21.1817 8.04309 21.1817 8.59661V14.8204H19.174V8.59661ZM15.8613 18.635C15.8613 17.6387 16.6719 16.8281 17.6682 16.8281H33.7297C34.726 16.8281 35.5366 17.6387 35.5366 18.635C35.5366 19.6313 34.726 20.4419 33.7297 20.4419H17.6682C16.6719 20.4419 15.8613 19.6313 15.8613 18.635ZM18.6721 27.0673V22.4496H32.7258V27.0673C32.7258 30.9419 29.5736 34.0942 25.6989 34.0942C21.8243 34.0942 18.6721 30.9419 18.6721 27.0673ZM25.737 37.3065C25.7286 37.3063 25.7202 37.3052 25.7118 37.3052C25.7034 37.3052 25.695 37.3063 25.6866 37.3065H24.5949C24.5393 37.3065 24.4943 37.2614 24.4943 37.2061V36.0214C24.8885 36.0742 25.2906 36.1019 25.6989 36.1019C26.1073 36.1019 26.5093 36.0742 26.9036 36.0214V37.2061C26.9036 37.2614 26.8586 37.3065 26.8032 37.3065H25.737Z" fill="#933E00"/>
<path d="M43.8452 42.7912C43.4474 42.4198 42.8275 42.4341 42.4471 42.8187C42.4394 42.8265 42.4316 42.8346 42.4243 42.8423C42.046 43.2476 42.0679 43.8828 42.4732 44.2611C42.6667 44.4417 42.9126 44.5311 43.1579 44.5311C43.4172 44.5311 43.6759 44.4312 43.8713 44.2336C43.8791 44.2258 43.8868 44.2178 43.8941 44.21C44.2725 43.8047 44.2505 43.1695 43.8452 42.7912Z" fill="#933E00"/>
<path d="M51.3289 24.1871C50.8817 18.0417 48.2329 12.2548 43.8707 7.8924C39.5831 3.60449 33.8556 0.979844 27.7433 0.502116C21.7055 0.0300095 15.6964 1.66848 10.8209 5.11527C10.3682 5.43529 10.2607 6.06179 10.5807 6.51442C10.9006 6.96706 11.5272 7.07477 11.9799 6.75464C21.3028 0.163722 34.4026 1.26303 42.4511 9.31203C50.7686 17.63 51.7744 30.5469 44.8423 40.0256C44.5151 40.4731 44.6125 41.1011 45.0601 41.4284C45.2387 41.5591 45.4462 41.6221 45.6519 41.6221C45.9612 41.6221 46.2664 41.4796 46.463 41.2107C50.0435 36.3146 51.7717 30.2688 51.3289 24.1871Z" fill="#933E00"/>
<path d="M8.8246 8.00841C8.43079 7.61822 7.79516 7.62083 7.40487 8.01474L7.3885 8.0314C6.99821 8.42511 7.00112 9.06074 7.39483 9.45104C7.59058 9.64498 7.84606 9.74185 8.10153 9.74185C8.35982 9.74185 8.61821 9.64267 8.81456 9.44471L8.83092 9.42805C9.22122 9.03434 9.21831 8.39871 8.8246 8.00841Z" fill="#933E00"/>
<path d="M27.9624 26.6956C27.7825 26.387 27.4522 26.1973 27.0951 26.1973H26.3777L27.699 24.5283C28.0431 24.0936 27.9696 23.4622 27.535 23.1182C27.1003 22.774 26.4689 22.8476 26.1248 23.2821L23.5156 26.5781C23.2767 26.8799 23.2314 27.2918 23.399 27.6383C23.5667 27.9848 23.9177 28.205 24.3027 28.205H25.3728L24.1435 30.3755C23.8702 30.8579 24.0399 31.4705 24.5221 31.7436C24.6785 31.8322 24.8483 31.8742 25.016 31.8742C25.3661 31.8741 25.7059 31.6909 25.8906 31.3649L27.9686 27.6958C28.1447 27.385 28.1423 27.0042 27.9624 26.6956Z" fill="#933E00"/>
</svg>
