<svg width="246" height="120" viewBox="0 0 246 120" fill="none" xmlns="http://www.w3.org/2000/svg">
<g clip-path="url(#clip0_104_1285)">
<path d="M14.8533 19.4894C14.8533 20.47 14.7305 21.2054 14.3623 21.9409C13.994 22.5537 13.6258 23.1666 13.012 23.6569C12.521 24.1472 11.9072 24.5149 11.1707 24.7601C10.5569 25.0052 9.82036 25.1278 9.08383 25.2504V26.9664H5.76946V25.2504C4.78743 25.1278 3.80539 24.8826 3.06886 24.5149C2.33234 24.1472 1.71856 23.6569 1.22755 23.1666C0.736527 22.6763 0.491018 21.9409 0.245509 21.2054C0 20.47 0 19.7345 0 18.8765V11.7672C0 10.9092 0.122754 10.0512 0.491018 9.31573C0.859282 8.58028 1.22755 8.08999 1.84132 7.59969C2.33234 7.10939 2.94611 6.74167 3.68264 6.49652C4.29641 6.25138 5.03293 6.1288 5.76946 6.1288V5.02563H9.20659V6.1288C9.94311 6.1288 10.5569 6.37395 11.2934 6.6191C11.9072 6.86425 12.521 7.23197 13.1347 7.72226C13.6257 8.21256 14.1168 8.82543 14.485 9.4383C14.8533 10.1737 14.976 10.9092 14.976 11.8898V19.4894H14.8533ZM5.76946 8.82543C4.91018 8.948 4.41916 9.19315 3.92814 9.68345C3.43713 10.0512 3.19162 10.664 3.19162 11.5221V19.8571C3.19162 20.2248 3.31437 20.5925 3.43713 20.9603C3.55988 21.2054 3.80539 21.5731 4.0509 21.6957C4.29641 21.9409 4.54192 22.0634 4.78743 22.186C5.03293 22.3086 5.4012 22.3086 5.64671 22.4311V8.82543H5.76946ZM11.6617 11.5221C11.6617 10.664 11.4162 10.0512 10.9252 9.68345C10.4341 9.19315 9.94311 8.948 9.20659 8.82543V22.3086C9.4521 22.3086 9.82036 22.186 10.0659 22.0634C10.3114 21.9409 10.6796 21.8183 10.9252 21.5731C11.0479 21.4506 11.2934 21.2054 11.4162 20.8377C11.5389 20.5925 11.6617 20.2248 11.6617 19.8571V11.5221Z" fill="white"/>
<path d="M31.7939 21.328C31.7939 23.2892 31.3029 24.6375 30.4436 25.6181C29.5843 26.5987 28.234 27.089 26.3927 27.089C24.5514 27.089 23.2011 26.5987 22.3418 25.7407C21.4825 24.7601 21.1143 23.4118 21.1143 21.6957V10.6641C21.1143 9.80604 21.237 9.07059 21.3598 8.33515C21.6053 7.59971 21.8508 6.98684 22.3418 6.49654C22.7101 6.00624 23.3238 5.63852 24.0604 5.2708C24.7969 5.02565 25.5334 4.90308 26.5155 4.90308C27.4975 4.90308 28.3568 5.02565 29.0933 5.2708C29.8298 5.51595 30.3208 5.88367 30.6891 6.37396C31.0574 6.86426 31.4256 7.47713 31.5484 8.21258C31.6711 8.94802 31.7939 9.68346 31.7939 10.6641V21.328V21.328ZM28.3568 10.2963C28.3568 9.68346 28.234 9.19317 27.9885 8.70287C27.743 8.21258 27.252 7.96743 26.5155 7.96743C26.1472 7.96743 25.7789 8.09 25.5334 8.21258C25.2879 8.33515 25.0424 8.5803 24.9196 8.82545C24.6741 9.19317 24.6741 9.43832 24.5514 9.80604C24.5514 10.1738 24.4286 10.4189 24.4286 10.6641V21.6957C24.4286 22.3086 24.5514 22.7989 24.9196 23.1666C25.1652 23.6569 25.6562 23.9021 26.3927 23.9021C27.1292 23.9021 27.6202 23.6569 27.8658 23.1666C28.1113 22.6763 28.3568 22.0634 28.3568 21.4506V10.2963V10.2963Z" fill="white"/>
<path d="M45.6651 26.9664V17.4056H41.7369V26.9664H38.2998V5.02563H41.7369V14.2187H45.6651V5.02563H49.1022V26.9664H45.6651Z" fill="white"/>
<path d="M57.2039 26.9664V31.1339H54.2578V24.1472L55.6081 23.902C56.2219 23.2892 56.5901 22.5537 56.8357 21.6957C57.0812 20.8377 57.2039 19.7345 57.2039 18.3862L57.5722 5.02563H67.5153V23.902H68.8656V31.1339H65.9195V26.9664H57.2039ZM60.2728 18.2636C60.2728 19.4894 60.15 20.5925 60.0273 21.5731C59.9045 22.4312 59.659 23.2892 59.2907 23.902H64.0782V8.21256H60.5183L60.2728 18.2636Z" fill="white"/>
<path d="M89.6105 4.78027C90.4698 4.78027 91.329 4.90285 91.9428 5.148C92.5566 5.39314 93.1704 5.76087 93.5386 6.25116C94.0296 6.74146 94.2751 7.23175 94.5207 7.84462C94.7662 8.4575 94.7662 9.19294 94.7662 9.92838L91.4518 10.7864C91.4518 9.92838 91.329 9.31551 90.9608 8.82522C90.7153 8.33492 90.2243 8.08977 89.4877 8.08977C89.1195 8.08977 88.7512 8.21235 88.5057 8.33492C88.3829 8.4575 88.1374 8.58007 88.0147 8.82522C87.8919 9.07037 87.7692 9.31551 87.7692 9.68324C87.7692 9.92838 87.6464 10.2961 87.6464 10.5413V21.6955C87.6464 21.9406 87.6464 22.1858 87.7692 22.4309C87.7692 22.6761 87.8919 22.9212 88.0147 23.1664C88.1374 23.4115 88.3829 23.5341 88.6284 23.7793C88.8739 23.9018 89.1195 24.0244 89.6105 24.0244C90.838 24.0244 91.5745 23.1664 91.5745 21.3278C92.1883 21.4503 92.6793 21.5729 93.2931 21.5729C93.9069 21.6955 94.3979 21.6955 95.0117 21.8181C95.0117 23.5341 94.5207 24.7598 93.6614 25.7404C92.8021 26.721 91.4518 27.2113 89.7332 27.2113C87.8919 27.2113 86.5416 26.721 85.6823 25.863C84.8231 25.005 84.332 23.6567 84.332 21.8181V10.7864C84.332 9.92838 84.4548 9.19294 84.5775 8.4575C84.7003 7.72205 85.0686 7.10918 85.4368 6.49631C85.8051 6.00601 86.4189 5.51572 87.1554 5.148C87.7692 4.90285 88.6284 4.78027 89.6105 4.78027Z" fill="white"/>
<path d="M111.216 21.328C111.216 23.2892 110.725 24.6375 109.865 25.6181C109.006 26.5987 107.656 27.089 105.815 27.089C103.973 27.089 102.623 26.5987 101.764 25.7407C100.904 24.7601 100.536 23.4118 100.536 21.6957V10.6641C100.536 9.80604 100.659 9.07059 100.782 8.33515C101.027 7.59971 101.273 6.98684 101.764 6.49654C102.132 6.00624 102.746 5.63852 103.482 5.2708C104.219 5.02565 104.955 4.90308 105.937 4.90308C106.919 4.90308 107.779 5.02565 108.515 5.2708C109.252 5.51595 109.743 5.88367 110.111 6.37396C110.479 6.86426 110.848 7.47713 110.97 8.21258C111.093 8.94802 111.216 9.68346 111.216 10.6641V21.328V21.328ZM107.779 10.2963C107.779 9.68346 107.656 9.19317 107.41 8.70287C107.165 8.21258 106.674 7.96743 105.937 7.96743C105.569 7.96743 105.201 8.09 104.955 8.21258C104.71 8.33515 104.464 8.5803 104.342 8.82545C104.219 9.07059 104.096 9.43832 104.096 9.68346C104.096 10.0512 103.973 10.2963 103.973 10.5415V21.5731C103.973 22.186 104.096 22.6763 104.464 23.044C104.71 23.5343 105.201 23.7795 105.937 23.7795C106.674 23.7795 107.165 23.5343 107.41 23.044C107.656 22.5537 107.901 21.9409 107.901 21.328V10.2963H107.779Z" fill="white"/>
<path d="M119.194 26.9664V31.1339H116.248V24.1472L117.598 23.902C118.212 23.2892 118.58 22.5537 118.826 21.6957C119.071 20.8377 119.194 19.7345 119.194 18.3862L119.562 5.02563H129.506V23.902H130.856V31.1339H127.91V26.9664H119.194ZM122.263 18.2636C122.263 19.4894 122.14 20.5925 122.018 21.5731C121.895 22.4312 121.649 23.2892 121.281 23.902H126.068V8.21256H122.509L122.263 18.2636Z" fill="white"/>
<path d="M136.503 26.9664V5.02563H146.323V8.21256H139.94V14.2187H145.464V17.4056H139.94V23.7795H146.323V26.9664H136.503Z" fill="white"/>
<path d="M159.704 13.1154L155.162 26.9663H151.848V5.02554H155.162V18.8764H155.285L159.949 5.02554H163.264V26.9663H159.949L159.704 13.1154ZM155.653 0C155.653 0.245148 155.776 0.490296 155.899 0.735444C156.021 0.980592 156.144 1.22574 156.39 1.47089C156.512 1.71604 156.758 1.83861 157.003 1.96118C157.249 2.08376 157.494 2.20633 157.74 2.20633C158.108 2.20633 158.354 2.08376 158.599 1.96118C158.845 1.83861 159.09 1.59346 159.213 1.47089C159.336 1.22574 159.458 0.980592 159.581 0.735444C159.704 0.490296 159.704 0.245148 159.704 0H162.282C162.282 0.490296 162.159 0.980592 161.914 1.47089C161.668 1.96118 161.423 2.45148 161.054 2.94178C160.686 3.43207 160.195 3.67722 159.704 4.04494C159.213 4.29009 158.476 4.41267 157.74 4.41267C156.881 4.41267 156.267 4.29009 155.653 4.04494C155.039 3.7998 154.671 3.43207 154.303 2.94178C153.934 2.45148 153.689 2.08376 153.566 1.47089C153.443 0.980592 153.321 0.490296 153.321 0H155.653V0Z" fill="white"/>
<path d="M174.926 4.78027C175.785 4.78027 176.644 4.90285 177.258 5.148C177.872 5.39314 178.485 5.76087 178.854 6.25116C179.345 6.74146 179.59 7.23175 179.836 7.84462C180.081 8.4575 180.081 9.19294 180.081 9.92838L176.767 10.7864C176.767 9.92838 176.644 9.31551 176.276 8.82522C176.03 8.33492 175.539 8.08977 174.803 8.08977C174.435 8.08977 174.066 8.21235 173.821 8.33492C173.575 8.4575 173.33 8.70264 173.207 8.94779C173.084 9.19294 172.962 9.43809 172.962 9.80581C172.962 10.051 172.839 10.4187 172.839 10.6638V21.8181C172.839 22.0632 172.839 22.3084 172.962 22.5535C172.962 22.7987 173.084 23.0438 173.207 23.289C173.33 23.5341 173.575 23.6567 173.821 23.9018C174.066 24.0244 174.435 24.147 174.803 24.147C176.03 24.147 176.767 23.289 176.767 21.4503C177.381 21.5729 177.872 21.6955 178.485 21.6955C179.099 21.8181 179.59 21.8181 180.204 21.9406C180.204 23.6567 179.713 24.8824 178.854 25.863C177.994 26.8436 176.644 27.3339 174.926 27.3339C173.084 27.3339 171.734 26.8436 170.875 25.9856C170.015 25.1276 169.524 23.7793 169.524 21.9406V10.7864C169.524 9.92838 169.647 9.19294 169.77 8.4575C169.893 7.72205 170.261 7.10918 170.629 6.49631C170.997 6.00601 171.611 5.51572 172.348 5.148C173.084 4.90285 173.944 4.78027 174.926 4.78027Z" fill="white"/>
<path d="M191.497 8.21256V26.9664H188.06V8.21256H184.5V5.02563H195.057V8.21256H191.497V8.21256Z" fill="white"/>
<path d="M208.315 15.4444C209.297 15.8122 209.91 16.3024 210.279 17.283C210.647 18.1411 210.77 19.1217 210.77 20.3474C210.77 22.6763 210.279 24.2698 209.297 25.3729C208.315 26.4761 206.842 26.9664 204.755 26.9664H200.213V5.02563H205C206.964 5.02563 208.315 5.51593 209.297 6.49652C210.156 7.47712 210.647 8.948 210.647 10.9092C210.647 11.8898 210.524 12.7478 210.156 13.6058C209.788 14.3413 209.174 14.9541 208.315 15.3219V15.4444V15.4444ZM207.333 11.0318C207.333 10.0512 207.087 9.31573 206.719 8.82543C206.351 8.33513 205.614 8.21256 204.755 8.21256H203.65V13.851H204.755C205.614 13.851 206.351 13.6058 206.719 13.1155C207.087 12.6252 207.333 11.8898 207.333 11.0318ZM207.578 19.9797C207.578 18.9991 207.333 18.1411 206.964 17.6508C206.596 17.1605 205.86 16.9153 205 16.9153H203.65V23.7795H205C205.491 23.7795 205.982 23.6569 206.351 23.5343C206.719 23.2892 206.964 23.044 207.087 22.6763C207.21 22.3086 207.333 21.9409 207.455 21.4506C207.455 20.9603 207.578 20.47 207.578 19.9797Z" fill="white"/>
<path d="M225.131 13.1155L220.467 26.9664H217.152V5.02563H220.467V18.8765H220.589L225.254 5.02563H228.569V26.9664H225.254L225.131 13.1155Z" fill="white"/>
<path d="M234.216 26.9664L235.443 19.9797C235.566 19.2442 235.812 18.6314 236.18 18.0185C236.548 17.4056 236.916 16.9153 237.53 16.6702C236.548 16.3024 235.812 15.567 235.443 14.709C235.075 13.851 234.83 12.8704 234.83 11.6446C234.83 9.4383 235.321 7.84484 236.425 6.74167C237.53 5.63851 238.88 5.02563 240.722 5.02563H245.755V26.9664H242.318V17.6508H241.458C240.845 17.6508 240.354 17.8959 239.863 18.3862C239.371 18.8765 239.003 19.6119 238.758 20.8377L237.653 27.089H234.216V26.9664ZM241.09 8.21256C240.108 8.21256 239.372 8.58028 238.88 9.19315C238.512 9.80602 238.267 10.664 238.267 11.6446C238.267 12.7478 238.512 13.4832 239.003 13.851C239.494 14.2187 240.231 14.4638 240.967 14.4638H242.318V8.21256H241.09Z" fill="white"/>
<path d="M10.3116 45.2298L4.54211 62.2676H0.491211V35.0562H4.66486V52.3391H4.78762L10.5571 35.0562H14.7307V62.2676H10.4343L10.3116 45.2298Z" fill="white"/>
<path d="M35.4761 62.2676V50.3779H30.5659V62.2676H26.2695V35.0562H30.5659V46.4555H35.4761V35.0562H39.7725V62.2676H35.4761V62.2676Z" fill="white"/>
<path d="M60.7632 62.2676V50.3779H55.853V62.2676H51.5566V35.0562H55.853V46.4555H60.7632V35.0562H65.0596V62.2676H60.7632V62.2676Z" fill="white"/>
<path d="M89.8561 55.2809C89.8561 57.6098 89.3651 59.4484 88.2603 60.6742C87.1555 61.8999 85.437 62.5128 83.2274 62.5128C80.895 62.5128 79.2992 61.8999 78.1944 60.7967C77.0896 59.6936 76.5986 57.9775 76.5986 55.7712V42.0429C76.5986 40.9397 76.7214 39.9591 76.9669 39.1011C77.2124 38.2431 77.5807 37.5077 78.0717 36.7722C78.5627 36.1594 79.2992 35.6691 80.1585 35.3013C81.0178 34.9336 81.9998 34.811 83.2274 34.811C84.4549 34.811 85.5597 34.9336 86.419 35.3013C87.2783 35.6691 88.0148 36.1594 88.5058 36.7722C88.9968 37.3851 89.3651 38.1205 89.6106 39.1011C89.8561 39.9591 89.9789 40.9397 89.9789 42.1655V55.2809H89.8561ZM85.6825 41.6752C85.6825 40.9397 85.5597 40.2043 85.1914 39.5914C84.8232 38.9786 84.2094 38.7334 83.3501 38.7334C82.8591 38.7334 82.4908 38.856 82.1226 39.1011C81.7543 39.3463 81.5088 39.5914 81.3861 39.9591C81.2633 40.3269 81.1405 40.6946 81.0178 41.0623C80.895 41.43 80.895 41.7978 80.895 42.1655V55.8938C80.895 56.6292 81.0178 57.2421 81.3861 57.7324C81.7543 58.3453 82.3681 58.5904 83.2274 58.5904C84.0867 58.5904 84.7004 58.3453 85.0687 57.7324C85.437 57.1195 85.6825 56.3841 85.6825 55.6486V41.6752V41.6752Z" fill="white"/>
<path d="M111.583 48.049C112.811 48.4167 113.67 49.1522 114.039 50.2553C114.53 51.3585 114.652 52.5842 114.652 54.0551C114.652 56.8743 114.039 58.9581 112.811 60.3064C111.583 61.6547 109.742 62.2676 107.164 62.2676H101.518V35.0562H107.533C109.988 35.0562 111.706 35.669 112.811 36.8948C113.916 38.1205 114.407 39.9591 114.407 42.4106C114.407 43.6363 114.161 44.7395 113.793 45.7201C113.302 46.7007 112.565 47.3136 111.583 47.8039V48.049V48.049ZM110.356 42.5332C110.356 41.3074 110.11 40.3268 109.619 39.8365C109.128 39.3462 108.269 38.9785 107.164 38.9785H105.814V45.9652H107.164C108.269 45.9652 109.128 45.7201 109.619 45.1072C110.11 44.4944 110.356 43.6363 110.356 42.5332ZM110.601 53.5648C110.601 52.3391 110.356 51.3585 109.865 50.7456C109.374 50.1328 108.515 49.765 107.41 49.765H105.814V58.2226H107.533C108.269 58.2226 108.76 58.1001 109.128 57.8549C109.497 57.6098 109.865 57.2421 110.11 56.8743C110.356 56.5066 110.479 56.0163 110.601 55.4034C110.601 54.7906 110.601 54.3003 110.601 53.5648Z" fill="white"/>
<path d="M136.135 62.2676L135.03 56.6292H129.997C129.752 57.6098 129.629 58.4678 129.506 59.4484C129.383 60.429 129.138 61.287 129.015 62.2676H124.719C125.701 57.7324 126.56 53.1971 127.542 48.6619C128.524 44.1266 129.383 39.5914 130.365 35.0562H135.153L140.677 62.2676H136.135V62.2676ZM132.452 41.3074C132.207 43.146 131.961 45.1072 131.593 46.9458C131.347 48.7844 130.979 50.7456 130.611 52.5842H134.416L132.698 41.3074H132.452Z" fill="white"/>
<path d="M163.877 35.0562V58.3452H165.596V67.4157H162.036V62.2676H150.497V35.0562H154.793V58.3452H159.581V35.0562H163.877Z" fill="white"/>
<path d="M185.728 45.2298L179.958 62.2676H175.907V35.0562H180.081V52.3391H180.204L185.973 35.0562H190.147V62.2676H185.973L185.728 45.2298Z" fill="white"/>
<path d="M200.703 62.2676L202.299 53.5648C202.544 52.7068 202.79 51.8488 203.158 51.1134C203.526 50.3779 204.14 49.765 204.877 49.3973C203.649 48.907 202.79 48.049 202.299 47.0684C201.808 45.9652 201.562 44.7395 201.562 43.2686C201.562 40.572 202.176 38.6108 203.526 37.1399C204.877 35.7916 206.595 35.0562 208.928 35.0562H215.188V62.2676H210.892V50.6231H209.787C209.05 50.6231 208.314 50.8682 207.7 51.4811C207.086 52.0939 206.595 53.0745 206.35 54.5454L205 62.2676H200.703ZM209.05 38.9785C207.7 38.9785 206.841 39.3462 206.35 40.0817C205.859 40.8171 205.613 41.7977 205.613 43.146C205.613 44.4944 205.982 45.3524 206.595 45.8427C207.209 46.333 208.068 46.5781 209.05 46.5781H210.769V38.8559H209.05V38.9785Z" fill="white"/>
<path d="M234.707 56.2615L232.743 51.2359L231.024 46.4555H230.779V62.2676H226.482V35.0562H230.656L233.602 42.7783L235.812 48.6619H236.057L238.267 42.6557L241.213 35.0562H245.264V62.2676H240.967V46.5781H240.845L239.126 51.4811L237.162 56.384H234.707V56.2615Z" fill="white"/>
<path d="M245.631 70.48C186.464 128.335 68.0055 118.284 25.0414 70.48H0.613281C33.0205 104.801 79.5444 117.794 118.58 119.51C122.631 119.632 126.559 119.755 130.488 119.632C155.775 119.264 184.008 113.749 208.437 100.756C222.431 93.2788 235.197 83.3503 245.631 70.48Z" fill="#EA2227"/>
<path d="M245.632 70.48C244.65 71.2154 243.79 71.7057 242.931 72.3186C178.485 115.342 88.6288 106.884 50.2067 70.48H25.042C68.0061 118.284 186.464 128.335 245.632 70.48Z" fill="#25A8E0"/>
<path d="M231.391 76.4861C202.053 87.8855 174.433 92.7885 150.373 92.911C116.739 93.1562 90.101 84.0857 75.8615 70.48H54.5022H50.083C88.3824 106.639 177.134 115.22 241.58 73.1766C242.071 72.9315 242.439 72.5637 242.93 72.3186C243.79 71.7057 244.649 71.0928 245.508 70.6026C245.508 70.6026 245.508 70.6026 245.631 70.6026C240.843 72.6863 236.179 74.6475 231.391 76.4861Z" fill="white"/>
<path d="M75.8619 70.48C89.8559 83.9632 115.88 92.9111 149.024 92.9111C149.515 92.9111 149.883 92.9111 150.374 92.9111C174.434 92.7885 202.176 87.763 231.392 76.4862C236.056 74.6475 240.844 72.6864 245.631 70.48C235.197 83.3503 222.431 93.2788 208.314 100.756C183.886 113.749 155.652 119.264 130.365 119.632C129.383 119.632 128.401 119.632 127.419 119.632C124.473 119.632 121.527 119.51 118.458 119.387C79.4218 117.671 33.0206 104.678 0.490626 70.3575H24.9188H50.0834H54.5026H75.8619M75.8619 70.1123H54.5026H50.0834H25.0415H0.613381C0.490626 70.1123 0.367872 70.2349 0.245117 70.3575C0.245117 70.48 0.245117 70.6026 0.245117 70.7252C15.3439 86.6598 34.3709 99.0398 56.8349 107.497C75.7391 114.607 96.9757 118.897 118.335 119.755C121.281 119.877 124.35 120 127.296 120C128.278 120 129.26 120 130.242 120C143.622 119.755 156.88 118.161 169.646 115.342C183.64 112.155 196.652 107.375 208.437 101.124C223.413 93.1562 235.934 82.9826 245.877 70.7252V70.6026V70.48V70.3575C245.877 70.3575 245.877 70.2349 245.754 70.2349H245.631C245.631 70.2349 245.631 70.2349 245.509 70.2349H245.386C240.721 72.3186 235.934 74.4024 231.269 76.241C204.018 86.7824 176.03 92.5434 150.374 92.6659C149.883 92.6659 149.392 92.6659 149.024 92.6659C117.476 92.5434 90.8379 84.4535 76.1074 70.2349C76.1074 70.2349 75.9846 70.1123 75.8619 70.1123Z" fill="#CDCCCB"/>
</g>
<defs>
<clipPath id="clip0_104_1285">
<rect width="246" height="120" fill="white"/>
</clipPath>
</defs>
</svg>
