<svg width="53" height="38" viewBox="0 0 53 38" fill="none" xmlns="http://www.w3.org/2000/svg">
<path d="M45.1687 1.41416C45.0588 1.22131 44.878 1.08058 44.6658 1.02295C44.4537 0.965315 44.2276 0.995489 44.0374 1.10683L35.9066 5.86671C35.7845 5.93762 35.6824 6.03916 35.6101 6.16159C35.5378 6.28402 35.4978 6.42323 35.4939 6.56586L25.296 6.45628C24.5922 6.43857 23.8937 6.58409 23.2538 6.88176C22.6139 7.17943 22.0495 7.62137 21.6037 8.17386L20.3656 9.66431C20.3552 9.65822 20.3443 9.6514 20.333 9.64573L16.8817 7.9018L17.3968 6.99714C17.5066 6.80428 17.5363 6.57509 17.4795 6.35999C17.4226 6.14488 17.2839 5.96148 17.0937 5.85013L8.96261 1.09025C8.86843 1.03512 8.76445 0.999344 8.65663 0.984959C8.54881 0.970574 8.43925 0.977863 8.33421 1.00641C8.22916 1.03496 8.13069 1.0842 8.04442 1.15134C7.95815 1.21847 7.88576 1.30218 7.83139 1.39768L0.110989 14.9565C0.0565995 15.052 0.0212953 15.1575 0.00709203 15.2668C-0.00711122 15.3761 6.47234e-05 15.4872 0.0282101 15.5938C0.0563554 15.7003 0.104919 15.8001 0.171127 15.8876C0.237336 15.9751 0.319892 16.0485 0.414083 16.1037L8.54492 20.8634C8.73513 20.9748 8.96116 21.005 9.17331 20.9473C9.38545 20.8897 9.56632 20.749 9.67614 20.5561L9.76051 20.408L10.7238 20.9341C10.1985 21.5619 9.925 22.3669 9.95759 23.1896C9.99019 24.0123 10.3265 24.7925 10.8998 25.3755C11.3484 25.8323 11.9211 26.1433 12.5447 26.2689C12.322 26.768 12.2264 27.3158 12.2666 27.862C12.3068 28.4083 12.4814 28.9356 12.7746 29.3957C13.0677 29.8557 13.47 30.2339 13.9446 30.4956C14.4193 30.7572 14.951 30.894 15.4912 30.8933C15.6716 30.893 15.8516 30.8778 16.0295 30.8476C16.0666 31.69 16.4231 32.4852 17.0247 33.0674C17.6262 33.6496 18.4263 33.9737 19.2579 33.972C19.4382 33.9718 19.6182 33.9565 19.7961 33.9264C19.8258 34.5607 20.0365 35.1726 20.4025 35.6879C20.7686 36.2031 21.2743 36.5996 21.8583 36.829C22.4422 37.0585 23.0793 37.1111 23.6922 36.9806C24.3051 36.85 24.8675 36.5418 25.3109 36.0934L26.0748 35.3188C26.5725 35.6051 27.1365 35.7518 27.7087 35.7438C28.2809 35.7357 28.8406 35.5732 29.3303 35.2729C29.82 34.9727 30.2219 34.5455 30.4947 34.0354C30.7675 33.5253 30.9013 32.9508 30.8824 32.3708C31.5796 32.4807 32.293 32.3499 32.9082 31.9995C33.9929 31.4012 34.7163 30.2692 34.7654 29.1052C35.2467 29.2304 35.75 29.2414 36.2361 29.1372C36.7222 29.033 37.1781 28.8164 37.5682 28.5044C37.9583 28.1924 38.2721 27.7933 38.4852 27.3382C38.6983 26.883 38.8049 26.3842 38.7968 25.8805C39.0491 25.9448 39.3082 25.9775 39.5682 25.9781C39.827 25.9779 40.0848 25.9466 40.3362 25.8849C40.8987 25.7467 41.4142 25.458 41.8291 25.0489C42.244 24.6398 42.5431 24.1254 42.6951 23.5592C42.8471 22.993 42.8465 22.3958 42.6934 21.8299C42.5403 21.2641 42.2402 20.7502 41.8245 20.342L42.8104 19.6734L43.3223 20.5726C43.3767 20.6681 43.4491 20.7519 43.5353 20.819C43.6216 20.8862 43.7201 20.9354 43.8252 20.964C43.9302 20.9925 44.0398 20.9997 44.1476 20.9853C44.2554 20.9709 44.3594 20.935 44.4536 20.8798L52.586 16.12C52.7762 16.0087 52.9149 15.8253 52.9718 15.6102C53.0286 15.3951 52.9989 15.1659 52.8891 14.973L45.1687 1.41416ZM1.95936 15.0691L8.85164 2.96454L15.5481 6.88473L8.65589 18.9893L1.95936 15.0691ZM12.0714 21.9263L13.3902 20.5892C13.6852 20.2885 14.0858 20.119 14.5041 20.1179C14.9223 20.1168 15.3239 20.2843 15.6204 20.5833C15.9169 20.8824 16.0841 21.2887 16.0851 21.7128C16.0862 22.1369 15.9211 22.544 15.6261 22.8447L14.2955 24.1943C13.9989 24.4933 13.5973 24.6606 13.179 24.6593C12.7608 24.6581 12.3601 24.4885 12.0652 24.1877C11.7703 23.887 11.6053 23.4797 11.6066 23.0556C11.6078 22.6315 11.7751 22.2253 12.0717 21.9263H12.0714ZM14.3765 28.7487C14.0811 28.4486 13.9153 28.0419 13.9153 27.6179C13.9153 27.1939 14.0811 26.7872 14.3765 26.487L15.4615 25.3869C15.4654 25.3831 15.4693 25.3795 15.4731 25.3756C15.475 25.3738 15.4765 25.3717 15.4784 25.3698L16.7856 24.0443C16.7877 24.0423 16.7898 24.0406 16.7919 24.0385C16.7959 24.0345 16.7996 24.0302 16.8035 24.0261L17.8875 22.9263C18.1833 22.6264 18.5845 22.4579 19.0028 22.4579C19.4211 22.4579 19.8222 22.6264 20.118 22.9263C20.4138 23.2262 20.58 23.633 20.58 24.0571C20.58 24.4812 20.4139 24.888 20.1181 25.1879L16.607 28.7484C16.311 29.0479 15.9099 29.2161 15.4918 29.2161C15.0736 29.2162 14.6725 29.048 14.3765 28.7485V28.7487ZM18.1436 31.8275C17.8484 31.5273 17.6826 31.1207 17.6826 30.6968C17.6826 30.2729 17.8484 29.8663 18.1436 29.5662L20.924 26.7469C21.2204 26.4499 21.6207 26.2839 22.0374 26.2851C22.4541 26.2864 22.8534 26.4548 23.1481 26.7536C23.4427 27.0523 23.6088 27.4572 23.61 27.8797C23.6113 28.3022 23.4475 28.7081 23.1546 29.0086L22.7892 29.379L20.3741 31.8279C20.078 32.1273 19.6769 32.2954 19.2587 32.2953C18.8406 32.2951 18.4395 32.1268 18.1436 31.8272V31.8275ZM23.026 35.3714C22.7141 35.3721 22.4089 35.2789 22.1493 35.1036C21.8897 34.9282 21.6873 34.6786 21.5678 34.3864C21.4483 34.0942 21.4171 33.7726 21.4782 33.4624C21.5393 33.1523 21.6898 32.8674 21.9108 32.6442L21.9117 32.6432L23.9604 30.5659C24.2573 30.2718 24.6566 30.1081 25.0717 30.1105C25.4868 30.1129 25.8842 30.2812 26.1778 30.5787C26.4713 30.8763 26.6373 31.2793 26.6398 31.7002C26.6423 32.1211 26.481 32.526 26.1909 32.8271L24.1413 34.9053C23.9951 35.054 23.8212 35.1717 23.6297 35.2517C23.4383 35.3317 23.2331 35.3723 23.026 35.3714V35.3714ZM29.0051 33.2967C28.8361 33.5759 28.5866 33.7958 28.2904 33.9266C27.9943 34.0575 27.6656 34.0931 27.3489 34.0285L27.3621 34.0151C27.6628 33.7111 27.9011 33.3497 28.0632 32.9518C28.2253 32.5538 28.3079 32.1272 28.3063 31.6967C28.3063 31.4411 28.2771 31.1863 28.2194 30.9375L28.7655 31.3258C29.0155 31.5808 29.1748 31.9128 29.2182 32.2697C29.2616 32.6265 29.1866 32.9878 29.0051 33.2967V33.2967ZM40.9258 23.5346C40.7062 23.895 40.3553 24.1529 39.9492 24.2522C39.543 24.3515 39.1147 24.2842 38.7573 24.0649L37.2556 23.134L37.2535 23.1325L37.2524 23.1319L30.6249 19.0233C30.5321 18.9645 30.4288 18.925 30.3208 18.907C30.2129 18.889 30.1025 18.8929 29.996 18.9184C29.8896 18.9439 29.7891 18.9905 29.7005 19.0556C29.612 19.1207 29.537 19.2029 29.4799 19.2976C29.4228 19.3922 29.3848 19.4974 29.3681 19.607C29.3513 19.7166 29.3561 19.8285 29.3823 19.9362C29.4084 20.0439 29.4553 20.1453 29.5203 20.2345C29.5853 20.3237 29.6671 20.399 29.761 20.456L36.39 24.5656C36.7469 24.7869 37.0025 25.1429 37.1005 25.5553C37.1986 25.9677 37.131 26.4027 36.9128 26.7646C36.6945 27.1264 36.3434 27.3856 35.9367 27.485C35.53 27.5844 35.101 27.5159 34.7441 27.2946L28.7448 23.5748C28.5574 23.4586 28.3321 23.4227 28.1186 23.4749C27.9051 23.5271 27.7208 23.6632 27.6062 23.8532C27.4917 24.0432 27.4562 24.2716 27.5077 24.4881C27.5592 24.7046 27.6934 24.8915 27.8808 25.0076L32.3019 27.7484L32.3028 27.7491C32.8536 28.0906 33.1268 28.5153 33.1145 29.0109C33.1002 29.5862 32.69 30.2084 32.1179 30.5244C31.8898 30.662 31.6287 30.7332 31.3633 30.7299C31.0978 30.7266 30.8385 30.6491 30.6137 30.5059L29.7485 29.9733L26.758 27.8487C26.6403 27.7651 26.5031 27.7139 26.36 27.7003C26.2168 27.6867 26.0727 27.7112 25.9417 27.7712C25.8107 27.8312 25.6974 27.9248 25.6129 28.0427C25.5284 28.1606 25.4756 28.2988 25.4597 28.4436C25.3818 28.4343 25.3044 28.4269 25.2256 28.4233C25.3025 27.9659 25.2827 27.4972 25.1673 27.0482C25.052 26.5992 24.8438 26.1802 24.5566 25.819C24.2694 25.4579 23.9098 25.1627 23.5016 24.9531C23.0933 24.7436 22.6458 24.6245 22.1887 24.6036C22.2184 24.423 22.2335 24.2403 22.2337 24.0572C22.2353 23.6267 22.1527 23.2001 21.9907 22.8022C21.8286 22.4042 21.5904 22.0429 21.2897 21.7389C20.8248 21.2688 20.23 20.9531 19.5841 20.8335C18.9383 20.714 18.2718 20.7963 17.6731 21.0695C17.5576 20.4884 17.2888 19.9499 16.8952 19.5115C16.5017 19.0731 15.9983 18.7512 15.4385 18.58C14.8788 18.4089 14.2838 18.3949 13.7168 18.5396C13.1499 18.6843 12.6322 18.9822 12.2191 19.4016L11.9361 19.6886L10.589 18.953L16.0518 9.3596L19.2689 10.9847L17.0294 13.6807C16.8713 13.8679 16.7669 14.0955 16.7276 14.3387C16.6884 14.5819 16.7157 14.8313 16.8067 15.0598C16.8895 15.273 16.9758 15.4754 17.0629 15.6614C17.3038 16.1752 17.6659 16.621 18.117 16.9593C18.5682 17.2976 19.0946 17.518 19.6497 17.601C20.2049 17.684 20.7716 17.6271 21.2999 17.4352C21.8282 17.2434 22.3017 16.9225 22.6786 16.501L24.8939 14.0232C25.2633 13.6022 25.7677 13.3273 26.3178 13.2471C26.8679 13.1669 27.4282 13.2866 27.8997 13.5851L40.4032 21.336C40.7586 21.5586 41.0129 21.9144 41.1108 22.3262C41.2087 22.7379 41.1423 23.1722 40.9261 23.5346H40.9258ZM40.3408 19.3291L28.7639 12.152C27.9646 11.6458 27.0144 11.4427 26.0816 11.5787C25.1488 11.7146 24.2936 12.1808 23.6672 12.8948L21.452 15.3726C21.2578 15.5897 21.0139 15.755 20.7418 15.8538C20.4697 15.9527 20.1777 15.982 19.8918 15.9393C19.6058 15.8965 19.3346 15.783 19.1022 15.6088C18.8698 15.4346 18.6833 15.205 18.5591 14.9403C18.5116 14.839 18.4642 14.7304 18.4173 14.6172L22.8708 9.25569C23.1598 8.89341 23.5275 8.6038 23.9452 8.40949C24.3629 8.21517 24.8192 8.12142 25.2785 8.13555L36.3099 8.25405L41.9825 18.2159L40.3408 19.3291ZM44.3442 19.0058L37.452 6.90173L44.1485 2.98154L51.0407 15.0855L44.3442 19.0058Z" fill="white"/>
</svg>
