<svg width="52" height="52" viewBox="0 0 52 52" fill="none" xmlns="http://www.w3.org/2000/svg">
<path d="M50.8058 6.82954C50.6379 6.46401 50.3204 6.18883 49.9348 6.07469C49.5492 5.99612 49.1509 6.12882 48.8896 6.42311L45.58 9.73278L42.0961 6.19094L45.4058 2.88126C45.69 2.61431 45.8019 2.21133 45.6961 1.83613C45.6418 1.42081 45.3447 1.07795 44.9413 0.965142C41.4534 -0.257149 37.5738 0.622504 34.9543 3.22968C33.5413 4.6738 32.6085 6.51913 32.2835 8.51338L26.9996 6.42311L24.6191 9.21022C22.9367 9.04451 21.2405 9.08352 19.5675 9.32635L17.0127 6.71351L9.75466 9.84881L10.0449 13.5649C8.71152 14.6078 7.53779 15.8402 6.56112 17.2229L2.84512 17.1068L0 24.4808L2.78711 26.8614C2.62251 28.5438 2.66152 30.2399 2.90325 31.913L0.232278 34.4679L3.42582 41.7258L7.0838 41.4356C8.16194 42.7571 9.41169 43.9287 10.7999 44.9194L10.6838 48.5774L18.0579 51.4225L20.4384 48.6935C22.1208 48.8581 23.8169 48.8191 25.49 48.5774L28.0448 51.1902L35.2447 48.0548L35.0124 44.3387C36.3459 43.2958 37.5196 42.0634 38.4963 40.6807L42.1543 40.7968L44.9994 33.4228L42.2704 31.0422C42.4457 29.3583 42.387 27.6584 42.0962 25.9907L44.7672 23.4358L43.0834 19.5456C45.1374 19.2639 47.0383 18.3033 48.4833 16.8166C51.0856 14.1956 51.9847 10.3297 50.8058 6.82954ZM42.2704 34.1195L40.5865 38.4162H37.2769L36.9285 38.9387C35.8829 40.4781 34.5877 41.8322 33.0962 42.9451L32.5736 43.3516L32.8639 46.6031L28.5672 48.4031L26.3028 46.0225L25.6641 46.1387C23.8266 46.4879 21.9457 46.5467 20.09 46.3128H19.5094L17.361 48.7515L13.0643 47.0677V43.7L12.5418 43.3516C10.9901 42.3213 9.63352 41.0238 8.53537 39.5193L8.12893 38.9967L4.81926 39.287L3.01927 34.9904L5.39984 32.7259L5.2837 32.1453C4.98374 30.2825 4.94462 28.3869 5.16756 26.5131V25.9325L2.787 23.7841L4.41283 19.4874H7.72251L8.12893 18.9649C9.12106 17.4018 10.402 16.0421 11.9031 14.9585L12.4256 14.552L12.1933 11.2424L16.432 9.38437L18.7546 11.7649L19.3352 11.6488C21.1786 11.3489 23.0549 11.3098 24.9093 11.5327H25.548L27.6964 9.09396L32.2253 10.8359C32.2458 11.3654 32.3236 11.8911 32.4576 12.4036L28.3932 16.4681C26.5633 15.5885 24.5591 15.1321 22.5288 15.1326C14.9609 15.1008 8.8001 21.2101 8.76831 28.778C8.73652 36.3459 14.8458 42.5067 22.4137 42.5385C29.9587 42.5702 36.1098 36.4966 36.1738 28.9518C36.1954 27.075 35.8194 25.2149 35.0706 23.4938L39.1931 19.3133L40.5867 19.6036L41.9802 22.8551L39.5997 25.1777L39.7158 25.7583C40.0644 27.6154 40.1232 29.5153 39.8899 31.3905L39.7738 31.9711L42.2704 34.1195ZM30.8899 27.6164L33.2705 25.2358C33.6657 26.4344 33.8618 27.6898 33.8511 28.9519C33.8824 35.2692 28.7866 40.4158 22.4693 40.447C16.1521 40.4783 11.0055 35.3826 10.9743 29.0653C10.9429 22.748 16.0387 17.6014 22.356 17.5702C23.8268 17.5629 25.2851 17.8394 26.6512 18.3843L24.0964 20.881C21.3864 20.3629 18.597 21.2346 16.6643 23.2035C13.4104 26.5041 13.4104 31.806 16.6643 35.1066C18.2366 36.6734 20.3672 37.5507 22.5868 37.5453C27.2043 37.5952 30.9879 33.8924 31.0378 29.2749C31.0438 28.7185 30.9943 28.1628 30.8899 27.6164ZM39.3091 16.9326C38.8919 16.7681 38.4173 16.8585 38.0898 17.1649L28.7996 26.4551C28.5141 26.7462 28.3846 27.156 28.4512 27.5584C29.048 29.6423 28.4704 31.8861 26.9415 33.4228C24.5685 35.8118 20.7082 35.8248 18.319 33.4518C15.93 31.0788 15.917 27.2184 18.29 24.8293C19.4297 23.6944 20.9785 23.0666 22.5867 23.0873L24.2125 23.2614C24.6056 23.377 25.0305 23.2652 25.3158 22.9712L34.606 13.6809C34.9092 13.3532 35.0193 12.8909 34.8963 12.4617C33.9912 9.8108 34.6408 6.87644 36.5802 4.85529C38.0768 3.35504 40.1584 2.59042 42.2704 2.76501L39.5994 5.37786C39.1854 5.84075 39.1854 6.5408 39.5994 7.00369L44.7091 12.2294C44.9373 12.4272 45.2213 12.549 45.5219 12.5778C45.8428 12.5612 46.1491 12.4388 46.3929 12.2294L48.9478 9.55841C49.1293 11.654 48.3623 13.7207 46.8575 15.1906C44.8947 17.1908 41.9498 17.8704 39.3091 16.9326Z" fill="#933E00"/>
<path d="M25.1992 26.5131C24.5278 25.8278 23.6036 25.4497 22.6444 25.4679C21.6689 25.4539 20.7282 25.8302 20.0315 26.5131C18.5885 27.9269 18.5648 30.2429 19.9787 31.6859C19.9962 31.7037 20.0137 31.7213 20.0315 31.7387C20.7105 32.4128 21.6297 32.7888 22.5863 32.7839C23.5584 32.7794 24.4924 32.4059 25.1992 31.7387C26.6422 30.3248 26.6659 28.0089 25.252 26.5658C25.2345 26.5481 25.217 26.5305 25.1992 26.5131ZM23.6257 30.0027C23.6088 30.0206 23.5914 30.038 23.5735 30.0549C23.0597 30.584 22.2141 30.5964 21.685 30.0826C21.6757 30.0735 21.6665 30.0642 21.6573 30.0549C21.1442 29.5707 21.1209 28.7623 21.6051 28.2491C21.622 28.2312 21.6395 28.2138 21.6573 28.1969C21.9064 27.9169 22.2704 27.767 22.6445 27.7905C23.0001 27.7765 23.3424 27.9263 23.5735 28.1969C24.0865 28.6811 24.1098 29.4895 23.6257 30.0027Z" fill="#933E00"/>
</svg>
