<svg width="51" height="50" viewBox="0 0 51 50" fill="none" xmlns="http://www.w3.org/2000/svg">
<path d="M37.3158 23.7692L40.407 26.8605C41.4096 27.863 43.0631 27.858 44.0656 26.8539L50.2481 20.6715C51.2506 19.6689 51.2507 18.0205 50.2481 17.018L47.1569 13.9267C46.8212 13.5893 46.2755 13.5877 45.937 13.9234C45.3082 14.5506 44.3367 14.5506 43.7087 13.9226C43.0807 13.2946 43.0807 12.3248 43.7087 11.6968C44.0429 11.3605 44.0429 10.8174 43.7087 10.4812L36.8107 3.58314C34.9756 1.7483 32.5713 0.827148 30.1669 0.827148C27.7625 0.827148 25.3582 1.74827 23.5231 3.58334L20.075 7.03155C19.4133 7.70275 20.1542 8.79771 21.0229 8.43232C21.0229 8.43232 26.5173 6.06736 30.4211 9.97119C31.0491 10.5992 31.0491 11.5707 30.4211 12.1987L26.973 15.6485C26.6346 15.9855 26.6346 16.5323 26.973 16.8692L30.672 20.5699L23.6561 27.5858L21.427 25.3566L26.4628 20.3207C27.3092 19.5082 26.0563 18.2554 25.2438 19.1018L20.1171 24.2286C19.1411 23.7192 17.9 23.8628 17.0848 24.6781L1.49899 40.2656C-0.499663 42.2642 -0.499663 45.5201 1.49899 47.5188C3.49764 49.5174 6.75363 49.5174 8.75225 47.5188L24.338 31.9314C25.1532 31.1162 25.2948 29.8728 24.7842 28.8957L31.891 21.7889L32.1451 22.043C32.4814 22.3772 33.0245 22.3772 33.3607 22.043L35.0865 20.3189C35.7145 19.691 36.6843 19.691 37.3123 20.3189C37.9403 20.9469 37.9403 21.9185 37.3132 22.5473C36.9768 22.8855 36.9776 23.4325 37.3158 23.7688L37.3158 23.7692ZM30.1669 2.53644C32.1239 2.53628 34.081 3.29089 35.5883 4.79936L41.9543 11.1686C41.2232 12.4347 41.4407 14.0999 42.4864 15.1455C42.8915 15.5506 43.383 15.813 43.9007 15.9621L39.3514 20.5097C39.2021 19.9927 38.9395 19.5018 38.5348 19.097C37.2525 17.8147 35.1533 17.8147 33.871 19.097L32.7497 20.2167L28.7981 16.2584L31.6368 13.4214C32.9191 12.1391 32.919 10.0383 31.6368 8.75596C28.7285 5.84767 25.069 5.8464 23.4575 6.08568L24.7455 4.79936C26.2534 3.29144 28.2099 2.53657 30.1669 2.53644V2.53644ZM46.544 15.755L49.0291 18.24C49.3774 18.5883 49.3774 19.1057 49.0291 19.454L42.8467 25.6364C42.4984 25.9847 41.9742 25.9897 41.626 25.643L39.1426 23.1595L46.544 15.755ZM19.5244 25.894L23.1191 29.4887C23.4673 29.837 23.4673 30.3646 23.1191 30.7128L7.5333 46.2985C6.18894 47.6428 4.05729 47.6478 2.71293 46.305C1.36857 44.9607 1.3686 42.8256 2.71293 41.4813L18.3004 25.8956C18.695 25.5011 19.2461 25.6174 19.5244 25.8956V25.894Z" fill="#933E00"/>
</svg>
