<svg width="35" height="37" viewBox="0 0 35 37" fill="none" xmlns="http://www.w3.org/2000/svg">
<path d="M33.9448 25.0278C34.6826 24.0849 35.0364 23.0741 34.9912 22.0331C34.946 20.8865 34.4341 19.9888 34.0125 19.4381C34.5019 18.2161 34.6901 16.2925 33.0565 14.7989C31.8595 13.7051 29.8269 13.2148 27.0113 13.3506C25.0314 13.4411 23.3752 13.8107 23.3074 13.8258H23.2999C22.9235 13.8937 22.5245 13.9767 22.1179 14.0672C22.0878 13.5844 22.1706 12.385 23.059 9.68443C24.1129 6.47091 24.0527 4.01174 22.8632 2.36727C21.6136 0.639811 19.6186 0.504028 19.0314 0.504028C18.4667 0.504028 17.9473 0.737876 17.5784 1.16785C16.7428 2.14096 16.8407 3.93631 16.946 4.76609C15.9523 7.43648 13.1669 13.9842 10.8105 15.8022C10.7654 15.8324 10.7277 15.8701 10.6901 15.9078C9.99749 16.6395 9.53074 17.4316 9.21455 18.1256C8.77039 17.8842 8.266 17.7484 7.72396 17.7484H3.13174C1.40025 17.7484 0 19.159 0 20.8865V33.1446C0 34.8796 1.40778 36.2827 3.13174 36.2827H7.72396C8.39398 36.2827 9.01882 36.0715 9.53074 35.7094L11.2999 35.9206C11.5709 35.9583 16.389 36.5694 21.335 36.4713C22.2309 36.5392 23.074 36.5769 23.857 36.5769C25.2045 36.5769 26.3789 36.4713 27.3576 36.2601C29.6612 35.7698 31.2346 34.7891 32.0326 33.3483C32.6424 32.2469 32.6424 31.1531 32.5445 30.4591C34.0427 29.1013 34.3061 27.6002 34.2534 26.5441C34.2233 25.9331 34.0878 25.4126 33.9448 25.0278ZM3.13174 34.246C2.52196 34.246 2.03262 33.7481 2.03262 33.1446V20.8789C2.03262 20.2679 2.52949 19.7776 3.13174 19.7776H7.72396C8.33375 19.7776 8.82309 20.2755 8.82309 20.8789V33.1371C8.82309 33.7481 8.32622 34.2384 7.72396 34.2384H3.13174V34.246V34.246ZM32.0176 24.1453C31.7014 24.4772 31.6412 24.9826 31.8821 25.3748C31.8821 25.3824 32.1907 25.9104 32.2284 26.6346C32.2811 27.6228 31.8068 28.4978 30.813 29.2446C30.4592 29.5162 30.3162 29.9839 30.4667 30.4063C30.4667 30.4139 30.7905 31.4096 30.2635 32.3526C29.7591 33.2578 28.6374 33.9065 26.936 34.2686C25.5734 34.5628 23.7215 34.6156 21.4479 34.4346C21.4178 34.4346 21.3802 34.4346 21.3425 34.4346C16.5019 34.5402 11.6085 33.9065 11.5558 33.899H11.5483L10.788 33.8084C10.8331 33.5972 10.8557 33.3709 10.8557 33.1446V20.8789C10.8557 20.5546 10.803 20.2377 10.7127 19.9436C10.8482 19.4381 11.2246 18.3142 12.1129 17.3561C15.4931 14.6707 18.798 5.61096 18.941 5.2187C19.0013 5.06028 19.0163 4.88678 18.9862 4.71328C18.8582 3.86842 18.9034 2.83496 19.0841 2.52568C19.4831 2.53322 20.5596 2.64637 21.207 3.54405C21.9749 4.60768 21.9448 6.50863 21.1167 9.02815C19.8519 12.8678 19.7465 14.8894 20.7478 15.7796C21.2447 16.2246 21.9072 16.2472 22.389 16.0737C22.8482 15.9681 23.2848 15.8776 23.6989 15.8097C23.729 15.8022 23.7666 15.7946 23.7967 15.7871C26.1079 15.2817 30.2484 14.9724 31.6863 16.285C32.9059 17.4014 32.0402 18.8799 31.9423 19.0383C31.6637 19.4608 31.7465 20.0114 32.123 20.3509C32.1305 20.3584 32.921 21.1052 32.9586 22.1085C32.9887 22.7799 32.6725 23.4664 32.0176 24.1453Z" fill="white"/>
</svg>
