<svg width="156" height="25" viewBox="0 0 156 25" fill="none" xmlns="http://www.w3.org/2000/svg">
<path d="M127.852 8.42133C127.671 8.42133 127.587 8.42133 127.502 8.42133C125.545 8.42133 123.587 8.42478 121.63 8.41376C121.496 8.41307 121.304 8.33906 121.238 8.23578C119.982 6.27623 118.107 5.51506 115.863 5.54123C112.144 5.58495 109.034 8.45472 108.561 12.1504C108.401 13.4069 108.489 14.6322 108.969 15.8096C109.663 17.5088 110.972 18.5396 112.712 18.9854C114.503 19.4446 116.293 19.3999 118.013 18.6339C119.306 18.0583 120.27 17.1095 120.998 15.9084C121.018 15.8746 121.028 15.8347 121.057 15.7621H115.563C114.291 15.7621 113.26 14.7289 113.26 13.4541V13.386V13.3856C113.26 12.1111 114.291 11.0777 115.563 11.0777H116.554C120.329 11.0777 124.1 11.0777 127.888 11.0777C127.8 11.9363 127.694 12.7804 127.629 13.628C127.462 15.7803 126.543 17.6104 125.309 19.2901C123.86 21.2623 121.888 22.8126 119.603 23.6835C116.144 25.0024 112.648 25.1019 109.19 23.7527C106.219 22.594 104.175 20.4902 103.119 17.5023C102.529 15.8333 102.365 14.0407 102.547 12.2795C102.852 9.32467 103.991 6.73685 105.999 4.56559C108.27 2.1103 111.095 0.66853 114.402 0.23648C117.347 -0.148062 120.184 0.242331 122.804 1.72679C124.86 2.89212 126.376 4.56042 127.274 6.76164C127.486 7.28251 127.645 7.82437 127.852 8.42133Z" fill="#FD8223"/>
<path d="M62.5747 24.7239C60.0801 24.6788 57.7314 24.1262 55.6398 22.7361C53.0919 21.0427 51.5696 18.6452 51.0941 15.6309C50.4822 11.7496 51.4153 8.23746 53.8663 5.16766C55.8016 2.7444 58.3299 1.21277 61.3427 0.509096C64.3939 -0.203873 67.4067 -0.0692663 70.2737 1.25615C73.6386 2.81153 75.6877 5.46028 76.235 9.13977C76.9774 14.1323 75.3383 18.293 71.5188 21.5515C69.5251 23.2525 67.1627 24.2271 64.5513 24.5504C63.8957 24.6316 63.234 24.6671 62.5747 24.7239ZM70.4256 11.5985C70.3761 11.132 70.3538 10.6604 70.2727 10.1994C69.9659 8.45641 69.0881 7.10517 67.5001 6.26242C66.186 5.56528 64.7787 5.40796 63.3285 5.60729C60.9002 5.94122 59.0755 7.18848 57.8936 9.33841C57.0261 10.9165 56.7221 12.6185 57.01 14.3929C57.3449 16.4554 58.4237 17.9922 60.3999 18.8036C61.3959 19.2126 62.4411 19.3038 63.5134 19.2274C65.5565 19.0814 67.2225 18.197 68.5243 16.6475C69.7422 15.1988 70.3311 13.493 70.4256 11.5985Z" fill="#FD8223"/>
<path d="M35.2181 24.6869C32.6489 24.6872 30.4497 24.1925 28.4464 22.9935C25.893 21.4656 24.2775 19.2269 23.6285 16.3272C22.2546 10.1903 25.4041 3.97845 31.1867 1.37306C33.5779 0.295521 36.0808 -0.0738715 38.6905 0.194309C41.0574 0.437359 43.2047 1.21712 45.0486 2.73807C47.0554 4.39363 48.2331 6.54734 48.6416 9.10005C49.224 12.7379 48.4046 16.0741 46.2669 19.0603C44.7363 21.1981 42.7092 22.7363 40.2589 23.7013C38.56 24.3698 36.7965 24.7 35.2181 24.6869ZM36.6216 5.52866C34.487 5.58375 32.5613 6.34905 31.1211 8.10789C29.496 10.0926 28.9806 12.3788 29.509 14.8768C29.9062 16.7534 31.0204 18.0822 32.8063 18.8062C33.994 19.2878 35.2325 19.347 36.4924 19.1608C38.2267 18.9043 39.6711 18.0987 40.8007 16.7816C42.2973 15.0362 42.9425 12.9844 42.7381 10.6905C42.6275 9.44879 42.2015 8.31754 41.3415 7.38493C40.0981 6.03646 38.5074 5.54416 36.6216 5.52866Z" fill="#FD8223"/>
<path d="M141.901 24.6888C139.058 24.6843 136.722 24.1287 134.633 22.7575C132.126 21.1115 130.639 18.7712 130.088 15.8288C129.671 13.6045 129.814 11.4023 130.567 9.28336C132.167 4.77695 135.325 1.88066 139.922 0.607924C142.685 -0.156684 145.464 -0.114687 148.185 0.838233C151.678 2.0614 153.971 4.45127 154.981 8.03402C155.412 9.56736 155.475 11.1324 155.3 12.7084C155.053 14.9289 154.3 16.9704 153.02 18.7981C151.032 21.6393 148.329 23.4556 144.966 24.2856C143.841 24.5631 142.699 24.707 141.901 24.6888ZM143.118 5.52848C140.716 5.59526 138.595 6.6043 137.154 8.8272C136.001 10.606 135.613 12.5755 136.014 14.6597C136.343 16.3724 137.241 17.725 138.817 18.5526C139.944 19.1441 141.154 19.3155 142.42 19.2312C144.541 19.09 146.258 18.1695 147.569 16.5342C149.024 14.7186 149.579 12.6113 149.258 10.3093C149.082 9.04168 148.545 7.92076 147.57 7.04323C146.362 5.95501 144.915 5.54534 143.118 5.52848Z" fill="#FD8223"/>
<path d="M82.9602 24.2103C81.0029 24.2103 79.0493 24.2103 77.0566 24.2103C77.1576 23.6643 77.2518 23.1335 77.3545 22.6044C77.9039 19.7694 78.4477 16.9333 79.0088 14.1007C79.4235 12.0072 79.8272 9.91034 80.3009 7.82996C80.6191 6.43225 81.2454 5.15263 82.1047 3.99659C83.3188 2.36306 84.9106 1.26004 86.8487 0.662403C89.3481 -0.108402 91.872 -0.094634 94.3676 0.619023C96.583 1.25247 98.3468 2.52555 99.371 4.6648C99.8036 5.56815 100.033 6.5283 100.127 7.52907C100.29 9.26141 99.9204 10.9314 99.5916 12.6087C98.8491 16.3932 98.106 20.1776 97.3629 23.9621C97.3467 24.0444 97.3237 24.125 97.302 24.2138C95.3317 24.2138 93.3775 24.2138 91.3965 24.2138C91.5737 23.2733 91.7455 22.3458 91.9238 21.4194C92.4722 18.572 93.0246 15.7253 93.5719 12.8772C93.7795 11.7976 94.0296 10.7225 94.1649 9.63321C94.3298 8.30539 94.0529 7.09082 92.8989 6.23464C92.3615 5.83598 91.7359 5.64939 91.0814 5.57503C90.0902 5.4628 89.1183 5.52994 88.1992 5.96853C86.982 6.5493 86.3357 7.59104 86.0207 8.83211C85.7008 10.0925 85.4792 11.3786 85.2287 12.6562C84.4904 16.4204 83.7593 20.1859 83.0248 23.9504C83.0083 24.0341 82.9839 24.1153 82.9602 24.2103Z" fill="#FD8223"/>
<path d="M20.9332 11.4749C21.7358 9.47821 21.843 7.41332 21.2799 5.34223C20.7845 3.51867 19.6572 2.19566 17.9116 1.41866C16.6812 0.871284 15.386 0.615495 14.0529 0.60379C10.9842 0.576594 7.91511 0.588303 4.84636 0.585205C4.76357 0.585205 4.68076 0.597942 4.58044 0.60586C4.23791 2.37193 3.89537 4.13593 3.55318 5.90097L10.4207 6.01044C11.4205 6.01629 12.4203 6.02146 13.4194 6.05245C14.0368 6.07172 14.6264 6.26073 15.083 6.70724C15.677 7.28801 15.7832 8.03609 15.6952 8.81412C15.5138 10.4167 14.3859 11.2419 12.8587 11.3548C11.683 11.4419 10.4991 11.4154 9.31652 11.4047L9.31412 11.4161H2.48296C1.65565 15.6801 0.828341 19.9445 0 24.2137C1.96177 24.2137 3.89503 24.2137 5.85954 24.2137C6.33985 21.7619 6.82016 19.311 7.3039 16.8403C8.15904 16.8403 8.99151 16.852 9.82328 16.8334C10.081 16.8275 10.1899 16.9081 10.2782 17.1494C11.1089 19.4191 11.9562 21.683 12.7914 23.951C12.8628 24.1452 12.9436 24.2333 13.1734 24.2319C15.1623 24.2202 17.1512 24.2254 19.1402 24.2247C19.2116 24.2247 19.2831 24.2185 19.3944 24.2134C18.1682 21.5061 16.9547 18.8263 15.7316 16.1256C15.9457 16.0406 16.1319 15.9672 16.3177 15.8922C18.4403 15.0308 20.0654 13.6342 20.9332 11.4749Z" fill="#FD8223"/>
</svg>
