<svg width="63" height="39" viewBox="0 0 63 39" fill="none" xmlns="http://www.w3.org/2000/svg">
<path d="M58.9448 19.2167C57.8929 18.4068 56.7334 17.7948 55.5045 17.3896C56.5678 17.1395 57.6662 16.936 58.6763 16.7918C59.9141 16.6153 60.6974 15.3656 60.3108 14.1723C58.9861 10.0915 58.6236 8.28337 56.6461 6.01453L51.9945 0.678338C51.3592 -0.0508983 50.2988 -0.212687 49.4742 0.293081L48.0219 1.18506C47.1926 1.69415 46.8557 2.74933 47.2386 3.63988C47.6167 4.52047 48.1453 6.14358 47.7467 7.668L47.4877 6.87377C47.3121 6.33526 46.9558 5.86602 46.4852 5.55194L43.4102 3.50039C42.2483 2.72514 40.6717 3.0397 39.8959 4.20211C39.1188 5.3669 39.4324 6.93924 40.5977 7.7164L42.4713 8.96611C42.4105 8.95899 42.3498 8.95235 42.2886 8.94808C38.1732 6.24417 35.6078 5.78394 34.0056 5.3892C30.0932 4.42558 26.3934 3.51558 21.6494 9.71148C20.2502 9.48943 16.2866 8.72936 13.6439 6.92074C12.3961 6.06672 10.7991 6.09376 9.62146 6.90318L7.82281 5.23026C6.34583 3.85671 4.90396 4.06594 2.87472 4.06594C1.3299 4.06594 0.484418 5.86508 1.46701 7.05453L5.43156 11.8536C6.3705 12.9904 7.85792 13.5901 9.35719 13.3932L14.9828 18.0339C16.0437 18.9093 17.3679 19.3211 18.6949 19.2366L21.7732 19.0421L22.5679 20.215L18.8771 21.9771C16.8835 19.4089 13.8256 17.8968 10.5476 17.8968C4.73174 17.8963 0 22.628 0 28.4439C0 34.2598 4.73174 38.991 10.5476 38.991C15.8852 38.991 20.3256 35.0251 21.0027 29.8208L21.0397 29.8189L24.7177 35.1014C25.0009 35.5085 25.4663 35.7514 25.9617 35.7514H32.1135C32.6169 35.7514 33.0244 35.3434 33.0244 34.8405C33.0244 34.3371 32.6169 33.9295 32.1135 33.9295H26.1216L22.6291 28.9131H27.4946C29.8864 31.7822 34.5337 30.4508 35.0983 26.8075C37.1702 27.9813 39.6725 28.7124 42.0832 28.6365C41.6661 30.3265 41.3226 32.202 41.1058 33.9295H36.365C35.8621 33.9295 35.4541 34.3376 35.4541 34.8405C35.4541 35.3434 35.8616 35.7514 36.365 35.7514H41.3767C42.1449 35.7514 42.792 35.1764 42.8822 34.4135C42.8855 34.3855 42.8897 34.3565 42.8931 34.3286C43.5549 35.3102 44.3791 36.1851 45.3303 36.8963C52.2446 42.066 62.1882 37.1212 62.1882 28.4439C62.1882 25.7077 61.1363 23.1143 59.2689 21.161C59.6921 20.5196 59.5407 19.675 58.9448 19.2167ZM29.3545 19.9198L30.4799 17.558C30.9624 16.545 31.7785 15.7067 32.7777 15.1971C33.5216 14.818 41.2885 10.835 41.9646 10.7695C42.4736 10.7206 42.9979 10.984 43.4169 11.2777C42.2625 11.7811 35.4327 14.9072 33.9496 16.1057C32.7155 17.103 31.8193 18.4229 31.3368 19.8857C30.6759 19.7865 29.9798 19.8046 29.3545 19.9198V19.9198ZM21.7058 15.6944C22.9868 15.4367 22.5489 15.525 24.7869 15.0747L27.9672 18.5956C27.5691 19.4316 27.1768 20.2548 26.7849 21.078C26.4693 21.3233 26.1439 21.6407 25.9152 21.9073C24.7419 20.1756 23.0604 17.6932 21.7058 15.6944ZM45.4304 12.3959C45.4304 12.3959 45.4309 12.3959 45.4304 12.3959C49.2109 10.8122 50.4502 7.67986 49.2958 3.95967L51.754 7.58972C52.3608 8.48644 53.3268 9.061 54.4043 9.16633L56.7291 9.39407C57.1357 10.2158 57.2695 10.705 57.7108 12.0643C55.6962 12.2522 54.2491 13.2651 54.2491 14.5661C54.2491 14.9865 54.3934 15.3741 54.6576 15.7152C51.8882 16.4013 48.7654 17.549 46.6427 19.4368C45.0964 17.5158 42.5415 15.8448 39.5558 15.0961C41.4175 14.178 43.5545 13.1774 45.4304 12.3959ZM50.621 1.87539C55.9444 7.98209 55.2014 7.12333 55.4614 7.43932C54.5789 7.35297 53.8188 7.38997 53.2623 6.56822L50.1712 2.00349L50.4279 1.84597C50.49 1.80754 50.5716 1.81845 50.621 1.87539V1.87539ZM58.4191 14.9884C58.0737 15.0372 57.6975 15.0961 57.2994 15.1644C56.5033 14.9917 56.1417 14.6871 56.0767 14.5656C56.1825 14.3578 56.9554 13.8791 58.292 13.8554L58.5776 14.7345C58.6155 14.8508 58.5401 14.9708 58.4191 14.9884V14.9884ZM49.4159 23.2538C49.1103 22.3173 49.3072 22.9212 48.4556 20.3103C48.8285 20.0337 49.2417 19.7675 49.6939 19.5137C50.2965 21.3608 52.0192 26.6433 52.5345 28.2233C52.6559 28.5967 52.4529 28.9985 52.078 29.1209C51.6989 29.2443 51.3013 29.036 51.1804 28.6645L49.4159 23.2538V23.2538ZM52.3902 21.9054L51.3507 18.7176L51.5386 18.636C53.4781 18.5658 55.4875 19.0782 57.2505 20.2439L52.3902 21.9054ZM44.576 8.41479C44.5129 8.22027 44.3857 8.05326 44.2154 7.93987L41.6087 6.20052C41.2809 5.98179 41.1936 5.54007 41.4113 5.21318C41.6296 4.88628 42.0727 4.79803 42.3992 5.0158L45.4736 7.06734C45.606 7.15559 45.7061 7.28749 45.7555 7.43884L46.4804 9.66119C46.1179 9.97622 45.7137 10.2362 45.2824 10.4568C45.2634 10.4383 45.2445 10.4208 45.2241 10.4018L44.576 8.41479ZM33.5696 7.15796C35.141 7.54512 36.6559 7.75198 39.905 9.62418C37.8188 10.5949 34.0027 12.5278 31.9502 13.574C30.5952 14.2648 29.4888 15.4011 28.835 16.7742L28.815 16.816L23.2345 10.6381C27.1711 5.58183 29.8759 6.24844 33.5696 7.15796V7.15796ZM12.6148 8.42428C15.7547 10.5731 20.3095 11.3607 21.6014 11.5481C22.2254 12.2389 21.8002 11.7682 23.3659 13.5019L20.004 14.1785C19.1822 14.3436 18.341 14.1334 17.6938 13.6015L11.1056 8.18611C11.5961 8.03523 12.1532 8.10782 12.6148 8.42428ZM6.83642 10.6931L2.8695 5.89639C2.8695 5.89354 2.87187 5.88832 2.86903 5.88785H2.87519C4.89163 5.88785 5.68966 5.73413 6.58211 6.56395C9.71683 9.47947 8.29868 8.23687 11.4586 10.8345C10.1301 11.2833 10.5068 11.1562 9.35767 11.5448C8.43011 11.7606 7.44372 11.4285 6.83642 10.6931ZM16.1424 16.6281L11.4529 12.7598C12.0806 12.5478 11.7005 12.6759 13.1163 12.1976L16.5371 15.0092C17.4215 15.7361 18.5626 16.1209 19.744 16.0469C20.3408 16.9275 20.1582 16.6584 20.5871 17.2914C18.6148 17.4161 17.4286 17.6894 16.1424 16.6281ZM9.31449 26.5423C8.62369 26.872 8.17675 27.5799 8.17675 28.3457C8.17675 29.4825 9.12993 30.3972 10.2724 30.3417L15.146 30.1054C14.4618 32.0042 12.6442 33.3331 10.5476 33.3331C7.85175 33.3331 5.65835 31.1397 5.65835 28.4439C5.65835 24.4243 10.2862 22.1085 13.4963 24.5458L9.31449 26.5423ZM19.1504 29.9109C18.452 34.0538 14.8509 37.1691 10.5476 37.1691C5.73616 37.1691 1.82191 33.2553 1.82191 28.4439C1.82191 23.6325 5.73616 19.7187 10.5476 19.7187C13.1244 19.7187 15.5374 20.8479 17.1866 22.7841L15.2855 23.6918C11.1008 19.5099 3.83597 22.4568 3.83597 28.4439C3.83597 32.1446 6.84685 35.1551 10.5476 35.1551C13.6809 35.1551 16.3611 32.9925 17.0732 30.012C17.9135 29.9707 17.4632 29.9925 19.1504 29.9109ZM22.0441 27.0908C21.4207 27.0908 20.8803 27.4689 20.6483 28.014L10.1842 28.5222C10.0836 28.5283 9.99913 28.4467 9.99913 28.3457C9.99913 28.2783 10.0385 28.2157 10.0992 28.1867C10.4138 28.0368 23.1833 21.9401 23.6013 21.7408C24.2655 22.721 24.0947 22.4691 24.8809 23.6291C24.4444 24.7436 24.3694 25.9791 24.6157 27.0908H22.0441ZM26.5045 27.0908C25.5665 24.2483 27.8932 21.2972 30.9615 21.6763C30.9392 21.9059 30.9235 22.2129 30.9235 22.4568C30.9235 23.0512 31.2718 23.594 31.816 23.8374C31.8193 23.8393 31.8226 23.8412 31.8264 23.8426C32.8783 24.3043 33.4946 25.4472 33.2887 26.5911C32.9314 28.5677 30.367 29.4915 28.8013 27.6349C28.51 27.2895 28.092 27.0908 27.6422 27.0908H26.5045ZM34.806 24.4518C34.3932 23.4787 33.6213 22.6878 32.7488 22.2632C32.7891 20.9456 33.2408 19.6622 34.0317 18.6198C34.9607 17.3929 35.9689 16.9222 36.7261 16.5289C39.9605 16.6039 43.563 18.3385 45.3925 20.7928C44.1058 22.4952 43.2105 24.7389 42.5918 26.7805C39.9334 27.0462 36.9273 26.0204 34.806 24.4518V24.4518ZM51.6401 37.1691C47.872 37.1691 44.5788 34.8006 43.3765 31.2522C43.9587 28.2162 45.0727 24.1045 46.9938 21.7033L47.4758 23.1817C42.5182 27.0941 45.2857 35.1551 51.6401 35.1551C54.2563 35.1551 56.6513 33.6173 57.7425 31.2375C57.9523 30.7801 57.7511 30.2392 57.2942 30.0295C56.8368 29.8198 56.2959 30.0205 56.0862 30.4779C55.291 32.2125 53.546 33.3331 51.6401 33.3331C48.9443 33.3331 46.7513 31.1397 46.7513 28.4439C46.7513 27.169 47.2391 25.9753 48.0945 25.0781L49.4481 29.2296C49.8846 30.5671 51.3151 31.2859 52.6431 30.8532C53.9749 30.4186 54.7008 28.9895 54.2667 27.6582L52.9914 23.7482C54.5272 24.189 55.7655 25.3609 56.2784 26.8948C56.4378 27.3721 56.954 27.6297 57.4308 27.4703C57.9081 27.3104 58.1658 26.7947 58.0063 26.3174C57.5205 24.8632 56.5597 23.6448 55.3171 22.8301L57.5831 22.0558C63.3373 27.4072 59.5758 37.1691 51.6401 37.1691V37.1691Z" fill="#933E00"/>
</svg>
