<svg width="51" height="52" viewBox="0 0 51 52" fill="none" xmlns="http://www.w3.org/2000/svg">
<path d="M41.6367 26.3938C41.6367 26.945 41.1908 27.3919 40.6406 27.3919H26.4961V41.5651C26.4961 42.1163 26.0501 42.5632 25.5 42.5632C24.9499 42.5632 24.5039 42.1163 24.5039 41.5651V27.3919H10.3594C9.80923 27.3919 9.36328 26.945 9.36328 26.3938C9.36328 25.8425 9.80923 25.3957 10.3594 25.3957H24.5039V11.2225C24.5039 10.6713 24.9499 10.2244 25.5 10.2244C26.0501 10.2244 26.4961 10.6713 26.4961 11.2225V25.3957H40.6406C41.1908 25.3957 41.6367 25.8425 41.6367 26.3938ZM51 26.3938C51 40.483 39.5608 51.9454 25.5 51.9454C11.4392 51.9454 0 40.483 0 26.3938C0 12.3046 11.4392 0.842163 25.5 0.842163C39.5608 0.842163 51 12.3046 51 26.3938ZM49.0078 26.3938C49.0078 13.4053 38.4622 2.83838 25.5 2.83838C12.5378 2.83838 1.99219 13.4053 1.99219 26.3938C1.99219 39.3823 12.5378 49.9492 25.5 49.9492C38.4622 49.9492 49.0078 39.3823 49.0078 26.3938Z" fill="#933E00"/>
</svg>
