<svg width="1440" height="1130" viewBox="0 0 1440 1130" fill="none" xmlns="http://www.w3.org/2000/svg">
<path fill-rule="evenodd" clip-rule="evenodd" d="M1219.15 1102.51C1110.34 1071.99 998.112 1016.82 922.016 946.491C854.4 883.988 822.56 810.199 794.96 746.214C766.672 680.674 742.848 625.48 689.504 603.527C615.936 573.25 536.288 602.638 456.464 632.099C286.112 694.972 114.992 758.068 0 243.572V239.794C114.784 756.907 285.904 693.762 456.288 630.889C536.192 601.378 615.952 571.966 689.712 602.317C743.36 624.394 767.248 679.785 795.632 745.523C823.184 809.409 854.976 883.074 922.432 945.405C998.448 1015.66 1110.56 1070.78 1219.3 1101.3C1300.16 1124 1379.14 1133.06 1440 1124.64V1125.88C1379.06 1134.3 1300.03 1125.21 1219.15 1102.51V1102.51ZM456.288 642.273C536.192 612.787 615.952 583.351 689.712 613.701C743.36 635.778 767.248 691.169 795.632 756.932C823.184 820.794 854.976 894.459 922.432 956.814C998.448 1027.07 1110.56 1082.19 1219.3 1112.69C1244.86 1119.85 1270.24 1125.68 1294.91 1130H1287.97C1265.44 1125.83 1242.37 1120.42 1219.15 1113.92C1110.34 1083.38 998.112 1028.21 922.016 957.876C854.4 895.397 822.56 821.584 794.96 757.624C766.672 692.083 742.848 636.865 689.504 614.911C615.936 584.635 536.288 614.022 456.464 643.483C286.112 706.357 114.992 769.452 0 254.956V251.178C114.784 768.292 285.904 705.147 456.288 642.273V642.273ZM456.288 653.658C536.192 624.172 615.952 594.735 689.712 625.085C743.36 647.163 767.248 702.554 795.632 768.317C823.184 832.178 854.976 905.843 922.432 968.198C998.448 1038.46 1110.56 1093.57 1219.3 1124.07C1226.75 1126.16 1234.19 1128.14 1241.6 1130H1236.62C1230.81 1128.5 1224.99 1126.94 1219.15 1125.31C1110.34 1094.76 998.112 1039.59 922.016 969.26C854.4 906.782 822.56 832.968 794.96 769.008C766.672 703.467 742.848 648.249 689.504 626.295C615.936 596.019 536.288 625.406 456.464 654.868C286.112 717.741 114.992 780.837 0 266.341V262.562C114.784 779.676 285.904 716.531 456.288 653.658V653.658ZM456.288 665.042C536.192 635.556 615.952 606.12 689.712 636.494C743.36 658.572 767.248 713.938 795.632 779.701C823.184 843.562 854.976 917.252 922.432 979.583C994.112 1045.84 1097.89 1098.61 1200.66 1130H1196.53C1094.98 1098.44 992.848 1046.11 922.016 980.644C854.4 918.166 822.56 844.353 794.96 780.392C766.672 714.852 742.848 659.658 689.504 637.68C615.936 607.404 536.288 636.791 456.464 666.252C286.112 729.126 114.992 792.221 0 277.75V273.947C114.784 791.061 285.904 727.915 456.288 665.042V665.042ZM456.288 676.426C536.192 646.94 615.952 617.504 689.712 647.879C743.36 669.956 767.248 725.323 795.632 791.085C823.184 854.947 854.976 928.637 922.432 990.967C986.048 1049.77 1074.94 1097.97 1166 1130H1162.38C1072.46 1097.95 984.912 1050.16 922.016 992.029C854.4 929.55 822.56 855.737 794.96 791.777C766.672 726.236 742.848 671.043 689.504 649.089C615.936 618.788 536.288 648.2 456.464 677.636C286.112 740.51 114.992 803.606 0 289.134V285.331C114.784 802.445 285.904 739.3 456.288 676.426V676.426ZM456.288 687.835C536.192 658.325 615.952 628.913 689.712 659.263C743.36 681.341 767.248 736.732 795.632 802.47C823.184 866.331 854.976 940.021 922.432 1002.35C978.912 1054.56 1055.31 1098.39 1135.46 1130H1132.21C1053.1 1098.46 977.84 1055.03 922.016 1003.41C854.4 940.935 822.56 867.146 794.96 803.161C766.672 737.621 742.848 682.427 689.504 660.473C615.936 630.197 536.288 659.584 456.464 689.045C286.112 751.894 114.992 814.99 0 300.519V296.716C114.784 813.829 285.904 750.684 456.288 687.835V687.835ZM456.288 699.22C536.192 669.709 615.952 640.297 689.712 670.648C743.36 692.725 767.248 748.116 795.632 813.854C823.184 877.74 854.976 951.406 922.432 1013.74C972.416 1059.94 1038 1099.58 1107.97 1130H1105.01C1036 1099.72 971.408 1060.46 922.016 1014.82C854.4 952.319 822.56 878.531 794.96 814.546C766.672 749.005 742.848 693.812 689.504 671.858C615.936 641.582 536.288 670.969 456.464 700.43C286.112 763.303 114.992 826.399 0 311.903V308.125C114.784 825.214 285.904 762.093 456.288 699.22V699.22ZM456.288 710.604C536.192 681.118 615.952 651.682 689.712 682.032C743.36 704.109 767.248 759.5 795.632 825.263C823.184 889.125 854.976 962.79 922.432 1025.12C966.384 1065.77 1022.42 1101.33 1082.88 1130H1080.16C1020.59 1101.5 965.424 1066.31 922.016 1026.21C854.4 963.728 822.56 889.915 794.96 825.93C766.672 760.414 742.848 705.196 689.504 683.242C615.936 652.966 536.288 682.353 456.464 711.814C286.112 774.688 114.992 837.784 0 323.287V319.509C114.784 836.623 285.904 773.478 456.288 710.604V710.604ZM456.288 721.989C536.192 692.503 615.952 663.066 689.712 693.417C743.36 715.494 767.248 770.885 795.632 836.648C823.184 900.509 854.976 974.174 922.432 1036.53C960.736 1071.94 1008.22 1103.5 1059.82 1130H1057.28C1006.51 1103.7 959.808 1072.51 922.016 1037.59C854.4 975.113 822.56 901.299 794.96 837.339C766.672 771.799 742.848 716.58 689.504 694.627C615.936 664.35 536.288 693.738 456.464 723.199C286.112 786.072 114.992 849.168 0 334.672V330.893C114.784 848.007 285.904 784.862 456.288 721.989V721.989ZM1219.15 1091.13C1110.34 1060.61 998.112 1005.44 922.016 935.082C854.4 872.604 822.56 798.815 794.96 734.83C766.672 669.29 742.848 614.096 689.504 592.142C615.936 561.866 536.288 591.253 456.464 620.714C286.112 683.563 114.992 746.684 0 232.187V228.409C114.784 745.498 285.904 682.378 456.288 619.504C536.192 589.994 615.952 560.582 689.712 590.932C743.36 613.009 767.248 668.4 795.632 734.139C823.184 798 854.976 871.69 922.432 934.02C998.448 1004.28 1110.56 1059.4 1219.3 1089.92C1300.16 1112.59 1379.14 1121.68 1440 1113.23V1114.49C1379.06 1122.91 1300.03 1113.82 1219.15 1091.13V1091.13ZM456.288 733.373C536.192 703.887 615.952 674.451 689.712 704.826C743.36 726.903 767.248 782.269 795.632 848.032C823.184 911.893 854.976 985.583 922.432 1047.91C955.392 1078.39 995.152 1106 1038.48 1130H1036.1C993.552 1106.24 954.496 1079 922.016 1048.98C854.4 986.497 822.56 912.684 794.96 848.724C766.672 783.183 742.848 727.99 689.504 706.011C615.936 675.735 536.288 705.122 456.464 734.583C286.112 797.457 114.992 860.552 0 346.081V342.278C114.784 859.392 285.904 796.247 456.288 733.373V733.373ZM0 217C114.784 734.114 285.904 670.969 456.288 608.095C536.192 578.609 615.952 549.173 689.712 579.548C743.36 601.625 767.248 656.991 795.632 722.754C823.184 786.616 854.976 860.306 922.432 922.636C998.448 992.893 1110.56 1048.01 1219.3 1078.51C1300.16 1101.21 1379.14 1110.29 1440 1101.85V1103.11C1379.06 1111.53 1300.03 1102.44 1219.15 1079.75C1110.34 1049.22 998.112 994.054 922.016 923.698C854.4 861.219 822.56 787.431 794.96 723.446C766.672 657.905 742.848 602.712 689.504 580.758C615.936 550.457 536.288 579.869 456.464 609.305C286.112 672.179 114.992 735.275 0 220.803V217Z" fill="#EA7500" fill-opacity="0.3"/>
<path fill-rule="evenodd" clip-rule="evenodd" d="M844.909 133.035C692.645 203.545 540.703 273.915 387.439 258.851C276.007 247.901 216.275 179.623 145.384 98.5815C117.582 66.7788 88.0715 33.0233 53.0131 0H55.4642C89.9744 32.6397 119.131 65.9768 146.578 97.3611C217.243 178.158 276.749 246.192 387.601 257.072C540.445 272.102 692.193 201.836 844.264 131.396C1041.23 40.2068 1238.71 -51.1564 1440 41.5667V43.659C1238.91 -49.3431 1041.65 41.9155 844.909 133.035ZM847.425 148.866C695.161 219.376 543.219 289.747 389.955 274.682C278.523 263.733 218.791 195.489 147.9 114.413C115.647 77.5193 81.0405 37.975 38.1769 0H40.7571C82.9756 37.6263 117.163 76.7172 149.093 113.228C219.759 193.99 279.264 262.059 390.116 272.939C542.961 287.968 694.709 217.668 846.78 147.262C1042.91 56.422 1239.58 -34.5228 1440 56.2825V58.3748C1239.78 -32.7094 1043.33 58.1307 847.425 148.866ZM849.94 164.733C697.676 235.243 545.735 305.613 392.471 290.549C281.038 279.599 221.307 211.321 150.416 130.28C113.648 88.2248 73.8158 42.7175 22.1796 0H24.8564C75.7832 42.3688 115.164 87.4227 151.609 129.059C222.274 209.856 281.812 277.891 392.632 288.77C545.477 303.8 697.225 233.534 849.295 163.094C1044.62 72.6721 1240.45 -17.889 1440 70.9983V73.0906C1240.65 -16.1106 1045.04 74.3808 849.94 164.733ZM852.456 180.564C700.192 251.074 548.25 321.445 394.986 306.381C283.554 295.431 223.822 227.187 152.931 146.111C111.551 98.8257 66.3656 47.1462 4.79553 0H7.60144C68.3329 46.8323 113.099 98.0237 154.125 144.926C224.79 225.688 284.328 293.757 395.148 304.637C547.992 319.667 699.74 249.366 851.811 178.96C1046.33 88.8873 1241.32 -1.32509 1440 85.714V87.8063C1241.52 0.488228 1046.71 90.596 852.456 180.564ZM1440 132.058C1244.13 50.2846 1051.81 139.277 860.003 228.129C707.739 298.639 555.797 369.01 402.533 353.945C291.101 342.995 231.402 274.717 160.478 193.676C104.585 129.757 41.7246 57.8866 -59 0H-55.5812C43.8211 57.7471 106.197 129.024 161.672 192.455C232.337 273.253 291.875 341.287 402.695 352.202C555.539 367.196 707.287 296.93 859.358 226.49C1051.39 137.568 1243.94 48.4713 1440 129.966V132.058ZM857.487 212.262C705.223 282.772 553.282 353.143 400.018 338.079C288.585 327.129 228.886 258.886 157.963 177.844C107.068 119.644 50.4006 54.8528 -35.3911 0H-32.1981C52.4325 54.6087 108.649 118.877 159.156 176.624C229.821 257.421 289.359 325.455 400.179 336.335C553.024 351.365 704.804 281.064 856.842 210.658C1049.71 121.353 1243.07 31.8725 1440 115.215V117.238C1243.26 33.6509 1050.13 123.061 857.487 212.262ZM854.972 196.431C702.708 266.941 550.766 337.311 397.502 322.247C286.07 311.297 226.37 243.019 155.447 161.978C109.39 109.322 58.5604 51.2261 -14.298 0H-11.2985C60.5601 50.9472 110.938 108.52 156.64 160.757C227.306 241.554 286.811 309.589 397.663 320.503C550.508 335.498 702.288 265.232 854.327 194.792C1048 105.137 1242.2 15.3086 1440 100.465V102.557C1242.39 17.0871 1048.42 106.846 854.972 196.431ZM842.393 117.168C690.129 187.678 538.188 258.049 384.924 242.984C273.491 232.035 213.76 163.791 142.869 82.7151C119.518 56.0035 94.909 27.8972 66.8494 0H69.2683C96.812 27.5136 121.033 55.2015 144.062 81.5294C214.727 162.292 274.233 230.361 385.085 241.241C537.929 256.27 689.678 185.969 841.748 115.564C942.699 68.8013 1043.81 22.0387 1145.47 0H1154.37C1049.91 21.0972 946.085 69.1501 842.393 117.168ZM839.878 101.336C687.613 171.846 535.672 242.217 382.408 227.153C270.975 216.203 211.244 147.925 140.353 66.8835C121.421 45.2283 101.65 22.6316 79.9116 0H82.266C103.553 22.248 122.936 44.3914 141.546 65.6629C212.211 146.46 271.717 214.494 382.569 225.409C535.414 240.404 687.162 170.138 839.232 99.6974C920.154 62.2455 1001.14 24.7587 1082.45 0H1088.64C1005.46 24.6541 922.605 63.0127 839.878 101.336ZM837.362 85.4699C685.098 155.98 533.156 226.35 379.892 211.286C268.46 200.336 208.728 132.093 137.837 51.0169C123.324 34.4181 108.326 17.2962 92.3289 0H94.6188C110.229 16.8778 124.839 33.616 139.031 49.8313C209.696 130.594 269.202 198.663 380.053 209.542C532.898 224.572 684.646 154.271 836.717 83.8658C901.835 53.702 966.985 23.5382 1032.33 0H1037.59C970.694 23.7474 903.996 54.6087 837.362 85.4699ZM834.846 69.6382C682.582 140.148 530.64 210.519 377.376 195.454C265.944 184.505 206.212 116.226 135.321 35.1853C125.259 23.6777 114.97 11.8912 104.262 0H106.552C116.841 11.5076 126.775 22.8408 136.515 33.9648C207.18 114.762 266.686 182.796 377.538 193.711C530.382 208.706 682.13 138.44 834.201 67.9993C885.483 44.2868 936.764 20.5393 988.175 0H992.883C940.118 20.888 887.45 45.2631 834.846 69.6382ZM832.33 53.7718C680.066 124.282 528.125 194.652 374.861 179.588C263.428 168.638 203.697 100.395 132.806 19.3188C127.226 12.9722 121.582 6.52096 115.841 0H118.099C123.485 6.1025 128.774 12.1353 133.999 18.1331C204.664 98.9303 264.17 166.964 375.022 177.844C527.867 192.874 679.615 122.573 831.685 52.1677C870.227 34.3135 908.769 16.4942 947.343 0H951.794C911.93 16.9126 872.13 35.3596 832.33 53.7718ZM1357.18 0H1365.37C1390.2 6.3466 1415.07 15.204 1440 26.8859V29.013C1412.33 16.006 1384.72 6.48609 1357.18 0ZM1406.49 0H1411.94C1421.29 3.6615 1430.65 7.70656 1440 12.1701V14.3322C1428.81 8.96201 1417.65 4.21944 1406.49 0Z" fill="#EA7500" fill-opacity="0.3"/>
</svg>
