<svg width="136" height="142" viewBox="0 0 136 142" fill="none" xmlns="http://www.w3.org/2000/svg">
<path d="M95.1956 37.0066V16.0629C95.1956 11.8012 91.7281 8.33398 87.4664 8.33398H48.3911C44.1293 8.33398 40.6621 11.8012 40.6621 16.0629V37.0066C40.6621 41.2683 44.1293 44.7355 48.3911 44.7355H52.5203C53.6712 44.7355 54.6038 43.8027 54.6038 42.652C54.6038 41.5014 53.6712 40.5685 52.5203 40.5685H48.3911C46.427 40.5685 44.8291 38.9706 44.8291 37.0066V16.0629C44.8291 14.0989 46.427 12.501 48.3911 12.501H87.4664C89.4305 12.501 91.0284 14.0989 91.0284 16.0629V37.0066C91.0284 38.9706 89.4305 40.5685 87.4664 40.5685H61.3993C60.2484 40.5685 59.3158 41.5014 59.3158 42.652C59.3158 43.8027 60.2484 44.7355 61.3993 44.7355H87.4664C91.7281 44.7358 95.1956 41.2686 95.1956 37.0066Z" fill="white"/>
<path d="M56.3726 20.488C55.2216 20.488 54.2891 21.4209 54.2891 22.5715V31.7492C54.2891 32.8999 55.2216 33.8327 56.3726 33.8327C57.5235 33.8327 58.4561 32.8999 58.4561 31.7492V22.5715C58.4561 21.4209 57.5232 20.488 56.3726 20.488Z" fill="white"/>
<path d="M81.5713 31.7492V22.5715C81.5713 21.4209 80.6387 20.488 79.4878 20.488C78.3369 20.488 77.4043 21.4209 77.4043 22.5715V31.7492C77.4043 32.8999 78.3369 33.8327 79.4878 33.8327C80.6387 33.8327 81.5713 32.8999 81.5713 31.7492V31.7492Z" fill="white"/>
<path d="M87.0333 86.9011C87.0333 85.7505 86.1007 84.8176 84.9498 84.8176H63.8726C62.7216 84.8176 61.7891 85.7505 61.7891 86.9011C61.7891 88.0518 62.7216 88.9846 63.8726 88.9846H84.9498C86.1007 88.9846 87.0333 88.0518 87.0333 86.9011Z" fill="white"/>
<path d="M54.9927 84.8176H49.8179C48.6669 84.8176 47.7344 85.7505 47.7344 86.9011C47.7344 88.0518 48.6669 88.9846 49.8179 88.9846H54.9927C56.1437 88.9846 57.0762 88.0518 57.0762 86.9011C57.0762 85.7505 56.1437 84.8176 54.9927 84.8176Z" fill="white"/>
<path d="M104.601 68.7592C103.45 68.7592 102.518 69.692 102.518 70.8427V83.4045C102.518 84.5551 103.45 85.488 104.601 85.488C105.752 85.488 106.685 84.5551 106.685 83.4045V70.8427C106.685 69.692 105.752 68.7592 104.601 68.7592V68.7592Z" fill="white"/>
<path d="M31.5366 68.7592C30.3857 68.7592 29.4531 69.692 29.4531 70.8427V83.4045C29.4531 84.5551 30.3857 85.488 31.5366 85.488C32.6876 85.488 33.6201 84.5551 33.6201 83.4045V70.8427C33.6201 69.692 32.6876 68.7592 31.5366 68.7592V68.7592Z" fill="white"/>
<path d="M124.539 65.5403H115.304C115.289 65.5403 115.274 65.5422 115.259 65.5425C112.712 60.9246 107.796 57.7888 102.16 57.7888H84.8313V53.0698H87.4677C95.0905 53.0698 101.485 47.7308 103.121 40.5972H106.286C110.113 40.5972 113.226 37.4841 113.226 33.658V19.4118C113.226 15.5857 110.113 12.4727 106.286 12.4727H103.121C101.485 5.33904 95.0905 0 87.4674 0H48.392C40.7692 0 34.3742 5.33904 32.7386 12.4729H29.5733C25.7472 12.4729 22.6341 15.5857 22.6341 19.4121V33.658C22.6341 37.4841 25.7469 40.5972 29.5733 40.5972H32.7386C34.3742 47.7308 40.7692 53.0698 48.392 53.0698H51.3062V57.7888H33.9778C28.339 57.7888 23.4206 60.928 20.8745 65.5494C20.8151 65.5444 20.7551 65.5403 20.6943 65.5403H11.4602C5.36302 65.5403 0.402344 70.5007 0.402344 76.5978V87.0451C0.402344 88.738 1.47549 90.1814 2.97588 90.7412V93.4983C2.97588 96.1291 4.52851 98.4032 6.76535 99.4549V113.676C6.76535 118.944 8.81691 123.897 12.5422 127.622L13.1048 128.185C12.243 131.286 13.1181 134.751 15.6605 137.057L18.3755 139.518C18.9849 140.071 19.7622 140.37 20.5795 140.37C20.634 140.37 20.689 140.369 20.7437 140.366C21.6207 140.324 22.4283 139.942 23.018 139.291L31.7979 129.608C32.3874 128.958 32.6885 128.117 32.6458 127.24C32.603 126.363 32.221 125.555 31.5707 124.966L28.8557 122.504C27.1931 120.996 25.0621 120.198 22.8297 120.231L21.3818 118.783C20.0178 117.419 19.2666 115.605 19.2666 113.676V99.4552C19.5678 99.3135 19.857 99.1505 20.1311 98.9666C22.2558 104.175 27.2342 107.926 33.1147 108.263V110.765C33.1147 116.139 37.4867 120.511 42.8608 120.511H47.735V122.977C47.735 126.528 50.6236 129.417 54.1744 129.417H55.9604V134.458C55.9604 138.617 59.3437 142 63.5021 142H72.3587C76.5173 142 79.9004 138.617 79.9004 134.458V129.417H81.6864C85.2369 129.417 88.1258 126.528 88.1258 122.977V120.511H93.0001C98.3741 120.511 102.746 116.139 102.746 110.765V108.275C108.72 108.043 113.805 104.291 115.979 99.0377C116.221 99.1924 116.472 99.3324 116.733 99.4552V113.676C116.733 115.605 115.982 117.419 114.618 118.783L113.17 120.231C110.939 120.197 108.807 120.996 107.144 122.504L104.43 124.966C103.779 125.555 103.397 126.363 103.354 127.24C103.311 128.117 103.613 128.958 104.202 129.608L112.982 139.291C113.571 139.942 114.379 140.324 115.256 140.366C115.311 140.369 115.366 140.37 115.42 140.37C116.237 140.37 117.015 140.071 117.625 139.518L120.339 137.057C122.882 134.751 123.757 131.286 122.895 128.185L123.458 127.622C127.183 123.897 129.235 118.945 129.235 113.676V99.4552C131.471 98.4035 133.024 96.1294 133.024 93.4986V90.7415C134.524 90.1817 135.598 88.7385 135.598 87.0453V76.5978C135.596 70.5007 130.636 65.5403 124.539 65.5403V65.5403ZM124.539 69.7073C128.338 69.7073 131.429 72.7984 131.429 76.5978V86.8259H130.939H117.11V72.7392C117.11 71.7005 117.003 70.6865 116.801 69.707H124.539V69.7073ZM71.335 70.6735V76.9731H64.5244V70.6735C64.5244 69.2303 63.3502 68.0563 61.9073 68.0563H56.646C52.6282 68.0563 49.1482 65.5555 47.7711 61.9561H88.3661C86.989 65.5555 83.509 68.0563 79.4912 68.0563H73.9521C72.5092 68.056 71.335 69.2303 71.335 70.6735V70.6735ZM109.058 19.4118V33.6577C109.058 35.1862 107.815 36.4299 106.286 36.4299H103.53V16.6399H106.286C107.815 16.6399 109.058 17.8834 109.058 19.4118V19.4118ZM26.8014 33.6577V19.4118C26.8014 17.8834 28.0451 16.6397 29.5736 16.6397H32.3294V36.4296H29.5736C28.0448 36.4299 26.8014 35.1864 26.8014 33.6577V33.6577ZM36.4961 37.0066V16.063C36.4961 9.50354 41.8326 4.167 48.392 4.167H87.4674C94.0268 4.167 99.3633 9.50354 99.3633 16.063V37.0066C99.3633 43.566 94.0268 48.9025 87.4674 48.9025H48.392C41.8326 48.9028 36.4961 43.5663 36.4961 37.0066ZM55.4734 53.0698H80.6643V57.7888H55.4734V53.0698ZM18.8885 93.4983C18.8885 94.8285 17.8062 95.9108 16.4761 95.9108H9.5553C8.22519 95.9108 7.14288 94.8285 7.14288 93.4983V90.9929H18.8885V93.4983ZM4.56934 76.5978C4.56934 72.7984 7.66043 69.7073 11.4602 69.7073H19.3369C19.1344 70.6868 19.0274 71.7008 19.0274 72.7395V86.8262H5.05938H4.56934V76.5978ZM10.9324 113.676V100.077H15.0994V113.676C15.0994 116.645 16.2303 119.438 18.2843 121.571C17.614 121.993 16.9959 122.508 16.4495 123.111L15.2541 124.429C12.4666 121.521 10.9324 117.718 10.9324 113.676ZM28.119 127.462L20.522 135.84L18.4593 133.97C16.5736 132.26 16.4303 129.335 18.1402 127.449L19.5358 125.91C20.3639 124.996 21.4982 124.46 22.73 124.4C22.8072 124.396 22.8841 124.394 22.9608 124.394C24.1084 124.394 25.2002 124.814 26.0561 125.591L28.119 127.462ZM60.1266 134.458V129.417H65.8462V137.833H63.5016C61.6409 137.833 60.1266 136.319 60.1266 134.458ZM75.7328 134.458C75.7328 136.319 74.2188 137.833 72.3581 137.833H70.0135V129.417H75.7331V134.458H75.7328ZM92.9995 116.344H86.0445C86.0437 116.344 86.0428 116.344 86.0417 116.344C86.0406 116.344 86.0401 116.344 86.0389 116.344H63.8719C62.721 116.344 61.7884 117.277 61.7884 118.427C61.7884 119.578 62.721 120.511 63.8719 120.511H83.9582V122.977C83.9582 124.23 82.939 125.25 81.6858 125.25H77.8163H58.0431H54.1736C52.9205 125.25 51.9012 124.23 51.9012 122.977V120.511H54.9926C56.1435 120.511 57.0761 119.578 57.0761 118.427C57.0761 117.277 56.1435 116.344 54.9926 116.344H49.8205C49.8196 116.344 49.8188 116.344 49.8177 116.344C49.8166 116.344 49.816 116.344 49.8149 116.344H42.8599C39.7836 116.344 37.2809 113.841 37.2809 110.765V108.289H98.578V110.765C98.5786 113.841 96.0759 116.344 92.9995 116.344ZM102.159 104.122H33.9781C28.0321 104.122 23.1947 99.2847 23.1947 93.3389V72.7392C23.1947 66.7931 28.0321 61.9558 33.9781 61.9558H43.4041C44.9293 67.9227 50.3269 72.223 56.6463 72.223H60.3577V76.9731H45.4404C42.6249 76.9731 40.3342 79.2639 40.3342 82.0794V91.7232C40.3342 94.5387 42.6249 96.8295 45.4404 96.8295H75.0483C76.1993 96.8295 77.1318 95.8966 77.1318 94.746C77.1318 93.5953 76.1993 92.6625 75.0483 92.6625H45.4404C44.9226 92.6625 44.5012 92.241 44.5012 91.7232V82.0794C44.5012 81.5616 44.9226 81.1401 45.4404 81.1401H90.5585C91.0763 81.1401 91.4977 81.5616 91.4977 82.0794V91.7232C91.4977 92.241 91.0763 92.6625 90.5585 92.6625H83.9277C82.7767 92.6625 81.8442 93.5953 81.8442 94.746C81.8442 95.8966 82.7767 96.8295 83.9277 96.8295H90.5585C93.374 96.8295 95.6647 94.5387 95.6647 91.7232V82.0794C95.6647 79.2639 93.374 76.9731 90.5585 76.9731H75.5023V72.223H79.4915C85.8109 72.223 91.2082 67.9227 92.7336 61.9558H102.16C108.106 61.9558 112.943 66.7934 112.943 72.7392V88.9094V93.3389C112.943 99.2847 108.105 104.122 102.159 104.122V104.122ZM117.11 90.9929H128.856V93.4983C128.856 94.8285 127.773 95.9108 126.443 95.9108H119.522C118.192 95.9108 117.11 94.8285 117.11 93.4983V93.3389V90.9929H117.11ZM117.539 133.969L115.476 135.84L107.879 127.461L109.942 125.591C110.856 124.763 112.039 124.339 113.268 124.4C114.5 124.46 115.634 124.996 116.462 125.91L117.858 127.449C119.568 129.335 119.425 132.26 117.539 133.969ZM120.745 124.429L119.549 123.111C119.002 122.508 118.384 121.994 117.714 121.571C119.768 119.439 120.899 116.645 120.899 113.676V100.077H125.066V113.676C125.066 117.718 123.532 121.521 120.745 124.429V124.429Z" fill="white"/>
</svg>
