<svg width="54" height="39" viewBox="0 0 54 39" fill="none" xmlns="http://www.w3.org/2000/svg">
<path fill-rule="evenodd" clip-rule="evenodd" d="M38.9444 3.23919e-07C38.9342 -2.22204e-05 37.3516 -0.00118209 35.7558 0.947167C34.8139 1.50674 34.0785 2.59867 34.0595 3.8737L30.8744 5.70626C30.1391 6.12946 29.883 7.08662 30.3082 7.82075C30.7334 8.55493 31.6932 8.81125 32.4285 8.38807L34.8436 6.99825C35.9749 11.0821 36.6985 15.5673 37.4078 19.1854C37.9617 21.5592 38.1448 24.2179 37.5301 26.3362C37.4518 26.5944 37.3639 26.8385 37.2703 27.0713H32.912C31.9076 27.0713 31.0969 27.9309 31.0969 28.9785V29.4317H27.0019C25.2981 29.4317 23.9379 28.3205 23.9379 26.2174C23.9379 23.9599 24.5988 22.8341 25.3208 21.7962C26.0428 20.7583 26.9192 19.7561 26.9192 18.1194V13.9371C26.9192 12.0346 25.3585 10.4805 23.4533 10.4805H12.1853C10.2801 10.4805 8.72523 12.0346 8.72523 13.9371V15.4423C7.88394 15.6438 7.08233 15.9461 6.32647 16.3323H3.65627C3.0931 16.3323 2.55487 16.5679 2.16389 16.9754C1.69618 17.463 1.11027 18.1776 0.468803 18.8464C0.00769587 19.3272 -0.123221 20.037 0.120467 20.6556C0.313467 21.1423 0.723407 21.5076 1.21325 21.6436C0.520232 23.1167 0.120467 24.7478 0.120467 26.455V28.375C0.120467 29.0389 0.386077 29.6757 0.856751 30.1446C1.32716 30.6133 1.96669 30.8763 2.63106 30.8763H2.63345C2.8442 31.5177 3.32968 32.0349 3.95574 32.2801C3.94792 32.419 3.94291 32.5579 3.94291 32.6856C3.94291 36.1646 6.78784 38.9999 10.2747 38.9999C13.7616 38.9999 16.6066 36.1646 16.6066 32.6856C16.6066 32.4887 16.5959 32.2748 16.5786 32.0611C16.6838 32.0239 16.7905 31.9894 16.8932 31.947C17.1903 32.9248 18.0811 33.6316 19.1649 33.6316H34.8623C36.0959 33.6316 37.2856 33.294 38.3014 32.6658C38.33 32.7646 38.4685 33.2155 38.8652 33.7074C39.2885 34.232 40.0442 34.7706 41.1137 34.8164C41.9912 37.257 44.3331 39 47.0727 39C50.5596 39 53.4046 36.1647 53.4046 32.6856C53.4046 31.2008 52.8832 29.8365 52.0194 28.7572C52.6469 28.8927 53.361 28.6413 53.6061 28.2167C53.9059 27.7911 53.9405 27.2269 53.6947 26.7686C51.8656 23.3219 48.4821 22.4078 45.9951 22.3171C45.6383 21.3836 44.9346 20.7345 44.2627 20.3517C43.5164 19.9266 43.059 19.8815 42.7785 19.8287C41.5116 15.3172 39.7064 10.6083 38.68 6.16068C39.4021 5.81167 40.2202 5.45209 40.551 4.8314C40.8473 4.25372 40.9739 3.58699 40.9739 2.97676C40.9739 2.31188 40.849 1.64034 40.5463 1.07073C40.2048 0.412821 39.5481 0.0160542 38.9444 0.000137924L38.9444 3.23919e-07ZM39.2648 1.31648C39.3421 1.38502 39.4158 1.48218 39.4943 1.62987C39.6695 1.95956 39.7844 2.47463 39.7844 2.97662C39.7844 3.40364 39.6712 3.93093 39.4896 4.28492C39.4184 4.42379 39.3492 4.5188 39.2799 4.59363C38.9007 3.50974 38.8541 2.33204 39.2648 1.31648H39.2648ZM38.1557 1.43193C37.6336 2.68909 37.806 3.85073 38.2792 5.02479L37.7246 5.30206C37.4782 5.42605 37.3482 5.70341 37.4112 5.97196L37.7922 7.59949L36.4594 8.39633C36.3236 7.86965 36.143 7.2019 35.9142 6.38318L36.4128 6.09546C37.1481 5.67226 37.4042 4.71514 36.979 3.98096C36.648 3.40947 35.9933 3.13283 35.3725 3.23538C35.5648 2.68688 35.9512 2.2216 36.3686 1.97366C37.2727 1.43645 37.6939 1.48385 38.1557 1.43193H38.1557ZM35.595 4.39686C35.7331 4.37657 35.8663 4.44125 35.9445 4.57629C36.0488 4.75642 35.9944 4.95951 35.814 5.06332L34.3379 5.91259L33.9814 5.29511L35.4563 4.44584C35.5014 4.41992 35.5489 4.40369 35.595 4.39693L35.595 4.39686ZM32.9458 5.89043L33.3034 6.50784L31.8297 7.35601C31.6493 7.45994 31.447 7.40555 31.3427 7.22543C31.2384 7.0453 31.2916 6.84232 31.472 6.73853L32.9458 5.89043ZM38.1254 8.79365L41.7218 20.453C41.7905 20.6742 41.9816 20.8363 42.2111 20.8677C42.2111 20.8677 42.9483 20.978 43.6732 21.3909C44.398 21.8038 45.0421 22.4137 45.0421 23.6102C45.0421 24.522 44.4336 25.0322 43.6988 25.3985C43.2083 25.6428 42.7345 25.7638 42.2111 25.8785C42.0392 25.9028 41.8866 26.0002 41.7928 26.1464C41.7928 26.1464 40.3889 28.3227 39.1856 30.189C38.2457 31.6458 36.6337 32.4387 34.8622 32.4387H19.1648C18.4424 32.4387 18.0273 32.0536 17.9812 31.3703C19.7417 30.2123 20.9089 28.2257 20.9089 25.9705V25.966C20.9089 22.5722 18.1369 19.8112 14.7355 19.8112H12.9122C7.34919 19.8112 2.80772 24.1901 2.53783 29.6731C2.22242 29.6505 1.92244 29.5229 1.69785 29.2991C1.4513 29.0534 1.31457 28.7225 1.31457 28.3752V26.4553C1.31457 20.9975 5.75722 16.3325 11.2172 16.3325H25.725V18.1197C25.725 19.3414 25.1126 20.0079 24.3433 21.1138C23.5741 22.2197 22.7449 23.7112 22.7449 26.2177C22.7449 28.8786 24.7267 30.6249 27.0019 30.6249H35.1267C35.9624 30.6249 36.6948 30.1347 37.2796 29.4319C37.8644 28.7291 38.3361 27.7862 38.6706 26.6837C39.2615 24.3973 39.3125 21.756 38.5739 18.9305L36.7472 9.61746L38.1254 8.79365ZM12.1853 11.6735H23.4533C24.7156 11.6735 25.7689 12.6822 25.725 13.9371V15.1383H11.2172C10.7753 15.1383 10.3418 15.1732 9.91351 15.2257V13.9373C9.91351 12.6815 10.9229 11.6736 12.1853 11.6736V11.6735ZM3.65624 17.5254H4.47058C3.42393 18.3554 2.52765 19.3669 1.82368 20.5113H1.63145C1.4621 20.5113 1.30508 20.4076 1.23069 20.2201C1.15634 20.0327 1.20152 19.8097 1.33204 19.6736C2.0152 18.9614 2.62277 18.2242 3.02713 17.8026C3.19984 17.6225 3.42243 17.5254 3.65624 17.5254ZM12.9122 21.0041H14.7355C17.4941 21.0041 19.7147 23.2189 19.7147 25.9659V25.9703C19.7147 28.8908 17.3513 31.2455 14.4186 31.2455H4.77115C4.17394 31.2455 3.70516 30.7768 3.70516 30.1842C3.70516 25.1094 7.81874 21.0039 12.9122 21.0039V21.0041ZM46.228 23.5182C48.4075 23.648 51.1236 24.4643 52.6426 27.3266C52.7175 27.5072 52.5313 27.6203 52.44 27.6086C49.5879 27.3441 46.671 28.4639 44.9898 30.3873C44.2567 31.2442 43.6632 32.1028 43.0745 32.7033C42.4858 33.3039 41.9658 33.633 41.2559 33.633C40.4784 33.633 40.0734 33.3062 39.7938 32.9597C39.4982 32.6096 39.4249 32.2869 39.3242 31.8714C39.6429 31.5623 39.9361 31.2218 40.1852 30.8357C41.3399 29.0448 42.5848 27.1222 42.6911 26.9574C42.9273 26.9171 43.453 26.8566 44.2324 26.4681C45.1702 26.0007 46.2351 25.0805 46.2351 23.6103C46.2351 23.5783 46.2288 23.5499 46.2281 23.5183L46.228 23.5182ZM32.912 28.2644H36.6575C36.561 28.4114 36.4638 28.5498 36.3639 28.6698C35.9185 29.205 35.4855 29.4318 35.1267 29.4318H32.2864V28.9786C32.2864 28.5933 32.6667 28.2644 32.912 28.2644V28.2644ZM50.2683 28.685C51.4496 29.6243 52.2104 31.0618 52.2104 32.6856C52.2104 35.517 49.9159 37.807 47.0727 37.807C44.9235 37.807 43.0914 36.4914 42.3229 34.6324C42.9404 34.4064 43.4686 34.0038 43.9236 33.5396C44.0014 33.4602 44.0742 33.3732 44.1497 33.2903C44.4318 34.6421 45.639 35.6669 47.0727 35.6669C48.7137 35.6669 50.0574 34.3245 50.0574 32.6856C50.0574 31.1564 48.8863 29.8905 47.3965 29.7277C48.1514 29.1711 49.0559 28.7718 50.2683 28.685V28.685ZM47.0727 30.902C48.071 30.902 48.8645 31.6934 48.8645 32.6856C48.8645 33.6778 48.071 34.4728 47.0727 34.4728C46.0744 34.4728 45.2797 33.6778 45.2797 32.6856C45.2797 31.6934 46.0744 30.902 47.0727 30.902ZM15.4007 32.357C15.4067 32.4698 15.4135 32.5857 15.4135 32.6856C15.4135 35.5169 13.1179 37.8069 10.2747 37.8069C7.43145 37.8069 5.13581 35.5169 5.13581 32.6856C5.13581 32.6094 5.14733 32.5252 5.15096 32.4386H7.37147C7.32185 32.6572 7.28992 32.8823 7.28992 33.1131C7.28992 34.7517 8.63397 36.0897 10.2747 36.0897C11.9154 36.0897 13.2606 34.7517 13.2606 33.1131C13.2606 32.8973 13.2393 32.6678 13.2 32.4386H14.4186C14.7534 32.4386 15.0794 32.4061 15.4007 32.357L15.4007 32.357ZM8.61335 32.4386H11.9604C12.0179 32.6623 12.0664 32.9184 12.0664 33.1131C12.0664 34.1043 11.2719 34.8956 10.2747 34.8956C9.27741 34.8956 8.48287 34.1043 8.48287 33.1131C8.48287 32.876 8.53137 32.6465 8.61335 32.4386V32.4386Z" fill="#933E00"/>
</svg>
