<svg width="66" height="39" viewBox="0 0 66 39" fill="none" xmlns="http://www.w3.org/2000/svg">
<path d="M65.5824 34.3689C65.2633 33.9433 64.6595 33.857 64.2335 34.1762L62.8604 35.206C61.4816 36.2401 59.8194 36.8737 58.106 37.0323L55.3626 32.7213C56.0352 31.887 56.2239 30.7384 55.8284 29.7233C58.4987 29.5748 60.626 27.356 60.626 24.649V22.4402C60.626 20.942 59.9702 19.5277 58.8264 18.5601L49.7772 10.903C48.3592 9.70311 46.671 8.88105 44.8758 8.49346L38.6549 1.38397C37.8853 0.504362 36.7735 0 35.6049 0H33.9173C33.5833 0 33.2732 0.172916 33.0977 0.456957C32.9222 0.741126 32.9062 1.09582 33.0556 1.39451L36.4775 8.23846H35.9769C35.4623 8.23846 34.9605 8.29447 34.4764 8.3984L33.1423 7.06427C32.5714 6.49336 31.8121 6.17888 31.0045 6.17888H27.7383C27.2061 6.17888 26.7748 6.61014 26.7748 7.14238C26.7748 7.67462 27.2061 8.10588 27.7383 8.10588H31.0045C31.2972 8.10588 31.5726 8.21996 31.7795 8.42692L32.4985 9.14595C30.3147 10.3691 28.8344 12.7047 28.8344 15.3808V15.6536C28.4944 15.5207 28.1249 15.447 27.7383 15.447H10.2319C10.1953 15.447 10.1655 15.4173 10.1655 15.3807C10.1655 13.7137 8.80924 12.3576 7.14238 12.3576C5.47552 12.3576 4.11929 13.7138 4.11929 15.3807V17.4403C4.11929 18.5898 4.50328 19.6509 5.14921 20.5033V25.0003C2.17803 25.8654 0 28.611 0 31.8576C0 35.7959 3.20397 39 7.14238 39H27.7385C31.6767 39 34.881 35.796 34.881 31.8576C34.881 31.1176 34.7678 30.4035 34.5579 29.7317H48.7345L50.4616 32.4456C51.0197 33.3218 51.9739 33.845 53.0141 33.845C53.2593 33.845 53.5015 33.8135 53.7367 33.7555L55.8478 37.073H40.0962C39.564 37.073 39.1327 37.5043 39.1327 38.0365C39.1327 38.5687 39.564 39 40.0962 39H57.2596C59.6806 39 62.0801 38.2 64.0166 36.7477L65.3897 35.7178C65.8153 35.3986 65.9016 34.7948 65.5824 34.3689ZM47.6453 13.7746C47.8496 13.4442 48.1894 13.2547 48.5777 13.2547H49.5732L52.164 15.4469H48.5777C48.1599 15.4469 47.7843 15.2146 47.5974 14.8409C47.4237 14.4935 47.4412 14.1049 47.6453 13.7746ZM35.4763 1.92688H35.6049C36.2179 1.92688 36.8012 2.19152 37.2047 2.65271L42.0921 8.23833H38.6321L35.4763 1.92688ZM7.14225 14.2846C7.74669 14.2846 8.23833 14.7763 8.23833 15.3807C8.23833 16.4799 9.13259 17.374 10.2317 17.374H27.7383C28.3428 17.374 28.8344 17.8656 28.8344 18.4701V19.4999C28.8344 20.1043 28.3428 20.596 27.7383 20.596H9.20196C7.46187 20.596 6.0463 19.1802 6.0463 17.4403V15.3807H6.04617C6.04617 14.7763 6.53781 14.2846 7.14225 14.2846ZM27.7385 37.0729H7.14238C4.26664 37.0729 1.927 34.7332 1.927 31.8576C1.927 28.982 4.26664 26.6422 7.14238 26.6422H27.7385C30.6143 26.6422 32.954 28.9819 32.954 31.8576C32.954 34.7334 30.6143 37.0729 27.7385 37.0729ZM53.5998 31.747C53.4245 31.8588 53.2221 31.9179 53.0141 31.9179C52.636 31.9179 52.2893 31.7281 52.0871 31.4106L49.4695 27.2978C49.1453 26.7875 49.2962 26.1082 49.8064 25.7832C49.9842 25.6699 50.1861 25.6114 50.3922 25.6114C50.4718 25.6114 50.5521 25.6202 50.6319 25.6379C50.9179 25.7015 51.162 25.8726 51.3193 26.1196L53.9367 30.2323C54.2611 30.7427 54.11 31.4221 53.5998 31.747ZM52.9448 25.0848C52.5111 24.4037 51.8382 23.9321 51.0501 23.7569C50.2609 23.5814 49.4518 23.724 48.7709 24.1582C47.5353 24.9452 47.0649 26.4876 47.577 27.8047H33.615C32.325 25.94 30.1725 24.7152 27.7385 24.7152H7.14238C7.12015 24.7152 7.09831 24.7167 7.07609 24.7169V22.0553C7.72343 22.3547 8.44323 22.523 9.20196 22.523H27.7385C28.6422 22.523 29.454 22.1238 30.0085 21.4932H32.8873C33.4195 21.4932 33.8508 21.0619 33.8508 20.5297C33.8508 19.9974 33.4195 19.5662 32.8873 19.5662H30.7615V15.3806C30.7615 12.5048 33.1012 10.1652 35.977 10.1652H42.5028C44.2427 10.1652 45.942 10.6553 47.4087 11.5611C46.837 11.7997 46.3454 12.2125 46.0061 12.7614C45.4513 13.6591 45.4018 14.7588 45.8739 15.7028C46.3893 16.7335 47.4252 17.3739 48.5777 17.3739H54.4413L57.0323 19.5662H37.0068C36.4746 19.5662 36.0433 19.9974 36.0433 20.5297C36.0433 21.0619 36.4746 21.4932 37.0068 21.4932H58.5531C58.6482 21.7961 58.6991 22.1147 58.6991 22.4401V24.6488C58.6991 26.3889 57.2834 27.8045 55.5435 27.8045H54.676L52.9448 25.0848Z" fill="#933E00"/>
</svg>
