<svg width="51" height="51" viewBox="0 0 51 51" fill="none" xmlns="http://www.w3.org/2000/svg">
<path d="M46.325 40.8H36.7886L37.2136 39.1H45.4867C45.8726 39.1 46.2543 39.0191 46.6071 38.8626C46.9599 38.706 47.276 38.4773 47.5349 38.1911C47.7939 37.905 47.9901 37.5677 48.1107 37.2011C48.2314 36.8345 48.2739 36.4467 48.2355 36.0626L47.768 31.3876C47.7017 30.7052 47.3832 30.0721 46.8748 29.612C46.3665 29.152 45.7048 28.8981 45.0192 28.9H34.85V25.925C34.8494 25.3616 34.6253 24.8215 34.2269 24.4231C33.8285 24.0247 33.2884 23.8006 32.725 23.8H27.5688L27.2918 15.4888C27.2279 13.4947 26.4058 11.6 24.9932 10.1912L18.4511 3.64892C18.4486 3.64658 18.4457 3.64488 18.4433 3.64244C18.4122 3.61172 18.3787 3.58348 18.3432 3.55797C18.3403 3.55584 18.3372 3.55414 18.3342 3.55202C18.3011 3.52921 18.2665 3.5088 18.2306 3.49093C18.225 3.48806 18.22 3.48487 18.2137 3.48211C18.1845 3.46817 18.1545 3.4559 18.1239 3.44534L10.6339 0.895344C10.6152 0.888969 10.5965 0.884719 10.5777 0.879301C10.5697 0.877176 10.5619 0.874413 10.5538 0.872501C10.494 0.858326 10.4328 0.850772 10.3714 0.849976C10.3662 0.849976 10.3608 0.849976 10.356 0.849976C10.331 0.849976 10.3062 0.851144 10.2816 0.853376C10.2739 0.854119 10.2664 0.855288 10.2589 0.856138C10.2376 0.858794 10.2154 0.862088 10.1939 0.866763C10.1848 0.868569 10.1759 0.870694 10.1668 0.872819C10.1472 0.877353 10.1278 0.88263 10.1087 0.88865C10.099 0.891625 10.0892 0.894707 10.0794 0.898107C10.0611 0.904588 10.0432 0.911813 10.0253 0.919357C10.0158 0.923394 10.0062 0.927326 9.99685 0.931682C9.97793 0.940713 9.95955 0.9507 9.94128 0.961007C9.93395 0.96515 9.9263 0.968869 9.91896 0.973332C9.86773 1.00443 9.81993 1.04086 9.77638 1.08203C9.77531 1.08309 9.77404 1.08394 9.77287 1.085L6.21296 4.485C6.06135 4.62975 5.96856 4.82542 5.95244 5.03442L3.4171 37.9942L0.642913 42.8491C0.218854 43.5913 -0.0028375 44.4318 2.74189e-05 45.2865C0.00289233 46.1412 0.230213 46.9802 0.659238 47.7195C1.08826 48.4588 1.70394 49.0724 2.44465 49.4989C3.18535 49.9255 4.0251 50.15 4.87984 50.15H14.45C14.6754 50.15 14.8916 50.0604 15.051 49.901C15.2104 49.7416 15.3 49.5254 15.3 49.3C15.3 49.0745 15.2104 48.8583 15.051 48.6989C14.8916 48.5395 14.6754 48.45 14.45 48.45H13.2312L8.58 40.6979L9.30633 38.5188C9.30792 38.5141 9.30866 38.5093 9.31015 38.5047C9.31727 38.4819 9.32354 38.4588 9.32875 38.4352C9.33087 38.4258 9.33289 38.4166 9.33459 38.4072C9.33597 38.4001 9.33788 38.3932 9.33905 38.386L14.1692 8.60038L17.7378 12.2584C18.8065 13.3522 19.4294 14.8048 19.4851 16.333L19.9788 29.6299L18.4694 35.6675C18.3676 36.0747 18.36 36.4999 18.447 36.9106C18.5341 37.3212 18.7137 37.7067 18.972 38.0376C19.2304 38.3685 19.5608 38.6361 19.9381 38.8202C20.3154 39.0043 20.7297 39.1 21.1495 39.1H22.2864L22.7114 40.8H19.975C18.7351 40.8 17.546 41.2925 16.6693 42.1693C15.7925 43.046 15.3 44.2351 15.3 45.475C15.3 46.7149 15.7925 47.904 16.6693 48.7807C17.546 49.6574 18.7351 50.15 19.975 50.15H46.325C47.5649 50.15 48.754 49.6574 49.6307 48.7807C50.5075 47.904 51 46.7149 51 45.475C51 44.2351 50.5075 43.046 49.6307 42.1693C48.754 41.2925 47.5649 40.8 46.325 40.8ZM23.8 42.5H29.4402C28.7477 43.3367 28.3687 44.3888 28.3687 45.475C28.3687 46.5611 28.7477 47.6132 29.4402 48.45H23.5786C24.2711 47.6132 24.65 46.5611 24.65 45.475C24.65 44.3888 24.2711 43.3367 23.5786 42.5H23.8ZM30.0687 45.475C30.0687 44.8866 30.2432 44.3114 30.5701 43.8222C30.897 43.3329 31.3617 42.9516 31.9053 42.7264C32.4489 42.5013 33.047 42.4424 33.6241 42.5571C34.2012 42.6719 34.7313 42.9553 35.1474 43.3713C35.5634 43.7874 35.8468 44.3175 35.9616 44.8946C36.0764 45.4717 36.0175 46.0699 35.7923 46.6135C35.5671 47.1571 35.1858 47.6217 34.6966 47.9486C34.2073 48.2755 33.6321 48.45 33.0437 48.45C32.255 48.4491 31.4988 48.1354 30.9411 47.5776C30.3834 47.0199 30.0696 46.2637 30.0687 45.475V45.475ZM36.6473 42.5H42.7214C42.0289 43.3367 41.65 44.3888 41.65 45.475C41.65 46.5611 42.0289 47.6132 42.7214 48.45H36.6473C37.3398 47.6132 37.7188 46.5611 37.7188 45.475C37.7188 44.3888 37.3398 43.3367 36.6473 42.5V42.5ZM46.0765 31.5568L46.544 36.2318C46.5588 36.3795 46.5425 36.5287 46.4962 36.6698C46.4498 36.8109 46.3744 36.9407 46.2747 37.0508C46.1751 37.1609 46.0535 37.2489 45.9178 37.3092C45.782 37.3694 45.6352 37.4005 45.4867 37.4005H34.85V34.85H40.8C40.9699 34.85 41.1359 34.7991 41.2765 34.7038C41.4172 34.6086 41.5261 34.4734 41.5892 34.3157L43.0754 30.6H45.0192C45.2829 30.5992 45.5374 30.6969 45.7329 30.8738C45.9285 31.0508 46.051 31.2943 46.0765 31.5568V31.5568ZM41.2445 30.6005L40.2245 33.1505H34.85V30.6L41.2445 30.6005ZM21.653 29.9432L21.654 29.9395L22.5625 26.3058C22.6197 26.0758 22.7523 25.8715 22.9391 25.7257C23.1259 25.5798 23.3561 25.5007 23.5931 25.5009H29.75V31.4509H21.2761L21.653 29.9432ZM13.8732 5.64483L12.3728 3.2831L15.8412 4.46386L13.8732 5.64483ZM11.2488 48.45H4.87984C4.32287 48.45 3.77566 48.3037 3.293 48.0257C2.81033 47.7478 2.40914 47.3479 2.12958 46.8662C1.85001 46.3845 1.70188 45.8378 1.70002 45.2808C1.69815 44.7238 1.84261 44.1761 2.11894 43.6925L4.74331 39.1H7.32062L6.84366 40.5312C6.80488 40.6475 6.79172 40.7708 6.80509 40.8927C6.81846 41.0146 6.85804 41.1322 6.92112 41.2373L11.2488 48.45ZM7.77675 37.4H5.16789L7.62226 5.48981L10.1978 3.03012L12.709 6.98262L7.77675 37.4ZM18.955 11.0712L14.96 6.97571L17.7182 5.32034L23.7912 11.3932C24.8984 12.4975 25.5427 13.9825 25.5928 15.5455L25.8678 23.8H23.5932C23.1954 23.7998 22.8023 23.8857 22.4408 24.0519C22.0794 24.218 21.7582 24.4605 21.4993 24.7625L21.1839 16.27C21.113 14.3203 20.3184 12.4668 18.955 11.0712V11.0712ZM20.3124 36.9912C20.2127 36.8642 20.1433 36.716 20.1098 36.5579C20.0763 36.3999 20.0795 36.2363 20.1192 36.0797L20.8511 33.15H30.6C30.8254 33.15 31.0416 33.0604 31.201 32.901C31.3604 32.7416 31.45 32.5254 31.45 32.3V25.5H32.725C32.8377 25.5 32.9458 25.5448 33.0255 25.6245C33.1052 25.7042 33.15 25.8123 33.15 25.925V37.4H21.1495C20.9879 37.4005 20.8284 37.3639 20.6832 37.293C20.5381 37.2222 20.4111 37.119 20.312 36.9913L20.3124 36.9912ZM24.0386 39.1H35.4614L35.0364 40.8H24.4636L24.0386 39.1ZM17 45.475C17 44.8866 17.1745 44.3114 17.5014 43.8222C17.8283 43.3329 18.2929 42.9516 18.8365 42.7264C19.3801 42.5013 19.9783 42.4424 20.5554 42.5571C21.1325 42.6719 21.6626 42.9553 22.0786 43.3713C22.4947 43.7874 22.778 44.3175 22.8928 44.8946C23.0076 45.4717 22.9487 46.0699 22.7235 46.6135C22.4984 47.1571 22.1171 47.6217 21.6278 47.9486C21.1386 48.2755 20.5634 48.45 19.975 48.45C19.1863 48.4491 18.4301 48.1354 17.8723 47.5776C17.3146 47.0199 17.0009 46.2637 17 45.475V45.475ZM46.325 48.45C45.7366 48.45 45.1614 48.2755 44.6722 47.9486C44.1829 47.6217 43.8016 47.1571 43.5765 46.6135C43.3513 46.0699 43.2924 45.4717 43.4072 44.8946C43.522 44.3175 43.8053 43.7874 44.2214 43.3713C44.6374 42.9553 45.1675 42.6719 45.7446 42.5571C46.3217 42.4424 46.9199 42.5013 47.4635 42.7264C48.0071 42.9516 48.4717 43.3329 48.7986 43.8222C49.1255 44.3114 49.3 44.8866 49.3 45.475C49.2991 46.2637 48.9854 47.0199 48.4276 47.5776C47.8699 48.1354 47.1137 48.4491 46.325 48.45V48.45Z" fill="#933E00"/>
<path d="M19.9742 46.75C20.6784 46.75 21.2492 46.1791 21.2492 45.475C21.2492 44.7708 20.6784 44.2 19.9742 44.2C19.2701 44.2 18.6992 44.7708 18.6992 45.475C18.6992 46.1791 19.2701 46.75 19.9742 46.75Z" fill="#933E00"/>
<path d="M33.0445 46.75C33.7487 46.75 34.3195 46.1791 34.3195 45.475C34.3195 44.7708 33.7487 44.2 33.0445 44.2C32.3404 44.2 31.7695 44.7708 31.7695 45.475C31.7695 46.1791 32.3404 46.75 33.0445 46.75Z" fill="#933E00"/>
<path d="M45.9 46.75C46.6042 46.75 47.175 46.1791 47.175 45.475C47.175 44.7708 46.6042 44.2 45.9 44.2C45.1958 44.2 44.625 44.7708 44.625 45.475C44.625 46.1791 45.1958 46.75 45.9 46.75Z" fill="#933E00"/>
</svg>
