<svg width="98" height="140" viewBox="0 0 98 140" fill="none" xmlns="http://www.w3.org/2000/svg">
<path d="M44.3333 16.3334H53.6667C54.9553 16.3334 56 15.2887 56 14.0001C56 12.7114 54.9553 11.6667 53.6667 11.6667H44.3333C43.0447 11.6667 42 12.7114 42 14.0001C42 15.2887 43.0447 16.3334 44.3333 16.3334Z" fill="white"/>
<path d="M86.3333 16.3334H77C76.977 14.0971 75.8893 12.0059 74.0717 10.703L60.9 1.29269C59.7147 0.448688 58.2951 -0.00331503 56.84 1.83046e-05H41.16C39.7042 -0.000803449 38.2847 0.453625 37.1 1.29969L23.9353 10.7054C22.1154 12.006 21.025 14.0966 21 16.3334H11.6667C5.22654 16.3411 0.00771428 21.5599 0 28V128.333C0.00771428 134.773 5.22654 139.992 11.6667 140H86.3333C92.7735 139.992 97.9923 134.773 98 128.333V28C97.9923 21.5599 92.7735 16.3411 86.3333 16.3334ZM25.6667 16.4034C25.6638 15.6464 26.0305 14.9357 26.649 14.4994L39.802 5.10302C40.1972 4.81782 40.6726 4.66507 41.16 4.66669H56.84C57.3235 4.66452 57.7954 4.81475 58.1887 5.09602L71.3487 14.497C71.9669 14.9349 72.3341 15.6457 72.3333 16.4034V18.6667C72.3333 19.9554 71.2887 21 70 21H28C26.7113 21 25.6667 19.9554 25.6667 18.6667V16.4034ZM93.3333 128.333C93.3333 132.199 90.1993 135.333 86.3333 135.333H11.6667C7.80067 135.333 4.66667 132.199 4.66667 128.333V28C4.66667 24.134 7.80067 21 11.6667 21H21.399C22.3915 23.7947 25.0344 25.6631 28 25.6667H70C72.9656 25.6631 75.6085 23.7947 76.601 21H86.3333C90.1993 21 93.3333 24.134 93.3333 28V128.333Z" fill="white"/>
<path d="M16.3332 63H34.9998C37.5772 63 39.6665 60.9107 39.6665 58.3333V53.62C39.6665 52.3313 38.6218 51.2867 37.3332 51.2867C36.0445 51.2867 34.9998 52.3313 34.9998 53.62V58.3333H16.3332V39.6667H27.6498C28.9385 39.6667 29.9832 38.622 29.9832 37.3333C29.9832 36.0447 28.9385 35 27.6498 35H16.3332C13.7558 35 11.6665 37.0893 11.6665 39.6667V58.3333C11.6665 60.9107 13.7558 63 16.3332 63Z" fill="white"/>
<path d="M40.4835 35.5623L25.7835 48.1623L22.6428 45.0239C21.7273 44.1397 20.2719 44.1523 19.3719 45.0524C18.4718 45.9524 18.4592 47.4077 19.3435 48.3233L24.0101 52.9899C24.8721 53.8507 26.2512 53.9035 27.1765 53.1113L43.5098 39.1113C44.1794 38.5802 44.5051 37.7256 44.3588 36.8837C44.2125 36.0417 43.6176 35.347 42.8082 35.073C41.9987 34.7989 41.1042 34.9893 40.4765 35.5693L40.4835 35.5623Z" fill="white"/>
<path d="M16.3332 95.6667H34.9998C37.5772 95.6667 39.6665 93.5774 39.6665 91.0001V86.2867C39.6665 84.9981 38.6218 83.9534 37.3332 83.9534C36.0445 83.9534 34.9998 84.9981 34.9998 86.2867V91.0001H16.3332V72.3334H27.6498C28.9385 72.3334 29.9832 71.2887 29.9832 70.0001C29.9832 68.7114 28.9385 67.6667 27.6498 67.6667H16.3332C13.7558 67.6667 11.6665 69.7561 11.6665 72.3334V91.0001C11.6665 93.5774 13.7558 95.6667 16.3332 95.6667Z" fill="white"/>
<path d="M40.4835 68.229L25.7835 80.829L22.6428 77.6907C21.7273 76.8064 20.2719 76.8191 19.3719 77.7191C18.4718 78.6191 18.4592 80.0745 19.3435 80.99L24.0101 85.6567C24.8721 86.5174 26.2512 86.5703 27.1765 85.778L43.5098 71.778C44.1794 71.247 44.5051 70.3924 44.3588 69.5504C44.2125 68.7084 43.6176 68.0138 42.8082 67.7397C41.9987 67.4657 41.1042 67.6561 40.4765 68.236L40.4835 68.229Z" fill="white"/>
<path d="M37.3332 116.62C36.0445 116.62 34.9998 117.665 34.9998 118.953V123.667H16.3332V105H27.6498C28.9385 105 29.9832 103.955 29.9832 102.667C29.9832 101.378 28.9385 100.333 27.6498 100.333H16.3332C13.7558 100.333 11.6665 102.423 11.6665 105V123.667C11.6665 126.244 13.7558 128.333 16.3332 128.333H34.9998C37.5772 128.333 39.6665 126.244 39.6665 123.667V118.953C39.6665 117.665 38.6218 116.62 37.3332 116.62Z" fill="white"/>
<path d="M40.4835 100.896L25.7835 113.496L22.6428 110.357C21.7273 109.473 20.2719 109.486 19.3719 110.386C18.4718 111.286 18.4592 112.741 19.3435 113.657L24.0101 118.323C24.8721 119.184 26.2512 119.237 27.1765 118.445L43.5098 104.445C44.4312 103.593 44.5146 102.166 43.6986 101.213C42.8827 100.26 41.4593 100.123 40.4765 100.903L40.4835 100.896Z" fill="white"/>
<path d="M81.6667 37.3333H58.3333C57.0447 37.3333 56 38.3779 56 39.6666C56 40.9552 57.0447 41.9999 58.3333 41.9999H81.6667C82.9553 41.9999 84 40.9552 84 39.6666C84 38.3779 82.9553 37.3333 81.6667 37.3333Z" fill="white"/>
<path d="M81.6667 46.6667H58.3333C57.0447 46.6667 56 47.7114 56 49.0001C56 50.2887 57.0447 51.3334 58.3333 51.3334H81.6667C82.9553 51.3334 84 50.2887 84 49.0001C84 47.7114 82.9553 46.6667 81.6667 46.6667Z" fill="white"/>
<path d="M58.3333 60.6667H70C71.2887 60.6667 72.3333 59.622 72.3333 58.3333C72.3333 57.0447 71.2887 56 70 56H58.3333C57.0447 56 56 57.0447 56 58.3333C56 59.622 57.0447 60.6667 58.3333 60.6667Z" fill="white"/>
<path d="M81.6667 70H58.3333C57.0447 70 56 71.0447 56 72.3333C56 73.622 57.0447 74.6667 58.3333 74.6667H81.6667C82.9553 74.6667 84 73.622 84 72.3333C84 71.0447 82.9553 70 81.6667 70Z" fill="white"/>
<path d="M81.6667 79.3333H58.3333C57.0447 79.3333 56 80.3779 56 81.6666C56 82.9552 57.0447 83.9999 58.3333 83.9999H81.6667C82.9553 83.9999 84 82.9552 84 81.6666C84 80.3779 82.9553 79.3333 81.6667 79.3333Z" fill="white"/>
<path d="M58.3333 93.3334H70C71.2887 93.3334 72.3333 92.2887 72.3333 91.0001C72.3333 89.7114 71.2887 88.6667 70 88.6667H58.3333C57.0447 88.6667 56 89.7114 56 91.0001C56 92.2887 57.0447 93.3334 58.3333 93.3334Z" fill="white"/>
<path d="M81.6667 102.667H58.3333C57.0447 102.667 56 103.711 56 105C56 106.289 57.0447 107.333 58.3333 107.333H81.6667C82.9553 107.333 84 106.289 84 105C84 103.711 82.9553 102.667 81.6667 102.667Z" fill="white"/>
<path d="M81.6667 112H58.3333C57.0447 112 56 113.045 56 114.333C56 115.622 57.0447 116.667 58.3333 116.667H81.6667C82.9553 116.667 84 115.622 84 114.333C84 113.045 82.9553 112 81.6667 112Z" fill="white"/>
<path d="M70 121.333H58.3333C57.0447 121.333 56 122.378 56 123.667C56 124.955 57.0447 126 58.3333 126H70C71.2887 126 72.3333 124.955 72.3333 123.667C72.3333 122.378 71.2887 121.333 70 121.333Z" fill="white"/>
</svg>
