<svg width="140" height="140" viewBox="0 0 140 140" fill="none" xmlns="http://www.w3.org/2000/svg">
<path d="M137.2 50.4H126V5.6C125.997 2.50879 123.491 0.00273437 120.4 0H19.6C16.5088 0.00273437 14.0027 2.50879 14 5.6V50.4H2.8C1.25371 50.4 0 51.6537 0 53.2V75.6C0 77.1463 1.25371 78.4 2.8 78.4H14V103.6C14 104.352 14.3049 105.072 14.8449 105.596C14.2953 106.719 14.0068 107.95 14 109.2V114.8C14.0055 119.437 17.7625 123.195 22.4 123.2V131.6C22.4055 136.237 26.1625 139.995 30.8 140H42C46.6375 139.995 50.3945 136.237 50.4 131.6V123.2H89.6V131.6C89.6055 136.237 93.3625 139.995 98 140H109.2C113.837 139.995 117.595 136.237 117.6 131.6V123.2C122.237 123.195 125.995 119.437 126 114.8V109.2C125.993 107.95 125.705 106.719 125.156 105.596C125.695 105.072 126 104.352 126 103.6V78.4H137.2C138.746 78.4 140 77.1463 140 75.6V53.2C140 51.6537 138.746 50.4 137.2 50.4ZM117.6 100.8V82.6984L120.4 80.8322V100.8H117.6ZM39.2 100.8V92.4C39.2 91.6576 38.9047 90.9453 38.3797 90.4203L32.7797 84.8203C32.2547 84.2953 31.5424 84 30.8 84H28V36.4C28.0055 31.7625 31.7625 28.0055 36.4 28H103.6C108.237 28.0055 111.995 31.7625 112 36.4V84H109.2C108.458 84 107.745 84.2953 107.22 84.8203L101.62 90.4203C101.095 90.9453 100.8 91.6576 100.8 92.4V100.8H39.2ZM19.6 100.8V80.8322L22.4 82.6984V100.8H19.6ZM28 89.6H29.6406L33.6 93.5594V100.8H28V89.6ZM106.4 93.5594L110.359 89.6H112V100.8H106.4V93.5594ZM19.6 5.6H120.4V74.1016L117.6 75.9678V36.4C117.59 28.6713 111.329 22.4096 103.6 22.4H36.4C28.6713 22.4096 22.4096 28.6713 22.4 36.4V75.9678L19.6 74.1016V5.6ZM5.6 72.8V56H14V72.8H5.6ZM44.8 131.6C44.7986 133.145 43.5449 134.399 42 134.4H30.8C29.2551 134.399 28.0014 133.145 28 131.6V123.2H44.8V131.6ZM112 131.6C111.999 133.145 110.745 134.399 109.2 134.4H98C96.4551 134.399 95.2014 133.145 95.2 131.6V123.2H112V131.6ZM120.4 114.8C120.399 116.345 119.145 117.599 117.6 117.6H22.4C20.8551 117.599 19.6014 116.345 19.6 114.8V109.2C19.6014 107.655 20.8551 106.401 22.4 106.4H117.6C119.145 106.401 120.399 107.655 120.4 109.2V114.8ZM134.4 72.8H126V56H134.4V72.8Z" fill="white"/>
<path d="M46.6002 78.4H93.399C93.7805 78.4 94.1564 78.322 94.5064 78.1717L107.507 72.5717C108.534 72.1287 109.2 71.1183 109.2 70V39.2C109.25 36.1635 106.836 33.6588 103.799 33.6H36.2C33.1635 33.6588 30.749 36.1635 30.7996 39.2V70C30.7996 71.1183 31.4654 72.1287 32.4922 72.5717L45.4928 78.1717C45.8428 78.322 46.2187 78.4 46.6002 78.4V78.4ZM36.2 39.2H103.6V68.157L92.8221 72.8H84.2238L85.8234 70H93.7996C95.3459 70 96.5996 68.7463 96.5996 67.2C96.5996 65.6537 95.3459 64.4 93.7996 64.4H76.9996C75.4533 64.4 74.1996 65.6537 74.1996 67.2C74.1996 68.7463 75.4533 70 76.9996 70H79.3744L77.7748 72.8H56.2238L57.8234 70H65.7996C67.3459 70 68.5996 68.7463 68.5996 67.2C68.5996 65.6537 67.3459 64.4 65.7996 64.4H48.9996C47.4533 64.4 46.1996 65.6537 46.1996 67.2C46.1996 68.7463 47.4533 70 48.9996 70H51.3744L49.7748 72.8H47.1771L36.3873 68.1515L36.2 39.2Z" fill="white"/>
<path d="M61.5996 109.2H50.3996C48.8533 109.2 47.5996 110.454 47.5996 112C47.5996 113.546 48.8533 114.8 50.3996 114.8H61.5996C63.1459 114.8 64.3996 113.546 64.3996 112C64.3996 110.454 63.1459 109.2 61.5996 109.2Z" fill="white"/>
<path d="M89.5996 109.2H78.3996C76.8533 109.2 75.5996 110.454 75.5996 112C75.5996 113.546 76.8533 114.8 78.3996 114.8H89.5996C91.1459 114.8 92.3996 113.546 92.3996 112C92.3996 110.454 91.1459 109.2 89.5996 109.2Z" fill="white"/>
<path d="M92.3998 92.4H47.5998C46.0535 92.4 44.7998 93.6537 44.7998 95.2C44.7998 96.7463 46.0535 98 47.5998 98H92.3998C93.9461 98 95.1998 96.7463 95.1998 95.2C95.1998 93.6537 93.9461 92.4 92.3998 92.4Z" fill="white"/>
<path d="M92.3998 84H47.5998C46.0535 84 44.7998 85.2537 44.7998 86.8C44.7998 88.3463 46.0535 89.6 47.5998 89.6H92.3998C93.9461 89.6 95.1998 88.3463 95.1998 86.8C95.1998 85.2537 93.9461 84 92.3998 84Z" fill="white"/>
</svg>
