<svg width="68" height="39" viewBox="0 0 68 39" fill="none" xmlns="http://www.w3.org/2000/svg">
<path d="M12.4745 16.8735L11.0719 17.0132C10.53 17.0672 10.1346 17.55 10.1885 18.092C10.2391 18.6006 10.6678 18.9802 11.1683 18.9802C11.2011 18.9802 11.2341 18.9786 11.2672 18.9752L12.67 18.8355C13.2119 18.7816 13.6073 18.2986 13.5532 17.7568C13.4995 17.215 13.0166 16.8194 12.4745 16.8735V16.8735Z" fill="#933E00"/>
<path d="M66.3163 32.8032C62.9956 32.8032 62.8463 31.1272 58.8995 31.1772L64.9482 21.8503C65.8113 21.6013 66.4062 20.7658 66.3129 19.8316L66.0906 17.6C65.9996 16.6839 65.2768 15.988 64.4 15.8943L59.3513 9.96059C58.5573 9.02742 57.4831 8.25581 56.2991 7.80454L40.9484 1.95196C38.9932 0.452898 38.8013 -0.0626509 38.1159 0.00596637L32.0212 0.613137C31.4794 0.667163 31.084 1.14998 31.138 1.69195C31.1919 2.23379 31.6745 2.62933 32.2168 2.57517L37.9051 2.00849L39.1402 3.01987L35.5018 8.62873L25.7843 8.74388C25.2398 8.75032 24.8038 9.19699 24.8101 9.74133C24.8166 10.2819 25.2567 10.7155 25.7957 10.7155H25.8077L34.2126 10.6159C33.9099 11.0825 33.2611 12.0827 32.7927 12.8048L9.95975 13.1288L10.935 8.62558L13.8421 8.61269L15.8246 10.5455C16.0115 10.7279 16.2574 10.8286 16.5245 10.8254L21.4133 10.7676C21.9578 10.7611 22.3938 10.3146 22.3875 9.77012C22.381 9.22565 21.9363 8.79239 21.39 8.79594L16.9091 8.84904L14.9298 6.91922C14.7456 6.73966 14.4986 6.63923 14.2415 6.63923H14.2372L10.1347 6.65724C9.67227 6.65934 9.27345 6.98244 9.17552 7.4345L7.80501 13.7625L2.86023 21.9334C2.78859 21.9532 2.00449 21.9138 1.41099 22.6386C1.08841 23.0326 0.938689 23.5285 0.989166 24.035L1.21145 26.2669C1.26193 26.7735 1.50669 27.2302 1.90064 27.5528C2.24452 27.8343 2.66621 27.9843 3.10434 27.9843C3.16494 27.9843 3.2258 27.9809 3.28679 27.9752L5.53854 32.3023C4.41017 31.8344 3.3771 31.1749 0.98588 31.1749C0.441411 31.1749 0 31.6163 0 32.1608C0 32.7052 0.441411 33.1466 0.98588 33.1466C4.30501 33.1466 4.38598 34.7749 8.24471 34.7749C12.0591 34.7749 12.2294 33.1466 15.5033 33.1466C18.8224 33.1466 18.9035 34.7749 22.7623 34.7749C26.5766 34.7749 26.7469 33.1466 30.0207 33.1466C33.3401 33.1466 33.4204 34.7749 37.2793 34.7749C41.094 34.7749 41.2642 33.1466 44.5384 33.1466C47.8577 33.1466 47.9381 34.7749 51.7971 34.7749C55.6392 34.7749 55.7516 33.1466 59.0568 33.1466C62.3792 33.1466 62.4557 34.7749 66.3166 34.7749C66.8612 34.7749 67.3024 34.3335 67.3024 33.789C67.3024 33.2446 66.8609 32.8032 66.3163 32.8032V32.8032ZM9.29422 15.1103L33.3473 14.7689C33.6763 14.7643 33.9814 14.5958 34.1605 14.3198L35.229 12.6724C41.925 13.6545 44.072 14.5313 47.2607 14.3949C47.8048 14.3717 48.2269 13.9119 48.2036 13.3678C48.1802 12.8237 47.7157 12.3998 47.1766 12.425C44.7694 12.5283 43.784 12.0743 36.396 10.8738L40.8412 4.02139L55.1818 9.48894C54.455 9.92733 53.2786 10.8949 51.212 11.6351C50.6994 11.8186 50.4327 12.3831 50.6164 12.8958C50.7991 13.4056 51.3617 13.6759 51.877 13.4914C54.3586 12.6025 55.6693 11.4637 57.153 10.5553C57.8293 11.113 57.7465 11.1611 61.9798 16.0925L5.31152 21.6912L9.29422 15.1103ZM51.7969 32.8032C48.4779 32.8032 48.397 31.1749 44.5382 31.1749C40.7235 31.1749 40.5533 32.8032 37.2791 32.8032C33.9597 32.8032 33.8794 31.1749 30.0206 31.1749C26.2061 31.1749 26.036 32.8032 22.7621 32.8032C19.443 32.8032 19.3619 31.1749 15.5032 31.1749C11.6005 31.1749 11.5251 32.8734 8.0202 32.8001L5.40091 27.7668L15.2679 26.7919C15.8097 26.7383 16.2056 26.2557 16.1521 25.7139C16.0986 25.1721 15.6163 24.7774 15.0741 24.8296C14.0113 24.9347 4.91862 25.833 3.16691 26.0061L2.95764 23.9051C6.13283 23.5914 62.5224 18.02 64.135 17.8606L64.3443 19.9616L19.3707 24.4052C18.8289 24.4587 18.4329 24.9414 18.4864 25.4832C18.5401 26.0252 19.0231 26.4207 19.5645 26.3675L62.4139 22.1337L56.2961 31.5671C54.6798 32.0853 54.1232 32.8032 51.7969 32.8032Z" fill="#933E00"/>
<path d="M59.0558 35.3999C55.2408 35.3999 55.0703 37.0282 51.796 37.0282C48.477 37.0282 48.3961 35.3999 44.5373 35.3999C40.7226 35.3999 40.5524 37.0282 37.2782 37.0282C33.9588 37.0282 33.8785 35.3999 30.0197 35.3999C26.2052 35.3999 26.0351 37.0282 22.7612 37.0282C19.4421 37.0282 19.361 35.3999 15.5023 35.3999C11.6878 35.3999 11.5176 37.0282 8.24369 37.0282C7.69922 37.0282 7.25781 37.4696 7.25781 38.0141C7.25781 38.5585 7.69922 38.9999 8.24369 38.9999C12.0581 38.9999 12.2284 37.3717 15.5023 37.3717C18.8214 37.3717 18.9025 38.9999 22.7612 38.9999C26.5755 38.9999 26.7459 37.3717 30.0197 37.3717C33.3391 37.3717 33.4194 38.9999 37.2782 38.9999C41.0929 38.9999 41.2632 37.3717 44.5373 37.3717C47.8565 37.3717 47.9372 38.9999 51.796 38.9999C55.611 38.9999 55.7815 37.3717 59.0558 37.3717C59.6004 37.3717 60.0417 36.9303 60.0417 36.3858C60.0417 35.8413 59.6003 35.3999 59.0558 35.3999V35.3999Z" fill="#933E00"/>
</svg>
