<svg width="1440" height="913" viewBox="0 0 1440 913" fill="none" xmlns="http://www.w3.org/2000/svg">
<path fill-rule="evenodd" clip-rule="evenodd" d="M1219.15 885.514C1110.34 854.991 998.112 799.823 922.016 729.491C854.4 666.988 822.56 593.199 794.96 529.214C766.672 463.674 742.848 408.48 689.504 386.527C615.936 356.25 536.288 385.638 456.464 415.099C286.112 477.972 114.992 541.068 0 26.5719V22.7935C114.784 539.907 285.904 476.762 456.288 413.889C536.192 384.378 615.952 354.966 689.712 385.317C743.36 407.394 767.248 462.785 795.632 528.523C823.184 592.409 854.976 666.074 922.432 728.405C998.448 798.662 1110.56 853.781 1219.3 884.304C1300.16 906.999 1379.14 916.062 1440 907.641V908.876C1379.06 917.297 1300.03 908.209 1219.15 885.514V885.514ZM456.288 425.273C536.192 395.787 615.952 366.351 689.712 396.701C743.36 418.778 767.248 474.169 795.632 539.932C823.184 603.794 854.976 677.459 922.432 739.814C998.448 810.071 1110.56 865.19 1219.3 895.689C1244.86 902.85 1270.24 908.678 1294.91 913H1287.97C1265.44 908.827 1242.37 903.418 1219.15 896.923C1110.34 866.376 998.112 811.207 922.016 740.876C854.4 678.397 822.56 604.584 794.96 540.624C766.672 475.083 742.848 419.865 689.504 397.911C615.936 367.635 536.288 397.022 456.464 426.483C286.112 489.357 114.992 552.452 0 37.9563V34.1779C114.784 551.292 285.904 488.147 456.288 425.273V425.273ZM456.288 436.658C536.192 407.172 615.952 377.735 689.712 408.085C743.36 430.163 767.248 485.554 795.632 551.317C823.184 615.178 854.976 688.843 922.432 751.198C998.448 821.456 1110.56 876.575 1219.3 907.073C1226.75 909.164 1234.19 911.14 1241.6 913H1236.62C1230.81 911.502 1224.99 909.938 1219.15 908.308C1110.34 877.76 998.112 822.591 922.016 752.26C854.4 689.782 822.56 615.968 794.96 552.008C766.672 486.467 742.848 431.249 689.504 409.295C615.936 379.019 536.288 408.406 456.464 437.868C286.112 500.741 114.992 563.837 0 49.3407V45.5623C114.784 562.676 285.904 499.531 456.288 436.658V436.658ZM456.288 448.042C536.192 418.556 615.952 389.12 689.712 419.494C743.36 441.572 767.248 496.938 795.632 562.701C823.184 626.562 854.976 700.252 922.432 762.583C994.112 828.839 1097.89 881.613 1200.66 913H1196.53C1094.98 881.44 992.848 829.111 922.016 763.644C854.4 701.166 822.56 627.353 794.96 563.392C766.672 497.852 742.848 442.658 689.504 420.68C615.936 390.404 536.288 419.791 456.464 449.252C286.112 512.126 114.992 575.221 0 60.7498V56.9467C114.784 574.061 285.904 510.915 456.288 448.042V448.042ZM456.288 459.426C536.192 429.94 615.952 400.504 689.712 430.879C743.36 452.956 767.248 508.323 795.632 574.085C823.184 637.947 854.976 711.637 922.432 773.967C986.048 832.766 1074.94 880.971 1166 913H1162.38C1072.46 880.946 984.912 833.161 922.016 775.029C854.4 712.55 822.56 638.737 794.96 574.777C766.672 509.236 742.848 454.043 689.504 432.089C615.936 401.788 536.288 431.2 456.464 460.636C286.112 523.51 114.992 586.606 0 72.1342V68.3311C114.784 585.445 285.904 522.3 456.288 459.426V459.426ZM456.288 470.835C536.192 441.325 615.952 411.913 689.712 442.263C743.36 464.341 767.248 519.732 795.632 585.47C823.184 649.331 854.976 723.021 922.432 785.351C978.912 837.557 1055.31 881.39 1135.46 913H1132.21C1053.1 881.464 977.84 838.026 922.016 786.413C854.4 723.935 822.56 650.146 794.96 586.161C766.672 520.621 742.848 465.427 689.504 443.473C615.936 413.197 536.288 442.584 456.464 472.045C286.112 534.894 114.992 597.99 0 83.5186V79.7156C114.784 596.829 285.904 533.684 456.288 470.835V470.835ZM456.288 482.22C536.192 452.709 615.952 423.297 689.712 453.648C743.36 475.725 767.248 531.116 795.632 596.854C823.184 660.74 854.976 734.406 922.432 796.736C972.416 842.94 1038 882.576 1107.97 913H1105.01C1036 882.724 971.408 843.459 922.016 797.822C854.4 735.319 822.56 661.531 794.96 597.546C766.672 532.005 742.848 476.812 689.504 454.858C615.936 424.582 536.288 453.969 456.464 483.43C286.112 546.303 114.992 609.399 0 94.903V91.1247C114.784 608.214 285.904 545.093 456.288 482.22V482.22ZM456.288 493.604C536.192 464.118 615.952 434.682 689.712 465.032C743.36 487.109 767.248 542.5 795.632 608.263C823.184 672.125 854.976 745.79 922.432 808.12C966.384 848.768 1022.42 884.329 1082.88 913H1080.16C1020.59 884.502 965.424 849.311 922.016 809.207C854.4 746.728 822.56 672.915 794.96 608.93C766.672 543.414 742.848 488.196 689.504 466.242C615.936 435.966 536.288 465.353 456.464 494.814C286.112 557.688 114.992 620.784 0 106.287V102.509C114.784 619.623 285.904 556.478 456.288 493.604V493.604ZM456.288 504.989C536.192 475.503 615.952 446.066 689.712 476.417C743.36 498.494 767.248 553.885 795.632 619.648C823.184 683.509 854.976 757.174 922.432 819.529C960.736 854.942 1008.22 886.502 1059.82 913H1057.28C1006.51 886.7 959.808 855.51 922.016 820.591C854.4 758.113 822.56 684.299 794.96 620.339C766.672 554.799 742.848 499.58 689.504 477.627C615.936 447.35 536.288 476.738 456.464 506.199C286.112 569.072 114.992 632.168 0 117.672V113.893C114.784 631.007 285.904 567.862 456.288 504.989V504.989ZM1219.15 874.13C1110.34 843.607 998.112 788.438 922.016 718.082C854.4 655.604 822.56 581.815 794.96 517.83C766.672 452.29 742.848 397.096 689.504 375.142C615.936 344.866 536.288 374.253 456.464 403.714C286.112 466.563 114.992 529.684 0 15.1874V11.4091C114.784 528.498 285.904 465.378 456.288 402.504C536.192 372.994 615.952 343.582 689.712 373.932C743.36 396.009 767.248 451.4 795.632 517.139C823.184 581 854.976 654.69 922.432 717.02C998.448 787.278 1110.56 842.397 1219.3 872.92C1300.16 895.59 1379.14 904.678 1440 896.232V897.491C1379.06 905.912 1300.03 896.825 1219.15 874.13V874.13ZM456.288 516.373C536.192 486.887 615.952 457.451 689.712 487.826C743.36 509.903 767.248 565.269 795.632 631.032C823.184 694.893 854.976 768.583 922.432 830.914C955.392 861.387 995.152 888.996 1038.48 913H1036.1C993.552 889.243 954.496 862.005 922.016 831.976C854.4 769.497 822.56 695.684 794.96 631.724C766.672 566.183 742.848 510.99 689.504 489.011C615.936 458.735 536.288 488.122 456.464 517.583C286.112 580.457 114.992 643.552 0 129.081V125.278C114.784 642.392 285.904 579.247 456.288 516.373V516.373ZM0 0C114.784 517.114 285.904 453.969 456.288 391.095C536.192 361.609 615.952 332.173 689.712 362.548C743.36 384.625 767.248 439.991 795.632 505.754C823.184 569.616 854.976 643.306 922.432 705.636C998.448 775.893 1110.56 831.012 1219.3 861.511C1300.16 884.206 1379.14 893.293 1440 884.848V886.107C1379.06 894.528 1300.03 885.44 1219.15 862.746C1110.34 832.223 998.112 777.054 922.016 706.698C854.4 644.219 822.56 570.431 794.96 506.446C766.672 440.905 742.848 385.712 689.504 363.758C615.936 333.457 536.288 362.869 456.464 392.305C286.112 455.179 114.992 518.275 0 3.80303V0Z" fill="#EA7500" fill-opacity="0.3"/>
</svg>
