<svg width="1440" height="356" viewBox="0 0 1440 356" fill="none" xmlns="http://www.w3.org/2000/svg">
<path fill-rule="evenodd" clip-rule="evenodd" d="M844.909 133.035C692.645 203.545 540.703 273.915 387.439 258.851C276.007 247.901 216.275 179.623 145.384 98.5815C117.582 66.7788 88.0715 33.0233 53.0131 0H55.4642C89.9744 32.6397 119.131 65.9768 146.578 97.3611C217.243 178.158 276.749 246.192 387.601 257.072C540.445 272.102 692.193 201.836 844.264 131.396C1041.23 40.2068 1238.71 -51.1564 1440 41.5667V43.659C1238.91 -49.3431 1041.65 41.9155 844.909 133.035ZM847.425 148.866C695.161 219.376 543.219 289.747 389.955 274.682C278.523 263.733 218.791 195.489 147.9 114.413C115.647 77.5193 81.0405 37.975 38.1769 0H40.7571C82.9756 37.6263 117.163 76.7172 149.093 113.228C219.759 193.99 279.264 262.059 390.116 272.939C542.961 287.968 694.709 217.668 846.78 147.262C1042.91 56.422 1239.58 -34.5228 1440 56.2825V58.3748C1239.78 -32.7094 1043.33 58.1307 847.425 148.866ZM849.94 164.733C697.676 235.243 545.735 305.613 392.471 290.549C281.038 279.599 221.307 211.321 150.416 130.28C113.648 88.2248 73.8158 42.7175 22.1796 0H24.8564C75.7832 42.3688 115.164 87.4227 151.609 129.059C222.274 209.856 281.812 277.891 392.632 288.77C545.477 303.8 697.225 233.534 849.295 163.094C1044.62 72.6721 1240.45 -17.889 1440 70.9983V73.0906C1240.65 -16.1106 1045.04 74.3808 849.94 164.733ZM852.456 180.564C700.192 251.074 548.25 321.445 394.986 306.381C283.554 295.431 223.822 227.187 152.931 146.111C111.551 98.8257 66.3656 47.1462 4.79553 0H7.60144C68.3329 46.8323 113.099 98.0237 154.125 144.926C224.79 225.688 284.328 293.757 395.148 304.637C547.992 319.667 699.74 249.366 851.811 178.96C1046.33 88.8873 1241.32 -1.32509 1440 85.714V87.8063C1241.52 0.488228 1046.71 90.596 852.456 180.564ZM1440 132.058C1244.13 50.2846 1051.81 139.277 860.003 228.129C707.739 298.639 555.797 369.01 402.533 353.945C291.101 342.995 231.402 274.717 160.478 193.676C104.585 129.757 41.7246 57.8866 -59 0H-55.5812C43.8211 57.7471 106.197 129.024 161.672 192.455C232.337 273.253 291.875 341.287 402.695 352.202C555.539 367.196 707.287 296.93 859.358 226.49C1051.39 137.568 1243.94 48.4713 1440 129.966V132.058ZM857.487 212.262C705.223 282.772 553.282 353.143 400.018 338.079C288.585 327.129 228.886 258.886 157.963 177.844C107.068 119.644 50.4006 54.8528 -35.3911 0H-32.1981C52.4325 54.6087 108.649 118.877 159.156 176.624C229.821 257.421 289.359 325.455 400.179 336.335C553.024 351.365 704.804 281.064 856.842 210.658C1049.71 121.353 1243.07 31.8725 1440 115.215V117.238C1243.26 33.6509 1050.13 123.061 857.487 212.262ZM854.972 196.431C702.708 266.941 550.766 337.311 397.502 322.247C286.07 311.297 226.37 243.019 155.447 161.978C109.39 109.322 58.5604 51.2261 -14.298 0H-11.2985C60.5601 50.9472 110.938 108.52 156.64 160.757C227.306 241.554 286.811 309.589 397.663 320.503C550.508 335.498 702.288 265.232 854.327 194.792C1048 105.137 1242.2 15.3086 1440 100.465V102.557C1242.39 17.0871 1048.42 106.846 854.972 196.431ZM842.393 117.168C690.129 187.678 538.188 258.049 384.924 242.984C273.491 232.035 213.76 163.791 142.869 82.7151C119.518 56.0035 94.909 27.8972 66.8494 0H69.2683C96.812 27.5136 121.033 55.2015 144.062 81.5294C214.727 162.292 274.233 230.361 385.085 241.241C537.929 256.27 689.678 185.969 841.748 115.564C942.699 68.8013 1043.81 22.0387 1145.47 0H1154.37C1049.91 21.0972 946.085 69.1501 842.393 117.168ZM839.878 101.336C687.613 171.846 535.672 242.217 382.408 227.153C270.975 216.203 211.244 147.925 140.353 66.8835C121.421 45.2283 101.65 22.6316 79.9116 0H82.266C103.553 22.248 122.936 44.3914 141.546 65.6629C212.211 146.46 271.717 214.494 382.569 225.409C535.414 240.404 687.162 170.138 839.232 99.6974C920.154 62.2455 1001.14 24.7587 1082.45 0H1088.64C1005.46 24.6541 922.605 63.0127 839.878 101.336ZM837.362 85.4699C685.098 155.98 533.156 226.35 379.892 211.286C268.46 200.336 208.728 132.093 137.837 51.0169C123.324 34.4181 108.326 17.2962 92.3289 0H94.6188C110.229 16.8778 124.839 33.616 139.031 49.8313C209.696 130.594 269.202 198.663 380.053 209.542C532.898 224.572 684.646 154.271 836.717 83.8658C901.835 53.702 966.985 23.5382 1032.33 0H1037.59C970.694 23.7474 903.996 54.6087 837.362 85.4699ZM834.846 69.6382C682.582 140.148 530.64 210.519 377.376 195.454C265.944 184.505 206.212 116.226 135.321 35.1853C125.259 23.6777 114.97 11.8912 104.262 0H106.552C116.841 11.5076 126.775 22.8408 136.515 33.9648C207.18 114.762 266.686 182.796 377.538 193.711C530.382 208.706 682.13 138.44 834.201 67.9993C885.483 44.2868 936.764 20.5393 988.175 0H992.883C940.118 20.888 887.45 45.2631 834.846 69.6382ZM832.33 53.7718C680.066 124.282 528.125 194.652 374.861 179.588C263.428 168.638 203.697 100.395 132.806 19.3188C127.226 12.9722 121.582 6.52096 115.841 0H118.099C123.485 6.1025 128.774 12.1353 133.999 18.1331C204.664 98.9303 264.17 166.964 375.022 177.844C527.867 192.874 679.615 122.573 831.685 52.1677C870.227 34.3135 908.769 16.4942 947.343 0H951.794C911.93 16.9126 872.13 35.3596 832.33 53.7718ZM1357.18 0H1365.37C1390.2 6.3466 1415.07 15.204 1440 26.8859V29.013C1412.33 16.006 1384.72 6.48609 1357.18 0ZM1406.49 0H1411.94C1421.29 3.6615 1430.65 7.70656 1440 12.1701V14.3322C1428.81 8.96201 1417.65 4.21944 1406.49 0Z" fill="#EA7500" fill-opacity="0.3"/>
</svg>
